G04 Layer_Physical_Order=1*
G04 Layer_Color=255*
%FSLAX25Y25*%
%MOIN*%
G70*
G01*
G75*
G04:AMPARAMS|DCode=10|XSize=59.05mil|YSize=17.72mil|CornerRadius=2.21mil|HoleSize=0mil|Usage=FLASHONLY|Rotation=180.000|XOffset=0mil|YOffset=0mil|HoleType=Round|Shape=RoundedRectangle|*
%AMROUNDEDRECTD10*
21,1,0.05905,0.01329,0,0,180.0*
21,1,0.05463,0.01772,0,0,180.0*
1,1,0.00443,-0.02731,0.00664*
1,1,0.00443,0.02731,0.00664*
1,1,0.00443,0.02731,-0.00664*
1,1,0.00443,-0.02731,-0.00664*
%
%ADD10ROUNDEDRECTD10*%
G04:AMPARAMS|DCode=11|XSize=17.72mil|YSize=55.12mil|CornerRadius=4.43mil|HoleSize=0mil|Usage=FLASHONLY|Rotation=0.000|XOffset=0mil|YOffset=0mil|HoleType=Round|Shape=RoundedRectangle|*
%AMROUNDEDRECTD11*
21,1,0.01772,0.04626,0,0,0.0*
21,1,0.00886,0.05512,0,0,0.0*
1,1,0.00886,0.00443,-0.02313*
1,1,0.00886,-0.00443,-0.02313*
1,1,0.00886,-0.00443,0.02313*
1,1,0.00886,0.00443,0.02313*
%
%ADD11ROUNDEDRECTD11*%
G04:AMPARAMS|DCode=12|XSize=55.12mil|YSize=157.48mil|CornerRadius=8.27mil|HoleSize=0mil|Usage=FLASHONLY|Rotation=0.000|XOffset=0mil|YOffset=0mil|HoleType=Round|Shape=RoundedRectangle|*
%AMROUNDEDRECTD12*
21,1,0.05512,0.14094,0,0,0.0*
21,1,0.03858,0.15748,0,0,0.0*
1,1,0.01654,0.01929,-0.07047*
1,1,0.01654,-0.01929,-0.07047*
1,1,0.01654,-0.01929,0.07047*
1,1,0.01654,0.01929,0.07047*
%
%ADD12ROUNDEDRECTD12*%
G04:AMPARAMS|DCode=13|XSize=409.45mil|YSize=320.87mil|CornerRadius=32.09mil|HoleSize=0mil|Usage=FLASHONLY|Rotation=0.000|XOffset=0mil|YOffset=0mil|HoleType=Round|Shape=RoundedRectangle|*
%AMROUNDEDRECTD13*
21,1,0.40945,0.25669,0,0,0.0*
21,1,0.34528,0.32087,0,0,0.0*
1,1,0.06417,0.17264,-0.12835*
1,1,0.06417,-0.17264,-0.12835*
1,1,0.06417,-0.17264,0.12835*
1,1,0.06417,0.17264,0.12835*
%
%ADD13ROUNDEDRECTD13*%
G04:AMPARAMS|DCode=14|XSize=112.2mil|YSize=39.37mil|CornerRadius=4.92mil|HoleSize=0mil|Usage=FLASHONLY|Rotation=270.000|XOffset=0mil|YOffset=0mil|HoleType=Round|Shape=RoundedRectangle|*
%AMROUNDEDRECTD14*
21,1,0.11220,0.02953,0,0,270.0*
21,1,0.10236,0.03937,0,0,270.0*
1,1,0.00984,-0.01476,-0.05118*
1,1,0.00984,-0.01476,0.05118*
1,1,0.00984,0.01476,0.05118*
1,1,0.00984,0.01476,-0.05118*
%
%ADD14ROUNDEDRECTD14*%
G04:AMPARAMS|DCode=15|XSize=250mil|YSize=218.5mil|CornerRadius=27.31mil|HoleSize=0mil|Usage=FLASHONLY|Rotation=270.000|XOffset=0mil|YOffset=0mil|HoleType=Round|Shape=RoundedRectangle|*
%AMROUNDEDRECTD15*
21,1,0.25000,0.16388,0,0,270.0*
21,1,0.19537,0.21850,0,0,270.0*
1,1,0.05463,-0.08194,-0.09769*
1,1,0.05463,-0.08194,0.09769*
1,1,0.05463,0.08194,0.09769*
1,1,0.05463,0.08194,-0.09769*
%
%ADD15ROUNDEDRECTD15*%
G04:AMPARAMS|DCode=16|XSize=23.62mil|YSize=59.05mil|CornerRadius=2.95mil|HoleSize=0mil|Usage=FLASHONLY|Rotation=0.000|XOffset=0mil|YOffset=0mil|HoleType=Round|Shape=RoundedRectangle|*
%AMROUNDEDRECTD16*
21,1,0.02362,0.05315,0,0,0.0*
21,1,0.01772,0.05905,0,0,0.0*
1,1,0.00591,0.00886,-0.02657*
1,1,0.00591,-0.00886,-0.02657*
1,1,0.00591,-0.00886,0.02657*
1,1,0.00591,0.00886,0.02657*
%
%ADD16ROUNDEDRECTD16*%
G04:AMPARAMS|DCode=17|XSize=125.98mil|YSize=72.83mil|CornerRadius=9.1mil|HoleSize=0mil|Usage=FLASHONLY|Rotation=0.000|XOffset=0mil|YOffset=0mil|HoleType=Round|Shape=RoundedRectangle|*
%AMROUNDEDRECTD17*
21,1,0.12598,0.05463,0,0,0.0*
21,1,0.10778,0.07283,0,0,0.0*
1,1,0.01821,0.05389,-0.02731*
1,1,0.01821,-0.05389,-0.02731*
1,1,0.01821,-0.05389,0.02731*
1,1,0.01821,0.05389,0.02731*
%
%ADD17ROUNDEDRECTD17*%
G04:AMPARAMS|DCode=18|XSize=37.4mil|YSize=72.83mil|CornerRadius=4.67mil|HoleSize=0mil|Usage=FLASHONLY|Rotation=0.000|XOffset=0mil|YOffset=0mil|HoleType=Round|Shape=RoundedRectangle|*
%AMROUNDEDRECTD18*
21,1,0.03740,0.06348,0,0,0.0*
21,1,0.02805,0.07283,0,0,0.0*
1,1,0.00935,0.01403,-0.03174*
1,1,0.00935,-0.01403,-0.03174*
1,1,0.00935,-0.01403,0.03174*
1,1,0.00935,0.01403,0.03174*
%
%ADD18ROUNDEDRECTD18*%
G04:AMPARAMS|DCode=19|XSize=23.62mil|YSize=64.96mil|CornerRadius=2.36mil|HoleSize=0mil|Usage=FLASHONLY|Rotation=180.000|XOffset=0mil|YOffset=0mil|HoleType=Round|Shape=RoundedRectangle|*
%AMROUNDEDRECTD19*
21,1,0.02362,0.06024,0,0,180.0*
21,1,0.01890,0.06496,0,0,180.0*
1,1,0.00472,-0.00945,0.03012*
1,1,0.00472,0.00945,0.03012*
1,1,0.00472,0.00945,-0.03012*
1,1,0.00472,-0.00945,-0.03012*
%
%ADD19ROUNDEDRECTD19*%
G04:AMPARAMS|DCode=20|XSize=23.62mil|YSize=61.02mil|CornerRadius=2.95mil|HoleSize=0mil|Usage=FLASHONLY|Rotation=180.000|XOffset=0mil|YOffset=0mil|HoleType=Round|Shape=RoundedRectangle|*
%AMROUNDEDRECTD20*
21,1,0.02362,0.05512,0,0,180.0*
21,1,0.01772,0.06102,0,0,180.0*
1,1,0.00591,-0.00886,0.02756*
1,1,0.00591,0.00886,0.02756*
1,1,0.00591,0.00886,-0.02756*
1,1,0.00591,-0.00886,-0.02756*
%
%ADD20ROUNDEDRECTD20*%
G04:AMPARAMS|DCode=21|XSize=53.15mil|YSize=43.31mil|CornerRadius=5.41mil|HoleSize=0mil|Usage=FLASHONLY|Rotation=270.000|XOffset=0mil|YOffset=0mil|HoleType=Round|Shape=RoundedRectangle|*
%AMROUNDEDRECTD21*
21,1,0.05315,0.03248,0,0,270.0*
21,1,0.04232,0.04331,0,0,270.0*
1,1,0.01083,-0.01624,-0.02116*
1,1,0.01083,-0.01624,0.02116*
1,1,0.01083,0.01624,0.02116*
1,1,0.01083,0.01624,-0.02116*
%
%ADD21ROUNDEDRECTD21*%
G04:AMPARAMS|DCode=22|XSize=61.02mil|YSize=92.52mil|CornerRadius=6.1mil|HoleSize=0mil|Usage=FLASHONLY|Rotation=90.000|XOffset=0mil|YOffset=0mil|HoleType=Round|Shape=RoundedRectangle|*
%AMROUNDEDRECTD22*
21,1,0.06102,0.08031,0,0,90.0*
21,1,0.04882,0.09252,0,0,90.0*
1,1,0.01221,0.04016,0.02441*
1,1,0.01221,0.04016,-0.02441*
1,1,0.01221,-0.04016,-0.02441*
1,1,0.01221,-0.04016,0.02441*
%
%ADD22ROUNDEDRECTD22*%
G04:AMPARAMS|DCode=23|XSize=70.87mil|YSize=45.28mil|CornerRadius=5.66mil|HoleSize=0mil|Usage=FLASHONLY|Rotation=90.000|XOffset=0mil|YOffset=0mil|HoleType=Round|Shape=RoundedRectangle|*
%AMROUNDEDRECTD23*
21,1,0.07087,0.03396,0,0,90.0*
21,1,0.05955,0.04528,0,0,90.0*
1,1,0.01132,0.01698,0.02977*
1,1,0.01132,0.01698,-0.02977*
1,1,0.01132,-0.01698,-0.02977*
1,1,0.01132,-0.01698,0.02977*
%
%ADD23ROUNDEDRECTD23*%
G04:AMPARAMS|DCode=24|XSize=59.05mil|YSize=49.21mil|CornerRadius=6.15mil|HoleSize=0mil|Usage=FLASHONLY|Rotation=0.000|XOffset=0mil|YOffset=0mil|HoleType=Round|Shape=RoundedRectangle|*
%AMROUNDEDRECTD24*
21,1,0.05905,0.03691,0,0,0.0*
21,1,0.04675,0.04921,0,0,0.0*
1,1,0.01230,0.02338,-0.01845*
1,1,0.01230,-0.02338,-0.01845*
1,1,0.01230,-0.02338,0.01845*
1,1,0.01230,0.02338,0.01845*
%
%ADD24ROUNDEDRECTD24*%
G04:AMPARAMS|DCode=25|XSize=23.62mil|YSize=59.05mil|CornerRadius=2.95mil|HoleSize=0mil|Usage=FLASHONLY|Rotation=270.000|XOffset=0mil|YOffset=0mil|HoleType=Round|Shape=RoundedRectangle|*
%AMROUNDEDRECTD25*
21,1,0.02362,0.05315,0,0,270.0*
21,1,0.01772,0.05905,0,0,270.0*
1,1,0.00591,-0.02657,-0.00886*
1,1,0.00591,-0.02657,0.00886*
1,1,0.00591,0.02657,0.00886*
1,1,0.00591,0.02657,-0.00886*
%
%ADD25ROUNDEDRECTD25*%
G04:AMPARAMS|DCode=26|XSize=53.15mil|YSize=43.31mil|CornerRadius=5.41mil|HoleSize=0mil|Usage=FLASHONLY|Rotation=180.000|XOffset=0mil|YOffset=0mil|HoleType=Round|Shape=RoundedRectangle|*
%AMROUNDEDRECTD26*
21,1,0.05315,0.03248,0,0,180.0*
21,1,0.04232,0.04331,0,0,180.0*
1,1,0.01083,-0.02116,0.01624*
1,1,0.01083,0.02116,0.01624*
1,1,0.01083,0.02116,-0.01624*
1,1,0.01083,-0.02116,-0.01624*
%
%ADD26ROUNDEDRECTD26*%
G04:AMPARAMS|DCode=27|XSize=59.05mil|YSize=49.21mil|CornerRadius=6.15mil|HoleSize=0mil|Usage=FLASHONLY|Rotation=90.000|XOffset=0mil|YOffset=0mil|HoleType=Round|Shape=RoundedRectangle|*
%AMROUNDEDRECTD27*
21,1,0.05905,0.03691,0,0,90.0*
21,1,0.04675,0.04921,0,0,90.0*
1,1,0.01230,0.01845,0.02338*
1,1,0.01230,0.01845,-0.02338*
1,1,0.01230,-0.01845,-0.02338*
1,1,0.01230,-0.01845,0.02338*
%
%ADD27ROUNDEDRECTD27*%
%ADD28C,0.05000*%
%ADD29C,0.03500*%
%ADD30C,0.01000*%
%ADD31C,0.01500*%
%ADD32C,0.01200*%
%ADD33C,0.02500*%
%ADD34C,0.02000*%
%ADD35C,0.03000*%
%ADD36C,0.04000*%
%ADD37C,0.06500*%
%ADD38C,0.04500*%
%ADD39C,0.01300*%
%ADD40R,0.08000X0.08000*%
%ADD41R,0.07933X0.12992*%
%ADD42C,0.06693*%
G04:AMPARAMS|DCode=43|XSize=66.93mil|YSize=66.93mil|CornerRadius=8.37mil|HoleSize=0mil|Usage=FLASHONLY|Rotation=180.000|XOffset=0mil|YOffset=0mil|HoleType=Round|Shape=RoundedRectangle|*
%AMROUNDEDRECTD43*
21,1,0.06693,0.05020,0,0,180.0*
21,1,0.05020,0.06693,0,0,180.0*
1,1,0.01673,-0.02510,0.02510*
1,1,0.01673,0.02510,0.02510*
1,1,0.01673,0.02510,-0.02510*
1,1,0.01673,-0.02510,-0.02510*
%
%ADD43ROUNDEDRECTD43*%
%ADD44C,0.06500*%
G04:AMPARAMS|DCode=45|XSize=65mil|YSize=65mil|CornerRadius=16.25mil|HoleSize=0mil|Usage=FLASHONLY|Rotation=90.000|XOffset=0mil|YOffset=0mil|HoleType=Round|Shape=RoundedRectangle|*
%AMROUNDEDRECTD45*
21,1,0.06500,0.03250,0,0,90.0*
21,1,0.03250,0.06500,0,0,90.0*
1,1,0.03250,0.01625,0.01625*
1,1,0.03250,0.01625,-0.01625*
1,1,0.03250,-0.01625,-0.01625*
1,1,0.03250,-0.01625,0.01625*
%
%ADD45ROUNDEDRECTD45*%
G04:AMPARAMS|DCode=46|XSize=67mil|YSize=85mil|CornerRadius=8.38mil|HoleSize=0mil|Usage=FLASHONLY|Rotation=0.000|XOffset=0mil|YOffset=0mil|HoleType=Round|Shape=RoundedRectangle|*
%AMROUNDEDRECTD46*
21,1,0.06700,0.06825,0,0,0.0*
21,1,0.05025,0.08500,0,0,0.0*
1,1,0.01675,0.02513,-0.03413*
1,1,0.01675,-0.02513,-0.03413*
1,1,0.01675,-0.02513,0.03413*
1,1,0.01675,0.02513,0.03413*
%
%ADD46ROUNDEDRECTD46*%
%ADD47O,0.06700X0.08500*%
%ADD48C,0.06000*%
G04:AMPARAMS|DCode=49|XSize=62.99mil|YSize=62.99mil|CornerRadius=15.75mil|HoleSize=0mil|Usage=FLASHONLY|Rotation=0.000|XOffset=0mil|YOffset=0mil|HoleType=Round|Shape=RoundedRectangle|*
%AMROUNDEDRECTD49*
21,1,0.06299,0.03150,0,0,0.0*
21,1,0.03150,0.06299,0,0,0.0*
1,1,0.03150,0.01575,-0.01575*
1,1,0.03150,-0.01575,-0.01575*
1,1,0.03150,-0.01575,0.01575*
1,1,0.03150,0.01575,0.01575*
%
%ADD49ROUNDEDRECTD49*%
%ADD50C,0.06299*%
%ADD51C,0.11811*%
G04:AMPARAMS|DCode=52|XSize=155.9mil|YSize=155.9mil|CornerRadius=38.98mil|HoleSize=0mil|Usage=FLASHONLY|Rotation=270.000|XOffset=0mil|YOffset=0mil|HoleType=Round|Shape=RoundedRectangle|*
%AMROUNDEDRECTD52*
21,1,0.15590,0.07795,0,0,270.0*
21,1,0.07795,0.15590,0,0,270.0*
1,1,0.07795,-0.03898,-0.03898*
1,1,0.07795,-0.03898,0.03898*
1,1,0.07795,0.03898,0.03898*
1,1,0.07795,0.03898,-0.03898*
%
%ADD52ROUNDEDRECTD52*%
G04:AMPARAMS|DCode=53|XSize=65mil|YSize=65mil|CornerRadius=8.13mil|HoleSize=0mil|Usage=FLASHONLY|Rotation=0.000|XOffset=0mil|YOffset=0mil|HoleType=Round|Shape=RoundedRectangle|*
%AMROUNDEDRECTD53*
21,1,0.06500,0.04875,0,0,0.0*
21,1,0.04875,0.06500,0,0,0.0*
1,1,0.01625,0.02438,-0.02438*
1,1,0.01625,-0.02438,-0.02438*
1,1,0.01625,-0.02438,0.02438*
1,1,0.01625,0.02438,0.02438*
%
%ADD53ROUNDEDRECTD53*%
%ADD54C,0.09000*%
G04:AMPARAMS|DCode=55|XSize=62.99mil|YSize=62.99mil|CornerRadius=15.75mil|HoleSize=0mil|Usage=FLASHONLY|Rotation=90.000|XOffset=0mil|YOffset=0mil|HoleType=Round|Shape=RoundedRectangle|*
%AMROUNDEDRECTD55*
21,1,0.06299,0.03150,0,0,90.0*
21,1,0.03150,0.06299,0,0,90.0*
1,1,0.03150,0.01575,0.01575*
1,1,0.03150,0.01575,-0.01575*
1,1,0.03150,-0.01575,-0.01575*
1,1,0.03150,-0.01575,0.01575*
%
%ADD55ROUNDEDRECTD55*%
%ADD56O,0.08500X0.06700*%
G04:AMPARAMS|DCode=57|XSize=67mil|YSize=85mil|CornerRadius=8.38mil|HoleSize=0mil|Usage=FLASHONLY|Rotation=270.000|XOffset=0mil|YOffset=0mil|HoleType=Round|Shape=RoundedRectangle|*
%AMROUNDEDRECTD57*
21,1,0.06700,0.06825,0,0,270.0*
21,1,0.05025,0.08500,0,0,270.0*
1,1,0.01675,-0.03413,-0.02513*
1,1,0.01675,-0.03413,0.02513*
1,1,0.01675,0.03413,0.02513*
1,1,0.01675,0.03413,-0.02513*
%
%ADD57ROUNDEDRECTD57*%
%ADD58C,0.05000*%
%ADD59C,0.04000*%
G36*
X382500Y228500D02*
Y227500D01*
X374500D01*
X379000Y232000D01*
X382500Y228500D01*
D02*
G37*
G36*
X95000Y207500D02*
X95000Y205500D01*
X91000Y205500D01*
X89000Y207500D01*
Y210000D01*
X97500D01*
X95000Y207500D01*
D02*
G37*
G36*
X388504Y283496D02*
X388504Y264504D01*
X386500Y262500D01*
X380784Y262500D01*
Y263500D01*
X380648Y264183D01*
X380262Y264762D01*
X376329Y268694D01*
X376606Y269109D01*
X376643Y269296D01*
X377357D01*
X377394Y269109D01*
X377680Y268680D01*
X378109Y268394D01*
X378614Y268293D01*
X378900D01*
Y272370D01*
Y276447D01*
X378614D01*
X378109Y276346D01*
X377680Y276060D01*
X377394Y275631D01*
X377357Y275444D01*
X376643D01*
X376606Y275631D01*
X376320Y276060D01*
X375891Y276346D01*
X375386Y276447D01*
X373614D01*
X373109Y276346D01*
X372680Y276060D01*
X372394Y275631D01*
X372357Y275444D01*
X371643D01*
X371606Y275631D01*
X371320Y276060D01*
X370891Y276346D01*
X370386Y276447D01*
X368614D01*
X368109Y276346D01*
X367680Y276060D01*
X367394Y275631D01*
X367357Y275444D01*
X366643D01*
X366606Y275631D01*
X366320Y276060D01*
X365891Y276346D01*
X365386Y276447D01*
X363614D01*
X363109Y276346D01*
X362680Y276060D01*
X362394Y275631D01*
X362294Y275126D01*
Y269614D01*
X362394Y269109D01*
X362680Y268680D01*
X362716Y268657D01*
Y267997D01*
X361956Y267897D01*
X360983Y267494D01*
X360147Y266853D01*
X359506Y266017D01*
X359103Y265044D01*
X358965Y264000D01*
X359103Y262956D01*
X359506Y261983D01*
X360147Y261147D01*
X360983Y260506D01*
X361956Y260103D01*
X363000Y259965D01*
X364044Y260103D01*
X365017Y260506D01*
X365853Y261147D01*
X366494Y261983D01*
X366621Y262290D01*
X367379D01*
X367506Y261983D01*
X368147Y261147D01*
X368983Y260506D01*
X369956Y260103D01*
X371000Y259965D01*
X372044Y260103D01*
X373017Y260506D01*
X373853Y261147D01*
X374494Y261983D01*
X374897Y262956D01*
X375029Y263958D01*
X375156Y264049D01*
X375705Y264272D01*
X377216Y262761D01*
Y233000D01*
X357000D01*
X351000Y239000D01*
X351000Y281489D01*
X351656Y282065D01*
X351700Y282071D01*
X353400D01*
Y285563D01*
X354000D01*
Y286163D01*
X357984D01*
Y287000D01*
X385000Y287000D01*
X388504Y283496D01*
D02*
G37*
G36*
X102843Y255500D02*
X103106Y255180D01*
Y255116D01*
X107083D01*
Y253916D01*
X103106D01*
Y253852D01*
X103201Y253375D01*
X103294Y253236D01*
X103201Y253098D01*
X103106Y252621D01*
Y252557D01*
X107083D01*
Y251357D01*
X103106D01*
Y251292D01*
X103201Y250816D01*
X103294Y250677D01*
X103201Y250539D01*
X103106Y250062D01*
Y249998D01*
X107083D01*
Y248798D01*
X103106D01*
Y248733D01*
X103201Y248257D01*
X103294Y248118D01*
X103201Y247980D01*
X103106Y247503D01*
Y247439D01*
X107083D01*
Y246239D01*
X103106D01*
Y246174D01*
X103201Y245698D01*
X103294Y245559D01*
X103201Y245421D01*
X103106Y244944D01*
Y244880D01*
X107083D01*
Y243680D01*
X103106D01*
Y243615D01*
X103201Y243139D01*
X103294Y243000D01*
X103201Y242862D01*
X103106Y242385D01*
Y242320D01*
X107083D01*
Y241121D01*
X103106D01*
Y241056D01*
X102806Y240691D01*
X97809D01*
X96500Y242000D01*
X96500Y254000D01*
X98000Y255500D01*
X102843D01*
D02*
G37*
G36*
X250000Y153500D02*
Y143256D01*
X249122Y142378D01*
X245439D01*
X245344Y142493D01*
Y142558D01*
X241368D01*
Y143757D01*
X245344D01*
Y143822D01*
X245250Y144299D01*
X245157Y144437D01*
X245250Y144576D01*
X245344Y145052D01*
Y145117D01*
X241368D01*
Y146317D01*
X245344D01*
Y146381D01*
X245250Y146858D01*
X245157Y146996D01*
X245250Y147135D01*
X245344Y147611D01*
Y147676D01*
X241368D01*
Y148876D01*
X245344D01*
Y148940D01*
X245250Y149417D01*
X245157Y149555D01*
X245250Y149694D01*
X245344Y150170D01*
Y150235D01*
X241368D01*
Y151435D01*
X245344D01*
Y151499D01*
X245250Y151976D01*
X245157Y152114D01*
X245250Y152253D01*
X245344Y152729D01*
Y152794D01*
X241368D01*
Y153994D01*
X245344D01*
Y154058D01*
X245607Y154378D01*
X249122D01*
X250000Y153500D01*
D02*
G37*
G36*
X68600Y82071D02*
X70338D01*
X70968Y82196D01*
X71423Y82500D01*
X72000D01*
X81000Y73500D01*
X102000Y73500D01*
Y45500D01*
X100500Y44000D01*
X79000Y44000D01*
X75500Y47500D01*
X67000Y47500D01*
X65000Y45500D01*
X65000Y41500D01*
X63500Y40000D01*
X25000Y40000D01*
X22500Y42500D01*
X22500Y46000D01*
X21000Y47500D01*
X20973Y47533D01*
X20984Y47592D01*
Y48837D01*
X17000D01*
Y49437D01*
X16400D01*
Y52929D01*
X15500D01*
Y79500D01*
X18500Y82500D01*
X64577Y82500D01*
X65032Y82196D01*
X65662Y82071D01*
X67400D01*
Y85563D01*
X68600D01*
Y82071D01*
D02*
G37*
G36*
X268500Y78000D02*
Y77443D01*
X268000Y77033D01*
X267945Y77044D01*
X267600D01*
Y72772D01*
X267000D01*
Y72172D01*
X264795D01*
Y70000D01*
X256000D01*
X254000Y72000D01*
Y73812D01*
X254337D01*
Y77500D01*
X254937D01*
Y78100D01*
X258133D01*
Y79616D01*
X258448Y80000D01*
X266500D01*
X268500Y78000D01*
D02*
G37*
G36*
X237410Y131119D02*
X237391Y131027D01*
Y130962D01*
X241368D01*
Y130362D01*
X241968D01*
Y128453D01*
X244099D01*
X244122Y128434D01*
Y121378D01*
X242622Y119878D01*
X230257Y119878D01*
X229873Y120378D01*
X229929Y120662D01*
Y122400D01*
X226437D01*
Y123000D01*
X225837D01*
Y126984D01*
X225500D01*
Y129000D01*
X228000Y131500D01*
X236976Y131500D01*
X237410Y131119D01*
D02*
G37*
G36*
X93000Y112000D02*
X97000Y108000D01*
Y106354D01*
X96646Y106000D01*
X85500Y106000D01*
X82500Y103000D01*
Y78853D01*
X82146Y78500D01*
X79000Y78500D01*
X78000Y79500D01*
Y83500D01*
Y86500D01*
X75500Y89000D01*
X72000Y92500D01*
X71984D01*
Y92837D01*
X68000D01*
Y93437D01*
X67400D01*
Y96929D01*
X65662D01*
X65032Y96804D01*
X64941Y96743D01*
X64500Y96979D01*
Y99500D01*
X85000Y120000D01*
X93000D01*
Y112000D01*
D02*
G37*
G36*
X191000Y388000D02*
X191000Y380368D01*
X190584Y380090D01*
X190000Y380332D01*
Y375000D01*
X188500D01*
Y373500D01*
X183168D01*
X183203Y373416D01*
X182925Y373000D01*
X179075D01*
X178797Y373416D01*
X178858Y373564D01*
X179048Y375000D01*
X178858Y376436D01*
X178304Y377774D01*
X177423Y378923D01*
X176274Y379804D01*
X174936Y380358D01*
X173500Y380547D01*
X172064Y380358D01*
X170726Y379804D01*
X169577Y378923D01*
X168696Y377774D01*
X168142Y376436D01*
X167953Y375000D01*
X168142Y373564D01*
X168235Y373340D01*
X167895Y373000D01*
X155075D01*
X154797Y373416D01*
X154832Y373500D01*
X144168D01*
X144203Y373416D01*
X143925Y373000D01*
X140075D01*
X139797Y373416D01*
X139858Y373564D01*
X140048Y375000D01*
X139858Y376436D01*
X139304Y377774D01*
X138423Y378923D01*
X137274Y379804D01*
X135936Y380358D01*
X134500Y380547D01*
X133064Y380358D01*
X131726Y379804D01*
X130577Y378923D01*
X129696Y377774D01*
X129142Y376436D01*
X128953Y375000D01*
X129142Y373564D01*
X129203Y373416D01*
X128925Y373000D01*
X116075Y373000D01*
X115797Y373416D01*
X115832Y373500D01*
X105168D01*
X105203Y373416D01*
X104925Y373000D01*
X101105D01*
X100765Y373340D01*
X100858Y373564D01*
X101048Y375000D01*
X100858Y376436D01*
X100304Y377774D01*
X99423Y378923D01*
X98274Y379804D01*
X96936Y380358D01*
X95500Y380547D01*
X94064Y380358D01*
X92726Y379804D01*
X91577Y378923D01*
X90696Y377774D01*
X90142Y376436D01*
X89952Y375000D01*
X90142Y373564D01*
X90203Y373416D01*
X89925Y373000D01*
X77075D01*
X76797Y373416D01*
X76832Y373500D01*
X66168D01*
X66203Y373416D01*
X65925Y373000D01*
X63493D01*
X61983Y374510D01*
X62047Y375000D01*
X61858Y376436D01*
X61304Y377774D01*
X60423Y378923D01*
X59274Y379804D01*
X57936Y380358D01*
X56500Y380547D01*
X55064Y380358D01*
X53726Y379804D01*
X52577Y378923D01*
X51696Y377774D01*
X51142Y376436D01*
X50953Y375000D01*
X51142Y373564D01*
X51696Y372226D01*
X52360Y371360D01*
X46000Y365000D01*
X46000Y310500D01*
X41405Y305906D01*
X3937D01*
Y314961D01*
X26961Y314961D01*
X28939Y316939D01*
X28986Y316908D01*
X29614Y316783D01*
X31880D01*
Y320866D01*
Y324949D01*
X29614D01*
X29500Y325043D01*
X29500Y371302D01*
X30297Y373226D01*
X30857Y375560D01*
X30882Y375883D01*
X43000Y388000D01*
X191000Y388000D01*
D02*
G37*
G36*
X308500Y335500D02*
X310200Y333800D01*
Y331877D01*
X310029Y331752D01*
Y327728D01*
X308829D01*
Y331481D01*
X308423Y331401D01*
X308150Y331218D01*
X307876Y331401D01*
X307470Y331481D01*
Y327728D01*
X306270D01*
Y331481D01*
X305864Y331401D01*
X305591Y331218D01*
X305317Y331401D01*
X304911Y331481D01*
Y327728D01*
X303711D01*
Y331481D01*
X303305Y331401D01*
X303031Y331218D01*
X302758Y331401D01*
X302352Y331481D01*
Y327728D01*
X301152D01*
Y331481D01*
X300746Y331401D01*
X300472Y331218D01*
X300199Y331401D01*
X299793Y331481D01*
Y327728D01*
X298593D01*
Y331731D01*
X298400Y331868D01*
Y333900D01*
X300000Y335500D01*
X308500Y335500D01*
D02*
G37*
%LPC*%
G36*
X357984Y284963D02*
X354600D01*
Y282071D01*
X356338D01*
X356968Y282196D01*
X357502Y282553D01*
X357859Y283087D01*
X357984Y283717D01*
Y284963D01*
D02*
G37*
G36*
X380386Y276447D02*
X380100D01*
Y272970D01*
X381707D01*
Y275126D01*
X381606Y275631D01*
X381320Y276060D01*
X380891Y276346D01*
X380386Y276447D01*
D02*
G37*
G36*
X381707Y271770D02*
X380100D01*
Y268293D01*
X380386D01*
X380891Y268394D01*
X381320Y268680D01*
X381606Y269109D01*
X381707Y269614D01*
Y271770D01*
D02*
G37*
G36*
X19338Y52929D02*
X17600D01*
Y50037D01*
X20984D01*
Y51283D01*
X20859Y51913D01*
X20502Y52447D01*
X19968Y52804D01*
X19338Y52929D01*
D02*
G37*
G36*
X266400Y77044D02*
X266055D01*
X265573Y76948D01*
X265164Y76675D01*
X264891Y76266D01*
X264795Y75783D01*
Y73372D01*
X266400D01*
Y77044D01*
D02*
G37*
G36*
X258133Y76900D02*
X255537D01*
Y73812D01*
X256561D01*
X257162Y73932D01*
X257672Y74273D01*
X258013Y74783D01*
X258133Y75384D01*
Y76900D01*
D02*
G37*
G36*
X228282Y126984D02*
X227037D01*
Y123600D01*
X229929D01*
Y125338D01*
X229804Y125968D01*
X229447Y126502D01*
X228913Y126859D01*
X228282Y126984D01*
D02*
G37*
G36*
X240768Y129762D02*
X237391D01*
Y129698D01*
X237486Y129221D01*
X237756Y128817D01*
X238160Y128547D01*
X238637Y128453D01*
X240768D01*
Y129762D01*
D02*
G37*
G36*
X70338Y96929D02*
X68600D01*
Y94037D01*
X71984D01*
Y95283D01*
X71859Y95913D01*
X71502Y96447D01*
X70968Y96804D01*
X70338Y96929D01*
D02*
G37*
G36*
X148000Y380332D02*
X146726Y379804D01*
X145577Y378923D01*
X144696Y377774D01*
X144168Y376500D01*
X148000D01*
Y380332D01*
D02*
G37*
G36*
X151000D02*
Y376500D01*
X154832D01*
X154304Y377774D01*
X153423Y378923D01*
X152274Y379804D01*
X151000Y380332D01*
D02*
G37*
G36*
X187000D02*
X185726Y379804D01*
X184577Y378923D01*
X183696Y377774D01*
X183168Y376500D01*
X187000D01*
Y380332D01*
D02*
G37*
G36*
X37646Y324949D02*
X35380D01*
Y322616D01*
X39287D01*
Y323307D01*
X39162Y323935D01*
X38807Y324468D01*
X38274Y324824D01*
X37646Y324949D01*
D02*
G37*
G36*
X39287Y319116D02*
X35380D01*
Y316783D01*
X37646D01*
X38274Y316908D01*
X38807Y317264D01*
X39162Y317797D01*
X39287Y318425D01*
Y319116D01*
D02*
G37*
G36*
X109000Y380332D02*
X107726Y379804D01*
X106577Y378923D01*
X105696Y377774D01*
X105168Y376500D01*
X109000D01*
Y380332D01*
D02*
G37*
G36*
X112000D02*
Y376500D01*
X115832D01*
X115304Y377774D01*
X114423Y378923D01*
X113274Y379804D01*
X112000Y380332D01*
D02*
G37*
G36*
X70000D02*
X68726Y379804D01*
X67577Y378923D01*
X66696Y377774D01*
X66168Y376500D01*
X70000D01*
Y380332D01*
D02*
G37*
G36*
X73000D02*
Y376500D01*
X76832D01*
X76304Y377774D01*
X75423Y378923D01*
X74274Y379804D01*
X73000Y380332D01*
D02*
G37*
%LPD*%
D10*
X108417Y141484D02*
D03*
Y144043D02*
D03*
Y146602D02*
D03*
Y149161D02*
D03*
Y151720D02*
D03*
Y154280D02*
D03*
Y156839D02*
D03*
Y159398D02*
D03*
Y161957D02*
D03*
Y164516D02*
D03*
X85583Y141484D02*
D03*
Y144043D02*
D03*
Y146602D02*
D03*
Y149161D02*
D03*
Y151720D02*
D03*
Y154280D02*
D03*
Y156839D02*
D03*
Y159398D02*
D03*
Y161957D02*
D03*
Y164516D02*
D03*
X107083Y254516D02*
D03*
Y251957D02*
D03*
Y249398D02*
D03*
Y246839D02*
D03*
Y244280D02*
D03*
Y241721D02*
D03*
Y239161D02*
D03*
Y236602D02*
D03*
Y234043D02*
D03*
Y231484D02*
D03*
X129917Y254516D02*
D03*
Y251957D02*
D03*
Y249398D02*
D03*
Y246839D02*
D03*
Y244280D02*
D03*
Y241721D02*
D03*
Y239161D02*
D03*
Y236602D02*
D03*
Y234043D02*
D03*
Y231484D02*
D03*
X241368Y130362D02*
D03*
Y132921D02*
D03*
Y135480D02*
D03*
Y138039D02*
D03*
Y140598D02*
D03*
Y143157D02*
D03*
Y145717D02*
D03*
Y148276D02*
D03*
Y150835D02*
D03*
Y153394D02*
D03*
X218533Y130362D02*
D03*
Y132921D02*
D03*
Y135480D02*
D03*
Y138039D02*
D03*
Y140598D02*
D03*
Y143157D02*
D03*
Y145717D02*
D03*
Y148276D02*
D03*
Y150835D02*
D03*
Y153394D02*
D03*
X174417Y208484D02*
D03*
Y211043D02*
D03*
Y213602D02*
D03*
Y216161D02*
D03*
Y218721D02*
D03*
Y221280D02*
D03*
Y223839D02*
D03*
Y226398D02*
D03*
Y228957D02*
D03*
Y231516D02*
D03*
X151583Y208484D02*
D03*
Y211043D02*
D03*
Y213602D02*
D03*
Y216161D02*
D03*
Y218721D02*
D03*
Y221280D02*
D03*
Y223839D02*
D03*
Y226398D02*
D03*
Y228957D02*
D03*
Y231516D02*
D03*
X108417Y180484D02*
D03*
Y183043D02*
D03*
Y185602D02*
D03*
Y188161D02*
D03*
Y190720D02*
D03*
Y193280D02*
D03*
Y195839D02*
D03*
Y198398D02*
D03*
Y200957D02*
D03*
Y203516D02*
D03*
X85583Y180484D02*
D03*
Y183043D02*
D03*
Y185602D02*
D03*
Y188161D02*
D03*
Y190720D02*
D03*
Y193280D02*
D03*
Y195839D02*
D03*
Y198398D02*
D03*
Y200957D02*
D03*
Y203516D02*
D03*
D11*
X276162Y304500D02*
D03*
X278720D02*
D03*
X281280D02*
D03*
X283839D02*
D03*
X286398D02*
D03*
X288957D02*
D03*
X291516D02*
D03*
X294075D02*
D03*
X296634D02*
D03*
X299193D02*
D03*
X301752D02*
D03*
X304311D02*
D03*
X306870D02*
D03*
X309429D02*
D03*
X276162Y327728D02*
D03*
X278720D02*
D03*
X281280D02*
D03*
X283839D02*
D03*
X286398D02*
D03*
X288957D02*
D03*
X291516D02*
D03*
X294075D02*
D03*
X296634D02*
D03*
X299193D02*
D03*
X301752D02*
D03*
X304311D02*
D03*
X306870D02*
D03*
X309429D02*
D03*
D12*
X35000Y25091D02*
D03*
X55000D02*
D03*
D13*
X45000Y66035D02*
D03*
D14*
X80484Y83339D02*
D03*
X98516D02*
D03*
D15*
X89500Y57551D02*
D03*
D16*
X298240Y82760D02*
D03*
X294500Y90240D02*
D03*
X301980D02*
D03*
X89000Y249260D02*
D03*
X85260Y256740D02*
D03*
X92740D02*
D03*
D17*
X92000Y338008D02*
D03*
D18*
X101055Y313992D02*
D03*
X92000Y313992D02*
D03*
X82945Y313992D02*
D03*
D19*
X157000Y340272D02*
D03*
X152000D02*
D03*
X147000D02*
D03*
X142000D02*
D03*
X137000D02*
D03*
X132000D02*
D03*
X127000D02*
D03*
X122000D02*
D03*
X157000Y311728D02*
D03*
X152000Y311728D02*
D03*
X147000Y311728D02*
D03*
X142000D02*
D03*
X137000D02*
D03*
X132000D02*
D03*
X127000Y311728D02*
D03*
X122000Y311728D02*
D03*
X302000Y72772D02*
D03*
X297000D02*
D03*
X292000D02*
D03*
X287000D02*
D03*
X282000D02*
D03*
X277000D02*
D03*
X272000D02*
D03*
X267000D02*
D03*
X302000Y44228D02*
D03*
X297000D02*
D03*
X292000D02*
D03*
X287000D02*
D03*
X282000D02*
D03*
X277000D02*
D03*
X272000D02*
D03*
X267000D02*
D03*
D20*
X379500Y293630D02*
D03*
X374500D02*
D03*
X369500D02*
D03*
X364500D02*
D03*
X379500Y272370D02*
D03*
X374500D02*
D03*
X369500D02*
D03*
X364500D02*
D03*
D21*
X76437Y241760D02*
D03*
X68563D02*
D03*
X52063Y257000D02*
D03*
X59937D02*
D03*
X133465Y266535D02*
D03*
X141339D02*
D03*
X93063Y269000D02*
D03*
X100937D02*
D03*
X316437Y90000D02*
D03*
X308563D02*
D03*
X83063Y305500D02*
D03*
X90937D02*
D03*
X254937Y77500D02*
D03*
X247063D02*
D03*
D22*
X71465Y337500D02*
D03*
X54535D02*
D03*
X33630Y320866D02*
D03*
X16701D02*
D03*
D23*
X118905Y83500D02*
D03*
X107095D02*
D03*
D24*
X68000Y93437D02*
D03*
Y85563D02*
D03*
X17000Y41563D02*
D03*
Y49437D02*
D03*
X43000Y102063D02*
D03*
Y109937D02*
D03*
X354000Y293437D02*
D03*
Y285563D02*
D03*
X144000Y254437D02*
D03*
Y246563D02*
D03*
X71500Y41437D02*
D03*
Y33563D02*
D03*
D25*
X52260Y245500D02*
D03*
X59740Y249240D02*
D03*
Y241760D02*
D03*
D26*
X353000Y147437D02*
D03*
Y139563D02*
D03*
Y124063D02*
D03*
Y131937D02*
D03*
X241311Y347563D02*
D03*
Y355437D02*
D03*
X256311Y347563D02*
D03*
Y355437D02*
D03*
X331500Y103937D02*
D03*
Y96063D02*
D03*
X43500Y257063D02*
D03*
Y264937D02*
D03*
X297000Y272563D02*
D03*
Y280437D02*
D03*
X287000Y272563D02*
D03*
Y280437D02*
D03*
X346311Y355437D02*
D03*
Y347563D02*
D03*
X331311Y355437D02*
D03*
Y347563D02*
D03*
X316311Y355437D02*
D03*
Y347563D02*
D03*
X271311Y355437D02*
D03*
Y347563D02*
D03*
X301311Y355437D02*
D03*
Y347563D02*
D03*
X286311Y355437D02*
D03*
Y347563D02*
D03*
X71000Y297563D02*
D03*
Y305437D02*
D03*
D27*
X218563Y123000D02*
D03*
X226437D02*
D03*
X152063Y201000D02*
D03*
X159937D02*
D03*
X84937Y173000D02*
D03*
X77063D02*
D03*
X84937Y133500D02*
D03*
X77063D02*
D03*
X326437Y304500D02*
D03*
X318563D02*
D03*
D28*
X7500Y40500D02*
X13000Y35000D01*
X7500Y40500D02*
Y41500D01*
X56500Y375000D02*
X71465Y360035D01*
Y337500D02*
Y360035D01*
X107000Y41500D02*
Y89000D01*
X71465Y337500D02*
X91705D01*
X92000Y28000D02*
X93500D01*
X92000D02*
X92000D01*
X93500D02*
X107000Y41500D01*
X331500Y111500D02*
X334500D01*
X302000D02*
X331500D01*
X92000Y8000D02*
X267000D01*
X93000Y18000D02*
X111500D01*
X327000Y290000D02*
X337000D01*
X267000Y8000D02*
X292000D01*
Y18000D01*
X35000Y15000D02*
Y24591D01*
Y15000D02*
X42000Y8000D01*
X92000D01*
X13000Y35000D02*
X17000D01*
X22000D01*
X30000Y27000D01*
X33000D01*
X334500Y111500D02*
X358500D01*
X364500Y117500D02*
Y124000D01*
X358500Y111500D02*
X364500Y117500D01*
X114000Y111500D02*
X302000D01*
X107000Y100000D02*
Y104500D01*
X114000Y111500D01*
X107000Y89000D02*
Y100000D01*
X292000Y8000D02*
X324000D01*
X327500Y11500D01*
Y18000D01*
Y51079D01*
D29*
X44000Y317500D02*
X51079D01*
X188500Y365000D02*
Y375000D01*
X163772Y340272D02*
X188500Y365000D01*
X158000Y340272D02*
X163772D01*
D30*
X299213Y303150D02*
Y311024D01*
X174122Y228957D02*
X182000D01*
X297000Y280437D02*
Y290000D01*
X364500Y172000D02*
X378984D01*
X364484Y223984D02*
X379000D01*
X346311Y344000D02*
Y347563D01*
X108122Y200957D02*
X122043D01*
X238500Y201500D02*
X244000Y207000D01*
X202000Y201500D02*
X238500D01*
X196661Y196161D02*
X202000Y201500D01*
X233500Y203500D02*
X237000Y207000D01*
X198000Y203500D02*
X233500D01*
X193000Y198500D02*
X198000Y203500D01*
X199500Y211500D02*
X251500D01*
X193500Y214000D02*
X251000D01*
X174122Y216161D02*
X250162D01*
X174122Y218721D02*
X249721D01*
X174122Y221280D02*
X249280D01*
X174417Y223839D02*
X242339D01*
X108122Y193280D02*
X121721D01*
X235000Y199500D02*
X242500D01*
X231500Y196000D02*
X235000Y199500D01*
X210000Y196000D02*
X231500D01*
X206161Y192161D02*
X210000Y196000D01*
X108122Y198398D02*
X120602D01*
X236500Y197500D02*
X243500D01*
X231000Y192000D02*
X236500Y197500D01*
X212000Y192000D02*
X231000D01*
X301311Y344311D02*
Y347563D01*
X300000Y343000D02*
X301311Y344311D01*
X294811Y343000D02*
X300000D01*
X316311Y344311D02*
Y347563D01*
X313000Y341000D02*
X316311Y344311D01*
X296000Y341000D02*
X313000D01*
X291516Y336516D02*
X296000Y341000D01*
X326311Y339000D02*
X331311Y344000D01*
X297811Y339000D02*
X326311D01*
X294075Y335264D02*
X297811Y339000D01*
X339311Y337000D02*
X346311Y344000D01*
X299311Y337000D02*
X339311D01*
X296634Y334323D02*
X299311Y337000D01*
X256311Y344000D02*
X260811Y339500D01*
X241311Y344000D02*
X247811Y337500D01*
X273811Y341500D02*
X278811D01*
X62661Y188162D02*
X85878D01*
X108122Y159398D02*
X121898D01*
X48016Y203516D02*
X85878D01*
X170158Y143157D02*
X218829D01*
X60220Y190720D02*
X85878D01*
X145602Y213602D02*
X151878D01*
X108122Y161957D02*
X121457D01*
X60898Y159398D02*
X85878D01*
X72102Y146602D02*
X85878D01*
X108122Y144043D02*
X153543D01*
X108122Y185602D02*
X182398D01*
X92398Y236602D02*
X107378D01*
X241073Y132921D02*
X307079D01*
X58457Y161957D02*
X85878D01*
X57780Y193280D02*
X85878D01*
X174122Y211043D02*
X190543D01*
X108122Y146602D02*
X148602D01*
X144161Y216161D02*
X151878D01*
X70161Y149162D02*
X85878D01*
X138398Y226398D02*
X151878D01*
X68221Y151720D02*
X85878D01*
X241073Y140598D02*
X259598D01*
X56016Y164516D02*
X85878D01*
X142720Y218721D02*
X151878D01*
X241073Y138039D02*
X261039D01*
X108122Y149162D02*
X140162D01*
X108122Y190720D02*
X120280D01*
X65102Y185602D02*
X85878D01*
X52898Y198398D02*
X85878D01*
X108263Y182903D02*
X180097D01*
X108122Y154280D02*
X129280D01*
X108122Y151720D02*
X139220D01*
X65780Y154280D02*
X85878D01*
X141280Y221280D02*
X151878D01*
X50457Y200957D02*
X85878D01*
X294000Y255000D02*
X300000D01*
X281000Y242000D02*
X294000Y255000D01*
X270000Y242000D02*
X281000D01*
X278720Y327728D02*
Y334729D01*
X247811Y337500D02*
X275950D01*
X278720Y334729D01*
X260811Y339500D02*
X277311D01*
X281280Y335532D01*
X278811Y341500D02*
X283839Y336473D01*
X271311Y344000D02*
X273811Y341500D01*
X48500Y86500D02*
X84000Y122000D01*
X47672Y88500D02*
X83172Y124000D01*
X46843Y90500D02*
X82343Y126000D01*
X84000Y122000D02*
X161000D01*
X83172Y124000D02*
X157000D01*
X82343Y126000D02*
X153000D01*
X241368Y135480D02*
X261520D01*
X262000Y135000D01*
X332000D01*
X337000Y140000D01*
X307079Y132921D02*
X310000Y130000D01*
X90500Y221000D02*
X93000Y223500D01*
X40000Y221000D02*
X90500D01*
X101000Y221000D02*
X137000D01*
X95000Y227000D02*
X101000Y221000D01*
X102000Y223000D02*
X135000D01*
X93000Y232000D02*
X102000Y223000D01*
X36000Y230000D02*
X42000Y224000D01*
X36000Y225000D02*
X40000Y221000D01*
X36500Y240000D02*
X44500Y232000D01*
X31000Y240000D02*
X36500D01*
X36500Y235000D02*
X43000Y228500D01*
X36000Y245000D02*
X46957Y234043D01*
X37000Y219000D02*
X139000D01*
X46500Y217000D02*
X141000D01*
X39500Y210000D02*
X46500Y217000D01*
X49500Y215000D02*
X143000D01*
X39500Y205000D02*
X49500Y215000D01*
X52500Y213000D02*
X145000D01*
X39500Y200000D02*
X52500Y213000D01*
X188000Y180000D02*
X203000D01*
X195339Y190161D02*
X201461Y184039D01*
X120839Y190161D02*
X195339D01*
X201461Y184039D02*
X239039D01*
X203000Y188000D02*
X240000D01*
X186500Y176500D02*
X206000D01*
X180097Y182903D02*
X186500Y176500D01*
X206000D02*
X211500Y182000D01*
X105000Y174000D02*
X227000D01*
X101500Y177500D02*
X105000Y174000D01*
X227000D02*
X229000Y176000D01*
X101500Y177500D02*
Y193500D01*
X103839Y195839D01*
X122839Y192161D02*
X206161D01*
X202161Y194161D02*
X206000Y198000D01*
X124839Y194161D02*
X202161D01*
X186839Y188161D02*
X190000Y185000D01*
X310000Y130000D02*
X327000D01*
X296000Y129000D02*
X304500D01*
X308500Y125000D01*
X332000D01*
X262000Y139000D02*
X296000D01*
X261039Y138039D02*
X262000Y139000D01*
X286398Y327728D02*
Y347500D01*
X296634Y327728D02*
Y334323D01*
X291516Y327728D02*
Y336516D01*
X283839Y327728D02*
Y336473D01*
X294075Y327728D02*
Y335264D01*
X288957Y327728D02*
Y337146D01*
X294811Y343000D01*
X296634Y304500D02*
X299193D01*
X268500Y174000D02*
X282000Y160500D01*
X268500Y183500D02*
X274500Y189500D01*
X268500Y174000D02*
Y183500D01*
X272000Y177000D02*
X279000Y170000D01*
X272000Y182000D02*
X279000Y175000D01*
X240000Y158000D02*
X277000Y195000D01*
X239000Y160000D02*
X276000Y197000D01*
X274500Y189500D02*
X277000D01*
X238000Y162000D02*
X275000Y199000D01*
X237000Y164000D02*
X274000Y201000D01*
X236000Y166000D02*
X273000Y203000D01*
X153000Y161000D02*
X156000Y164000D01*
X148602Y146602D02*
X153000Y151000D01*
X175500Y198500D02*
X193000D01*
X190543Y211043D02*
X193500Y214000D01*
X190000Y202000D02*
X199500Y211500D01*
X169500Y212500D02*
X170602Y213602D01*
X169500Y204500D02*
Y212500D01*
Y204500D02*
X175500Y198500D01*
X170602Y213602D02*
X174417D01*
X337000Y210000D02*
X342500Y204500D01*
Y197500D02*
Y204500D01*
X340000Y195000D02*
X342500Y197500D01*
X271311Y344000D02*
Y347563D01*
X281280Y327728D02*
Y335532D01*
X139102Y236602D02*
X141500Y239000D01*
X245000D01*
X141043Y234043D02*
X144000Y237000D01*
X142984Y231484D02*
X146500Y235000D01*
X129917Y231484D02*
X142984D01*
X129917Y234043D02*
X141043D01*
X129917Y236602D02*
X139102D01*
X292000Y215000D02*
X322000Y245000D01*
X249280Y221280D02*
X270000Y242000D01*
X249721Y218721D02*
X258000Y227000D01*
X352500Y212000D02*
X364484Y223984D01*
X352500Y184000D02*
Y212000D01*
X378984Y172000D02*
X379000Y172016D01*
X352500Y184000D02*
X364500Y172000D01*
X343000Y238000D02*
Y282000D01*
X340000Y285000D02*
X343000Y282000D01*
X142000Y151000D02*
X148000D01*
X140162Y149162D02*
X142000Y151000D01*
X142500Y155000D02*
X159000D01*
X139220Y151720D02*
X142500Y155000D01*
X218500Y122878D02*
X218533Y122911D01*
X210122Y130878D02*
X212165Y132921D01*
X206500Y134000D02*
X207980Y135480D01*
X203000Y134000D02*
X206500D01*
X182398Y185602D02*
X188000Y180000D01*
X122043Y200957D02*
X126839Y196161D01*
X120602Y198398D02*
X124839Y194161D01*
X121721Y193280D02*
X122839Y192161D01*
X120280Y190720D02*
X120839Y190161D01*
X103839Y195839D02*
X108417D01*
X271000Y240000D02*
X285000D01*
X258000Y227000D02*
X271000Y240000D01*
X320000Y271000D02*
X324000Y275000D01*
X320000Y269000D02*
Y271000D01*
X324000Y275000D02*
X332000D01*
X324000Y267000D02*
X327000Y270000D01*
X321000Y267000D02*
X324000D01*
X285000Y240000D02*
X295000Y250000D01*
X298000Y211000D02*
X322000Y235000D01*
X295000Y213000D02*
X322000Y240000D01*
X26000Y225000D02*
X36000D01*
X31000Y230000D02*
X36000D01*
X21000Y220000D02*
X26000Y225000D01*
Y245000D02*
X36000D01*
X26000Y235000D02*
X36500D01*
X258000Y227000D02*
Y227000D01*
X239039Y184039D02*
X268000Y213000D01*
X233000Y172000D02*
X270000Y209000D01*
X234000Y170000D02*
X271000Y207000D01*
X235000Y168000D02*
X272000Y205000D01*
X179441Y231516D02*
X182000Y228957D01*
X174417Y231516D02*
X179441D01*
X179441Y226398D02*
X182000Y228957D01*
X174417Y226398D02*
X179441D01*
X207980Y135480D02*
X218000D01*
X183039Y138039D02*
X218000D01*
X178000Y133000D02*
X183039Y138039D01*
X179598Y140598D02*
X218000D01*
X161000Y122000D02*
X179598Y140598D01*
X84937Y140839D02*
X85583Y141484D01*
X84937Y179839D02*
X85583Y180484D01*
X31000Y220000D02*
X36000D01*
X37000Y219000D01*
X145000Y213000D02*
X145602Y213602D01*
X143000Y215000D02*
X144161Y216161D01*
X141000Y217000D02*
X142720Y218721D01*
X139000Y219000D02*
X141280Y221280D01*
X137000Y221000D02*
X139839Y223839D01*
X135000Y223000D02*
X138398Y226398D01*
X340000Y235000D02*
X343000Y238000D01*
X332000Y285000D02*
X340000D01*
X327000Y280000D02*
X332000Y285000D01*
Y225000D02*
X337000Y230000D01*
X332000Y215000D02*
X337000Y220000D01*
X332000Y245000D02*
X337000Y240000D01*
X332000Y265000D02*
X337000Y270000D01*
X332000Y275000D02*
X337000Y280000D01*
X332000Y205000D02*
X337000Y200000D01*
X92547Y180484D02*
X93063Y181000D01*
X21000Y230000D02*
X26000Y235000D01*
X21000Y240000D02*
X26000Y245000D01*
X21000Y200000D02*
X26000Y205000D01*
X31000Y200000D02*
X39500D01*
X21000Y190000D02*
X26000Y195000D01*
X21000Y180000D02*
X26000Y185000D01*
X21000Y170000D02*
X26000Y175000D01*
X21000Y160000D02*
X26000Y165000D01*
X31000Y160000D02*
X39500D01*
X65102Y185602D01*
X21000Y150000D02*
X26000Y155000D01*
X21000Y130000D02*
X26000Y135000D01*
X21000Y120000D02*
X26000Y125000D01*
X21000Y110000D02*
X26000Y115000D01*
X212165Y132921D02*
X218000D01*
X31000Y210000D02*
X39500D01*
X26000Y205000D02*
X39500D01*
X12000Y98172D02*
Y248000D01*
X10000Y97172D02*
Y249000D01*
X12000Y248000D02*
X19000Y255000D01*
X26000D01*
X31000Y260000D01*
X121898Y159398D02*
X132500Y170000D01*
X121457Y161957D02*
X131500Y172000D01*
X125839Y156839D02*
X132000Y163000D01*
X129280Y154280D02*
X143000Y168000D01*
X148000Y161000D02*
X153000Y166000D01*
X108122Y183043D02*
X108263Y182903D01*
X31000Y190000D02*
X39500D01*
X50457Y200957D01*
X26000Y165000D02*
X39500D01*
X62661Y188162D01*
X26000Y185000D02*
X39500D01*
X52898Y198398D01*
X31000Y170000D02*
X39500D01*
X60220Y190720D01*
X26000Y175000D02*
X39500D01*
X57780Y193280D01*
X31000Y180000D02*
X39500D01*
X55339Y195839D01*
X26000Y195000D02*
X39500D01*
X48016Y203516D01*
X41500Y145000D02*
X58457Y161957D01*
X31000Y140000D02*
X41500D01*
X60898Y159398D01*
X26000Y135000D02*
X41500D01*
X63339Y156839D01*
X26000Y125000D02*
X41500D01*
X68221Y151720D01*
X31000Y130000D02*
X41500D01*
X65780Y154280D01*
X324000Y197000D02*
X327000Y200000D01*
X316000Y199000D02*
X322000Y205000D01*
X332000D01*
X313000Y201000D02*
X322000Y210000D01*
X327000D01*
X310000Y203000D02*
X322000Y215000D01*
X332000D01*
X307000Y205000D02*
X322000Y220000D01*
X327000D01*
X304000Y207000D02*
X322000Y225000D01*
X332000D01*
X301000Y209000D02*
X322000Y230000D01*
X327000D01*
X322000Y235000D02*
X340000D01*
X322000Y240000D02*
X327000D01*
X332000Y255000D02*
X337000Y260000D01*
X138000Y157000D02*
X157000D01*
X162000Y162000D01*
X159000Y155000D02*
X164000Y160000D01*
X153543Y144043D02*
X167500Y158000D01*
X332000Y125000D02*
X337000Y130000D01*
X131500Y172000D02*
X233000D01*
X132500Y170000D02*
X234000D01*
X143000Y168000D02*
X235000D01*
X153000Y166000D02*
X236000D01*
X156000Y164000D02*
X237000D01*
X162000Y162000D02*
X238000D01*
X164000Y160000D02*
X239000D01*
X167500Y158000D02*
X240000D01*
X322000Y265000D02*
X332000D01*
X8000Y96000D02*
Y257000D01*
X14000Y99000D02*
Y243000D01*
X21000Y250000D01*
X10000Y249000D02*
X21000Y260000D01*
X8000Y257000D02*
X21000Y270000D01*
X36000Y115000D02*
X70161Y149162D01*
X21000Y140000D02*
X26000Y145000D01*
X41500D01*
X108417Y188161D02*
X186839D01*
X126839Y196161D02*
X196661D01*
X240000Y188000D02*
X267000Y215000D01*
X242500Y193500D02*
X268000Y219000D01*
X332000Y175000D02*
X337000Y170000D01*
X279000D02*
X327000D01*
X332000Y185000D02*
X337000Y180000D01*
X239000Y193500D02*
X242500D01*
X242339Y223839D02*
X244000Y225500D01*
X246500D01*
X251000Y214000D02*
X267000Y230000D01*
X251500Y211500D02*
X268000Y228000D01*
X242500Y199500D02*
X269000Y226000D01*
X243500Y197500D02*
X270000Y224000D01*
X268000Y219000D02*
X271000D01*
X267000Y215000D02*
X292000D01*
X268000Y213000D02*
X295000D01*
X269000Y211000D02*
X298000D01*
X270000Y209000D02*
X301000D01*
X271000Y207000D02*
X304000D01*
X272000Y205000D02*
X307000D01*
X273000Y203000D02*
X310000D01*
X274000Y201000D02*
X313000D01*
X275000Y199000D02*
X316000D01*
X276000Y197000D02*
X324000D01*
X277000Y195000D02*
X340000D01*
X282500Y190000D02*
X327000D01*
X286500Y185000D02*
X291500Y180000D01*
X327000D01*
X340000Y165000D02*
X342500Y167500D01*
Y184500D01*
X337000Y190000D02*
X342500Y184500D01*
X256311Y344000D02*
Y347563D01*
X241311Y344000D02*
Y347563D01*
X331311Y344000D02*
Y347563D01*
X250162Y216161D02*
X267500Y233500D01*
X93000Y241000D02*
X94839Y239161D01*
X211500Y182000D02*
X240000D01*
X269000Y211000D01*
X259598Y140598D02*
X270500Y151500D01*
X282000D02*
X315500D01*
X327000Y140000D01*
X318500Y160000D02*
X327000D01*
X246500Y158500D02*
X268500D01*
X272000Y155000D01*
X313500D02*
X318500Y160000D01*
X279000Y157000D02*
X308500D01*
X316500Y165000D01*
X340000D01*
X270500Y151500D02*
X277000D01*
X272000Y155000D02*
X313500D01*
X277000Y159000D02*
X279000Y157000D01*
X26000Y115000D02*
X36000D01*
X26000Y155000D02*
X46500D01*
X56016Y164516D01*
X44500Y159000D02*
X53000Y167500D01*
X93063D01*
X279000Y175000D02*
X332000D01*
X291500Y185000D02*
X332000D01*
X322000Y245000D02*
X332000D01*
X279000Y228000D02*
X320000Y269000D01*
X280000Y226000D02*
X321000Y267000D01*
X281000Y224000D02*
X322000Y265000D01*
X290000Y227000D02*
X294000D01*
X327000Y260000D01*
X325000Y255000D02*
X332000D01*
X293500Y223500D02*
X325000Y255000D01*
X285500Y223500D02*
X293500D01*
X278000Y230000D02*
X281000Y233000D01*
Y236000D01*
X270000Y224000D02*
X281000D01*
X269000Y226000D02*
X280000D01*
X268000Y228000D02*
X279000D01*
X267000Y230000D02*
X278000D01*
X267500Y233500D02*
X275500D01*
X21000Y100000D02*
X26500Y94500D01*
X14000Y99000D02*
X20500Y92500D01*
X45500D01*
X81000Y128000D01*
X12000Y98172D02*
X19672Y90500D01*
X46843D01*
X10000Y97172D02*
X18672Y88500D01*
X47672D01*
X8000Y96000D02*
X17500Y86500D01*
X48500D01*
X43000Y228500D02*
X88000D01*
X44500Y232000D02*
X93000D01*
X46957Y234043D02*
X107083D01*
X42000Y224000D02*
X88500D01*
X91500Y227000D01*
X95000D01*
X88000Y238000D02*
X91000D01*
X92398Y236602D01*
X157000Y124000D02*
X172000Y139000D01*
X153000Y126000D02*
X170158Y143157D01*
X81000Y128000D02*
X149500D01*
X168500Y147000D01*
X203000D01*
X26500Y94500D02*
X44500D01*
X61000Y135500D02*
X72102Y146602D01*
X44500Y94500D02*
X61000Y111000D01*
Y135500D01*
X139839Y223839D02*
X151583D01*
X151878D01*
X94839Y239161D02*
X107083D01*
X107378D01*
X55339Y195839D02*
X85583D01*
X85878D01*
X63339Y156839D02*
X85583D01*
X85878D01*
X108122D02*
X108417D01*
X125839D01*
X174122Y223839D02*
X174417D01*
X245000Y239000D02*
X251000Y233000D01*
X144000Y237000D02*
X241500D01*
X245500Y233000D01*
X146500Y235000D02*
X234000D01*
X241000Y228000D01*
X1150000Y319997D02*
X1156665D01*
X1153332D01*
Y310000D01*
X1161663D02*
X1164995D01*
X1166661Y311666D01*
Y314998D01*
X1164995Y316665D01*
X1161663D01*
X1159997Y314998D01*
Y311666D01*
X1161663Y310000D01*
X1169994Y306668D02*
Y316665D01*
X1174992D01*
X1176658Y314998D01*
Y311666D01*
X1174992Y310000D01*
X1169994D01*
X1189987Y319997D02*
Y310000D01*
X1196652D01*
X1201650Y316665D02*
X1204982D01*
X1206648Y314998D01*
Y310000D01*
X1201650D01*
X1199984Y311666D01*
X1201650Y313332D01*
X1206648D01*
X1209981Y316665D02*
Y311666D01*
X1211647Y310000D01*
X1216645D01*
Y308334D01*
X1214979Y306668D01*
X1213313D01*
X1216645Y310000D02*
Y316665D01*
X1224976Y310000D02*
X1221644D01*
X1219977Y311666D01*
Y314998D01*
X1221644Y316665D01*
X1224976D01*
X1226642Y314998D01*
Y313332D01*
X1219977D01*
X1229974Y316665D02*
Y310000D01*
Y313332D01*
X1231640Y314998D01*
X1233307Y316665D01*
X1234973D01*
D31*
X276047Y327614D02*
Y329453D01*
X142000Y311728D02*
X147000D01*
X132000D02*
X137000D01*
X122000D02*
X127000D01*
X122000Y305500D02*
Y311728D01*
X117000Y300500D02*
X122000Y305500D01*
X91500Y300500D02*
X117000D01*
X81000Y290000D02*
X91500Y300500D01*
X126500Y298000D02*
X132000Y303500D01*
X99000Y298000D02*
X126500D01*
X91000Y290000D02*
X99000Y298000D01*
X135000Y295500D02*
X142000Y302500D01*
X106500Y295500D02*
X135000D01*
X101000Y290000D02*
X106500Y295500D01*
X132000Y303500D02*
Y311728D01*
X142000Y302500D02*
Y311728D01*
X302000Y90240D02*
Y111500D01*
X353000Y147437D02*
X364063D01*
X374500Y146000D02*
Y147000D01*
X368063Y139563D02*
X374500Y146000D01*
X353000Y139563D02*
X368063D01*
X337000Y160000D02*
X346500Y150500D01*
Y141000D02*
Y150500D01*
Y141000D02*
X347937Y139563D01*
X353000D01*
X379000Y223984D02*
Y263500D01*
X71000Y290000D02*
Y298063D01*
X348626Y131874D02*
X367626D01*
X277000Y73272D02*
X277500Y72772D01*
X274500Y331000D02*
X276047Y329453D01*
X274500Y331000D02*
Y334000D01*
X79500Y256740D02*
X85260D01*
X282000Y72772D02*
X287000D01*
X277500D02*
X282000D01*
X297000D02*
X302000D01*
X292000D02*
X297000D01*
X298240Y82760D02*
X302240D01*
X297000Y99000D02*
Y100000D01*
X294500Y96500D02*
X297000Y99000D01*
X294500Y90240D02*
Y96500D01*
X292000Y72772D02*
Y79500D01*
X287000Y84500D02*
X292000Y79500D01*
X267000Y72772D02*
Y75000D01*
X317000Y100000D02*
X323000D01*
X301980Y90240D02*
X302221Y90000D01*
X308563D01*
X287000Y84500D02*
Y100000D01*
X277000Y73272D02*
Y100000D01*
X137000Y246500D02*
X137063Y246563D01*
X309811Y304500D02*
X317760D01*
X77000Y141000D02*
X77063Y140937D01*
X77000Y173063D02*
X77063Y173000D01*
X326437Y304500D02*
X332500D01*
X363000Y264000D02*
Y265500D01*
X364500Y267000D01*
Y272370D01*
X369500Y267000D02*
Y272370D01*
Y267000D02*
X371000Y265500D01*
Y264000D02*
Y265500D01*
X342000Y90000D02*
X375500Y56500D01*
X374500Y268000D02*
Y272370D01*
Y268000D02*
X379000Y263500D01*
X374500Y124000D02*
Y125000D01*
X367626Y131874D02*
X374500Y125000D01*
X353063Y124000D02*
X364500D01*
X343500Y137000D02*
X348626Y131874D01*
X343500Y137000D02*
Y143500D01*
X337000Y150000D02*
X343500Y143500D01*
X316437Y90000D02*
X342000D01*
X365500Y92500D02*
X375500D01*
X323000Y100000D02*
X326937Y96063D01*
X361937D02*
X365500Y92500D01*
X326937Y96063D02*
X331500D01*
X361937D01*
X267000Y72772D02*
X272000D01*
X43563Y257000D02*
X52063D01*
X59937D02*
X65500D01*
X307000Y100000D02*
X316937Y90063D01*
X92740Y256740D02*
Y268677D01*
X218533Y122911D02*
Y130000D01*
D32*
X108122Y180484D02*
X113016D01*
X102484Y231484D02*
X107378D01*
X80043Y183043D02*
X85878D01*
X80043Y144043D02*
X85878D01*
X121000Y273000D02*
Y290000D01*
X117000Y269000D02*
X121000Y273000D01*
X100937Y269000D02*
X117000D01*
X287000Y280437D02*
Y290000D01*
X304311Y297311D02*
Y304500D01*
X297000Y290000D02*
X304311Y297311D01*
X379500Y293630D02*
Y302000D01*
X374500Y293630D02*
Y301500D01*
X304311Y310811D02*
X308500Y315000D01*
X306870Y308870D02*
X310437Y312437D01*
X306870Y304500D02*
Y308870D01*
Y293000D02*
Y304500D01*
X146543Y211043D02*
X151583D01*
X144000Y208500D02*
X146543Y211043D01*
X100500Y229500D02*
X102484Y231484D01*
X113016Y180484D02*
X115500Y178000D01*
X113516Y164516D02*
X115500Y166500D01*
X108417Y164516D02*
X113516D01*
X137000Y246500D02*
Y250500D01*
X135543Y251957D02*
X137000Y250500D01*
X129917Y251957D02*
X135543D01*
X143921Y254516D02*
X144000Y254437D01*
X84937Y133500D02*
Y140839D01*
X77000Y141000D02*
X80043Y144043D01*
X84937Y173000D02*
Y179839D01*
X179016Y208484D02*
X182000Y205500D01*
X174417Y208484D02*
X179016D01*
X101516Y203516D02*
X108122D01*
X77000Y180000D02*
X80043Y183043D01*
X304311Y304500D02*
Y310811D01*
X108417Y141484D02*
X113311D01*
X115795Y139000D01*
X151878Y201815D02*
Y208484D01*
X308500Y315000D02*
X361000D01*
X374500Y301500D01*
X310437Y312437D02*
X356563D01*
X367000Y302000D01*
D33*
X38063Y102063D02*
X44000D01*
X129465Y266535D02*
X133465D01*
X126500Y269500D02*
X129465Y266535D01*
X126500Y269500D02*
Y276500D01*
X115500D02*
Y285500D01*
X111000Y290000D02*
X115500Y285500D01*
X207000Y80000D02*
X227000Y100000D01*
X197500Y80500D02*
X217000Y100000D01*
X187000Y80000D02*
X207000Y100000D01*
X177000Y80000D02*
X197000Y100000D01*
X167000Y80000D02*
X187000Y100000D01*
X157000Y80000D02*
X177000Y100000D01*
X147000Y80000D02*
X167000Y100000D01*
X137000Y80000D02*
X157000Y100000D01*
X207000Y43000D02*
X232000Y18000D01*
X132000Y201000D02*
X151878D01*
X123000Y210000D02*
X132000Y201000D01*
X31000Y100000D02*
X36000D01*
X38063Y102063D01*
X267000Y85626D02*
Y100000D01*
X127000Y18000D02*
X137000Y28000D01*
X142000Y18000D02*
X147000Y23000D01*
X257000Y85626D02*
Y100000D01*
X93000Y118000D02*
X205500D01*
X210378Y122878D01*
X218500D01*
X17000Y35000D02*
Y41563D01*
X86500Y210000D02*
X123000D01*
X137000Y28000D02*
Y65500D01*
X147000Y23000D02*
Y65500D01*
X157000Y18000D02*
Y65500D01*
X167000Y23000D02*
X172000Y18000D01*
X167000Y23000D02*
Y65500D01*
X177000Y28000D02*
X187000Y18000D01*
X177000Y28000D02*
Y65500D01*
X187000Y33000D02*
X202000Y18000D01*
X187000Y33000D02*
Y65500D01*
X197000Y38000D02*
X217000Y18000D01*
X197000Y38000D02*
Y65500D01*
X207000Y43000D02*
Y65500D01*
Y80000D01*
X187000Y65500D02*
Y80000D01*
X177000Y65500D02*
Y80000D01*
X167000Y65500D02*
Y80000D01*
X157000Y65500D02*
Y80000D01*
X147000Y65500D02*
Y80000D01*
X137000Y65500D02*
Y80000D01*
X38000Y280000D02*
X43500Y274500D01*
X31000Y280000D02*
X38000D01*
X43500Y264437D02*
Y264937D01*
Y274500D01*
X141339Y266535D02*
X152874D01*
D34*
X157000Y305000D02*
Y311728D01*
X152000Y305000D02*
Y311728D01*
X346500Y290000D02*
X349937Y293437D01*
X354000D01*
X297000Y272563D02*
X309563D01*
X287000D02*
X297000D01*
X279563D02*
X287000D01*
X261437Y254437D02*
X279563Y272563D01*
X309563D02*
X327000Y290000D01*
X71000Y305437D02*
X82764D01*
X82945Y305618D02*
Y313992D01*
X90937Y305500D02*
X101000D01*
X247000Y59000D02*
Y100000D01*
X354000Y293437D02*
X364307D01*
X331500Y103937D02*
Y111500D01*
X334500D02*
X335000Y111000D01*
X159937Y201000D02*
X166000D01*
X237000Y59000D02*
Y111500D01*
X60748Y290252D02*
X61000Y290000D01*
X302000Y28500D02*
Y44157D01*
X267000Y8000D02*
Y44157D01*
X137063Y246563D02*
X144000D01*
X77063Y133500D02*
Y140937D01*
X84937Y133500D02*
X93063D01*
X84937Y173000D02*
X93063D01*
X77000Y173063D02*
Y180000D01*
X277000Y18000D02*
Y44157D01*
X346311Y365500D02*
X348811Y368000D01*
X346311Y355437D02*
Y365500D01*
X348811Y368000D02*
Y375000D01*
X333811Y368000D02*
Y375000D01*
X331311Y355437D02*
Y365500D01*
X333811Y368000D01*
X318811D02*
Y375000D01*
X316311Y355437D02*
Y365500D01*
X318811Y368000D01*
X303811D02*
Y375000D01*
X301311Y355437D02*
Y365500D01*
X303811Y368000D01*
X288811D02*
Y375000D01*
X286311Y355437D02*
Y365500D01*
X288811Y368000D01*
X273811D02*
Y375000D01*
X271311Y355437D02*
Y365500D01*
X273811Y368000D01*
X258811D02*
Y375000D01*
X256311Y355437D02*
Y365500D01*
X258811Y368000D01*
X243811D02*
Y375000D01*
X241311Y355437D02*
Y365500D01*
X243811Y368000D01*
X318563Y298437D02*
X327000Y290000D01*
X318563Y298437D02*
Y304500D01*
X302000Y28500D02*
X312500Y18000D01*
X157000Y65500D02*
X157000Y65500D01*
X197000D02*
Y80000D01*
X197500Y80500D01*
X85760Y241760D02*
X89000Y245000D01*
X47000Y245500D02*
X52260D01*
X43500Y249000D02*
Y256563D01*
Y249000D02*
X47000Y245500D01*
X59740Y249240D02*
X67000D01*
X59740Y241760D02*
X68563D01*
X76437Y241760D02*
X85760D01*
X292000Y44157D02*
X302000D01*
X277000D02*
X287000D01*
X89000Y245000D02*
Y249260D01*
X144000Y254437D02*
X261437D01*
D35*
X122000Y340272D02*
Y343500D01*
Y338000D02*
Y340272D01*
X127000Y338000D02*
Y340272D01*
Y343500D01*
X124500Y346000D02*
X127000Y343500D01*
X122000D02*
X124500Y346000D01*
X132000Y340272D02*
Y343500D01*
Y338000D02*
Y340272D01*
X137000Y338000D02*
Y340272D01*
Y343500D01*
X134500Y346000D02*
X137000Y343500D01*
X132000D02*
X134500Y346000D01*
X142000Y343500D02*
X144500Y346000D01*
X147000Y343500D01*
Y340272D02*
Y343500D01*
X144500Y346000D02*
X173500Y375000D01*
X147000Y338000D02*
Y340272D01*
X142000Y338000D02*
Y340272D01*
Y343500D01*
X95500Y375000D02*
X124500Y346000D01*
X134500D02*
Y375000D01*
X101000Y305500D02*
Y313937D01*
X101055Y313992D01*
X92000Y313992D02*
Y337795D01*
X68000Y93437D02*
Y99500D01*
Y80000D02*
Y85563D01*
X117000Y94000D02*
Y100000D01*
Y94000D02*
X118905Y92094D01*
Y83500D02*
Y92094D01*
D36*
X346500Y178500D02*
Y290000D01*
X337000D02*
X346500D01*
X364500Y147000D02*
Y160500D01*
X346500Y178500D02*
X364500Y160500D01*
X42000Y337500D02*
X54535D01*
X99016Y83339D02*
X106933D01*
X106839Y88839D02*
X107000Y89000D01*
X71500Y24591D02*
Y33563D01*
Y41437D02*
Y50000D01*
X212000Y54000D02*
X216500Y58500D01*
X112000Y18000D02*
X131500Y37500D01*
Y54000D01*
X97000Y100000D02*
Y108000D01*
X93000Y112000D02*
X97000Y108000D01*
X93000Y112000D02*
Y118000D01*
X216500Y58500D02*
Y65500D01*
X31000Y110000D02*
X54000D01*
D37*
X83500Y28000D02*
X92000D01*
X80091Y24591D02*
X83500Y28000D01*
X57000Y24591D02*
X71500D01*
X80091D01*
D38*
X93063Y133500D02*
Y167500D01*
Y173000D02*
Y181000D01*
Y167500D02*
Y173000D01*
X67000Y209000D02*
X93063D01*
Y181000D02*
Y209000D01*
D39*
X129917Y254516D02*
X143921D01*
D40*
X7500Y43000D02*
D03*
D41*
X16533Y329331D02*
D03*
D42*
X237000Y59000D02*
D03*
X247000D02*
D03*
X152874Y266535D02*
D03*
D43*
X162874D02*
D03*
D44*
X31000Y270000D02*
D03*
X21000D02*
D03*
X31000Y280000D02*
D03*
X21000D02*
D03*
X31000Y290000D02*
D03*
X21000D02*
D03*
Y260000D02*
D03*
X31000D02*
D03*
X21000Y250000D02*
D03*
X31000D02*
D03*
X21000Y240000D02*
D03*
X31000D02*
D03*
X21000Y230000D02*
D03*
X31000D02*
D03*
X21000Y220000D02*
D03*
X31000D02*
D03*
X21000Y210000D02*
D03*
X31000D02*
D03*
X21000Y200000D02*
D03*
X31000D02*
D03*
X21000Y190000D02*
D03*
X31000D02*
D03*
X21000Y180000D02*
D03*
X31000D02*
D03*
X21000Y170000D02*
D03*
X31000D02*
D03*
X21000Y160000D02*
D03*
X31000D02*
D03*
X21000Y150000D02*
D03*
X31000D02*
D03*
Y110000D02*
D03*
X21000D02*
D03*
X31000Y120000D02*
D03*
X21000D02*
D03*
X31000Y130000D02*
D03*
X21000D02*
D03*
X31000Y140000D02*
D03*
X21000D02*
D03*
Y100000D02*
D03*
X217000D02*
D03*
X187000D02*
D03*
X197000D02*
D03*
X207000D02*
D03*
X157000D02*
D03*
X167000D02*
D03*
X177000D02*
D03*
X137000D02*
D03*
X127000D02*
D03*
X117000D02*
D03*
X107000D02*
D03*
X97000D02*
D03*
X227000D02*
D03*
X317000D02*
D03*
X267000D02*
D03*
X257000D02*
D03*
X247000D02*
D03*
X297000D02*
D03*
X287000D02*
D03*
X277000D02*
D03*
X307000D02*
D03*
X337000Y170000D02*
D03*
Y140000D02*
D03*
Y150000D02*
D03*
Y160000D02*
D03*
Y290000D02*
D03*
Y120000D02*
D03*
Y130000D02*
D03*
Y180000D02*
D03*
Y250000D02*
D03*
Y220000D02*
D03*
Y230000D02*
D03*
Y240000D02*
D03*
Y190000D02*
D03*
Y200000D02*
D03*
Y210000D02*
D03*
Y260000D02*
D03*
X327000Y170000D02*
D03*
Y140000D02*
D03*
Y150000D02*
D03*
Y160000D02*
D03*
Y290000D02*
D03*
Y120000D02*
D03*
Y130000D02*
D03*
Y180000D02*
D03*
Y250000D02*
D03*
Y220000D02*
D03*
Y230000D02*
D03*
Y240000D02*
D03*
Y190000D02*
D03*
Y200000D02*
D03*
Y210000D02*
D03*
Y260000D02*
D03*
Y280000D02*
D03*
Y270000D02*
D03*
X337000Y280000D02*
D03*
Y270000D02*
D03*
X111000Y290000D02*
D03*
X81000D02*
D03*
X91000D02*
D03*
X101000D02*
D03*
X51000D02*
D03*
X61000D02*
D03*
X71000D02*
D03*
X121000D02*
D03*
X197000D02*
D03*
X167000D02*
D03*
X177000D02*
D03*
X187000D02*
D03*
X137000D02*
D03*
X147000D02*
D03*
X157000D02*
D03*
X207000D02*
D03*
X287000D02*
D03*
X257000D02*
D03*
X267000D02*
D03*
X277000D02*
D03*
X227000D02*
D03*
X237000D02*
D03*
X247000D02*
D03*
X297000D02*
D03*
D45*
X31000Y100000D02*
D03*
D46*
X364500Y124000D02*
D03*
X127000Y65500D02*
D03*
X364500Y147000D02*
D03*
D47*
X374500Y124000D02*
D03*
X384500D02*
D03*
X217000Y65500D02*
D03*
X207000D02*
D03*
X197000D02*
D03*
X187000D02*
D03*
X177000D02*
D03*
X167000D02*
D03*
X157000D02*
D03*
X147000D02*
D03*
X137000D02*
D03*
X374500Y147000D02*
D03*
X384500D02*
D03*
D48*
X363000Y264000D02*
D03*
X371000D02*
D03*
X267000Y85626D02*
D03*
X257000D02*
D03*
D49*
X51079Y317500D02*
D03*
D50*
X60921D02*
D03*
X327500Y60921D02*
D03*
D51*
X379000Y223984D02*
D03*
Y172016D02*
D03*
D52*
Y198000D02*
D03*
D53*
X87000Y100000D02*
D03*
D54*
X95500Y375000D02*
D03*
X110500D02*
D03*
X127000Y18000D02*
D03*
X112000D02*
D03*
X142000D02*
D03*
X157000D02*
D03*
X172000D02*
D03*
X187000D02*
D03*
X202000D02*
D03*
X217000D02*
D03*
X232000D02*
D03*
X247000D02*
D03*
X327500D02*
D03*
X312500D02*
D03*
X277000D02*
D03*
X292000D02*
D03*
X213811Y375000D02*
D03*
X228811D02*
D03*
X243811D02*
D03*
X258811D02*
D03*
X273811D02*
D03*
X288811D02*
D03*
X303811D02*
D03*
X318811D02*
D03*
X348811D02*
D03*
X333811D02*
D03*
X375500Y92500D02*
D03*
Y77500D02*
D03*
X16500Y351000D02*
D03*
Y336000D02*
D03*
X375500Y56500D02*
D03*
Y41500D02*
D03*
X56500Y375000D02*
D03*
X71500D02*
D03*
X173500D02*
D03*
X188500D02*
D03*
X134500D02*
D03*
X149500D02*
D03*
D55*
X327500Y51079D02*
D03*
D56*
X92000Y8000D02*
D03*
Y18000D02*
D03*
D57*
Y28000D02*
D03*
D58*
X157000Y305000D02*
D03*
X152000Y305000D02*
D03*
X101000Y305500D02*
D03*
X126500Y276500D02*
D03*
X115500D02*
D03*
X68000Y99500D02*
D03*
X261500Y74500D02*
D03*
X131500Y54000D02*
D03*
X212000D02*
D03*
X67000Y209000D02*
D03*
X385000Y272000D02*
D03*
X93063Y133500D02*
D03*
X93000Y118000D02*
D03*
X54000Y110000D02*
D03*
X67000Y249240D02*
D03*
D59*
X354000Y279000D02*
D03*
X306870Y293000D02*
D03*
X379500Y302000D02*
D03*
X367000D02*
D03*
X274500Y334000D02*
D03*
X82000Y67500D02*
D03*
X87000D02*
D03*
X92000D02*
D03*
X97000D02*
D03*
Y47500D02*
D03*
X92000D02*
D03*
X87000D02*
D03*
X82000D02*
D03*
X97000Y52500D02*
D03*
X92000D02*
D03*
X87000D02*
D03*
X82000D02*
D03*
Y57500D02*
D03*
X87000D02*
D03*
X92000D02*
D03*
X97000D02*
D03*
Y62500D02*
D03*
X92000D02*
D03*
X87000D02*
D03*
X82000D02*
D03*
X241500Y126000D02*
D03*
X93000Y223500D02*
D03*
X79500Y256740D02*
D03*
X88000Y238000D02*
D03*
Y228500D02*
D03*
X203000Y147000D02*
D03*
Y180000D02*
D03*
Y188000D02*
D03*
X190000Y185000D02*
D03*
X296000Y139000D02*
D03*
Y129000D02*
D03*
X304311Y333500D02*
D03*
X251000Y233000D02*
D03*
X245500D02*
D03*
X241500Y228000D02*
D03*
X272000Y177000D02*
D03*
Y182000D02*
D03*
X166000Y201000D02*
D03*
X144000Y208500D02*
D03*
X100500Y229500D02*
D03*
X115500Y178000D02*
D03*
Y166500D02*
D03*
X190000Y202000D02*
D03*
X239000Y193500D02*
D03*
X247000Y225500D02*
D03*
X210122Y130878D02*
D03*
X290000Y227000D02*
D03*
X203000Y134000D02*
D03*
X77000Y141000D02*
D03*
X182000Y205500D02*
D03*
X137000Y246500D02*
D03*
X248000Y148276D02*
D03*
X232500Y123000D02*
D03*
X148000Y161000D02*
D03*
X132000Y163000D02*
D03*
X138000Y157000D02*
D03*
X148000Y151000D02*
D03*
X153000Y161000D02*
D03*
Y151000D02*
D03*
X99500Y248000D02*
D03*
X182000Y228957D02*
D03*
X101516Y203516D02*
D03*
X77000Y180000D02*
D03*
X206000Y198000D02*
D03*
X212000Y192000D02*
D03*
X300000Y255000D02*
D03*
X295000Y250000D02*
D03*
X178000Y133000D02*
D03*
X172000Y139000D02*
D03*
X244000Y207000D02*
D03*
X237000D02*
D03*
X271000Y219000D02*
D03*
X282500Y190000D02*
D03*
X286500Y185000D02*
D03*
X5500Y45000D02*
D03*
Y41000D02*
D03*
X9500D02*
D03*
Y45000D02*
D03*
X332500Y304500D02*
D03*
X93000Y241000D02*
D03*
X229000Y176000D02*
D03*
X246500Y158500D02*
D03*
X282000Y160500D02*
D03*
Y151500D02*
D03*
X277000D02*
D03*
Y159000D02*
D03*
X44500D02*
D03*
X291500Y185000D02*
D03*
X277000Y189500D02*
D03*
X285500Y223500D02*
D03*
X281000Y236000D02*
D03*
X275500Y233500D02*
D03*
X299213Y311024D02*
D03*
X28500Y78000D02*
D03*
X33500D02*
D03*
X38500D02*
D03*
X43500D02*
D03*
X48500D02*
D03*
X53500D02*
D03*
X58500D02*
D03*
X63500D02*
D03*
X28500Y73000D02*
D03*
X63500D02*
D03*
X58500D02*
D03*
X53500D02*
D03*
X48500D02*
D03*
X43500D02*
D03*
X38500D02*
D03*
X33500D02*
D03*
Y68000D02*
D03*
X38500D02*
D03*
X43500D02*
D03*
X48500D02*
D03*
X53500D02*
D03*
X58500D02*
D03*
X63500D02*
D03*
X28500D02*
D03*
X33500Y63000D02*
D03*
X38500D02*
D03*
X43500D02*
D03*
X48500D02*
D03*
X53500D02*
D03*
X58500D02*
D03*
X63500D02*
D03*
X28500D02*
D03*
X33500Y58000D02*
D03*
X38500D02*
D03*
X43500D02*
D03*
X48500D02*
D03*
X53500D02*
D03*
X58500D02*
D03*
X63500D02*
D03*
X28500D02*
D03*
X33500Y53000D02*
D03*
X38500D02*
D03*
X43500D02*
D03*
X48500D02*
D03*
X53500D02*
D03*
X58500D02*
D03*
X63500D02*
D03*
X28500D02*
D03*
X302240Y82760D02*
D03*
X115795Y139000D02*
D03*
X65500Y257000D02*
D03*
X10236Y312598D02*
D03*
Y308598D02*
D03*
X6236D02*
D03*
Y312598D02*
D03*
M02*
