G04 Layer_Color=8388736*
%FSLAX25Y25*%
%MOIN*%
G70*
G01*
G75*
%ADD30C,0.01000*%
%ADD76R,0.08000X0.08000*%
G04:AMPARAMS|DCode=77|XSize=67.06mil|YSize=25.72mil|CornerRadius=6.22mil|HoleSize=0mil|Usage=FLASHONLY|Rotation=180.000|XOffset=0mil|YOffset=0mil|HoleType=Round|Shape=RoundedRectangle|*
%AMROUNDEDRECTD77*
21,1,0.06706,0.01329,0,0,180.0*
21,1,0.05463,0.02572,0,0,180.0*
1,1,0.01243,-0.02731,0.00664*
1,1,0.01243,0.02731,0.00664*
1,1,0.01243,0.02731,-0.00664*
1,1,0.01243,-0.02731,-0.00664*
%
%ADD77ROUNDEDRECTD77*%
G04:AMPARAMS|DCode=78|XSize=25.72mil|YSize=63.12mil|CornerRadius=8.43mil|HoleSize=0mil|Usage=FLASHONLY|Rotation=0.000|XOffset=0mil|YOffset=0mil|HoleType=Round|Shape=RoundedRectangle|*
%AMROUNDEDRECTD78*
21,1,0.02572,0.04626,0,0,0.0*
21,1,0.00886,0.06312,0,0,0.0*
1,1,0.01686,0.00443,-0.02313*
1,1,0.01686,-0.00443,-0.02313*
1,1,0.01686,-0.00443,0.02313*
1,1,0.01686,0.00443,0.02313*
%
%ADD78ROUNDEDRECTD78*%
G04:AMPARAMS|DCode=79|XSize=63.12mil|YSize=165.48mil|CornerRadius=12.27mil|HoleSize=0mil|Usage=FLASHONLY|Rotation=0.000|XOffset=0mil|YOffset=0mil|HoleType=Round|Shape=RoundedRectangle|*
%AMROUNDEDRECTD79*
21,1,0.06312,0.14094,0,0,0.0*
21,1,0.03858,0.16548,0,0,0.0*
1,1,0.02454,0.01929,-0.07047*
1,1,0.02454,-0.01929,-0.07047*
1,1,0.02454,-0.01929,0.07047*
1,1,0.02454,0.01929,0.07047*
%
%ADD79ROUNDEDRECTD79*%
G04:AMPARAMS|DCode=80|XSize=417.45mil|YSize=328.87mil|CornerRadius=36.09mil|HoleSize=0mil|Usage=FLASHONLY|Rotation=0.000|XOffset=0mil|YOffset=0mil|HoleType=Round|Shape=RoundedRectangle|*
%AMROUNDEDRECTD80*
21,1,0.41745,0.25669,0,0,0.0*
21,1,0.34528,0.32887,0,0,0.0*
1,1,0.07217,0.17264,-0.12835*
1,1,0.07217,-0.17264,-0.12835*
1,1,0.07217,-0.17264,0.12835*
1,1,0.07217,0.17264,0.12835*
%
%ADD80ROUNDEDRECTD80*%
G04:AMPARAMS|DCode=81|XSize=120.2mil|YSize=47.37mil|CornerRadius=8.92mil|HoleSize=0mil|Usage=FLASHONLY|Rotation=270.000|XOffset=0mil|YOffset=0mil|HoleType=Round|Shape=RoundedRectangle|*
%AMROUNDEDRECTD81*
21,1,0.12020,0.02953,0,0,270.0*
21,1,0.10236,0.04737,0,0,270.0*
1,1,0.01784,-0.01476,-0.05118*
1,1,0.01784,-0.01476,0.05118*
1,1,0.01784,0.01476,0.05118*
1,1,0.01784,0.01476,-0.05118*
%
%ADD81ROUNDEDRECTD81*%
G04:AMPARAMS|DCode=82|XSize=258mil|YSize=226.5mil|CornerRadius=31.31mil|HoleSize=0mil|Usage=FLASHONLY|Rotation=270.000|XOffset=0mil|YOffset=0mil|HoleType=Round|Shape=RoundedRectangle|*
%AMROUNDEDRECTD82*
21,1,0.25800,0.16388,0,0,270.0*
21,1,0.19537,0.22650,0,0,270.0*
1,1,0.06263,-0.08194,-0.09769*
1,1,0.06263,-0.08194,0.09769*
1,1,0.06263,0.08194,0.09769*
1,1,0.06263,0.08194,-0.09769*
%
%ADD82ROUNDEDRECTD82*%
G04:AMPARAMS|DCode=83|XSize=31.62mil|YSize=67.06mil|CornerRadius=6.95mil|HoleSize=0mil|Usage=FLASHONLY|Rotation=0.000|XOffset=0mil|YOffset=0mil|HoleType=Round|Shape=RoundedRectangle|*
%AMROUNDEDRECTD83*
21,1,0.03162,0.05315,0,0,0.0*
21,1,0.01772,0.06706,0,0,0.0*
1,1,0.01391,0.00886,-0.02657*
1,1,0.01391,-0.00886,-0.02657*
1,1,0.01391,-0.00886,0.02657*
1,1,0.01391,0.00886,0.02657*
%
%ADD83ROUNDEDRECTD83*%
G04:AMPARAMS|DCode=84|XSize=133.98mil|YSize=80.83mil|CornerRadius=13.1mil|HoleSize=0mil|Usage=FLASHONLY|Rotation=0.000|XOffset=0mil|YOffset=0mil|HoleType=Round|Shape=RoundedRectangle|*
%AMROUNDEDRECTD84*
21,1,0.13398,0.05463,0,0,0.0*
21,1,0.10778,0.08083,0,0,0.0*
1,1,0.02621,0.05389,-0.02731*
1,1,0.02621,-0.05389,-0.02731*
1,1,0.02621,-0.05389,0.02731*
1,1,0.02621,0.05389,0.02731*
%
%ADD84ROUNDEDRECTD84*%
G04:AMPARAMS|DCode=85|XSize=45.4mil|YSize=80.83mil|CornerRadius=8.68mil|HoleSize=0mil|Usage=FLASHONLY|Rotation=0.000|XOffset=0mil|YOffset=0mil|HoleType=Round|Shape=RoundedRectangle|*
%AMROUNDEDRECTD85*
21,1,0.04540,0.06348,0,0,0.0*
21,1,0.02805,0.08083,0,0,0.0*
1,1,0.01735,0.01403,-0.03174*
1,1,0.01735,-0.01403,-0.03174*
1,1,0.01735,-0.01403,0.03174*
1,1,0.01735,0.01403,0.03174*
%
%ADD85ROUNDEDRECTD85*%
G04:AMPARAMS|DCode=86|XSize=31.62mil|YSize=72.96mil|CornerRadius=6.36mil|HoleSize=0mil|Usage=FLASHONLY|Rotation=180.000|XOffset=0mil|YOffset=0mil|HoleType=Round|Shape=RoundedRectangle|*
%AMROUNDEDRECTD86*
21,1,0.03162,0.06024,0,0,180.0*
21,1,0.01890,0.07296,0,0,180.0*
1,1,0.01272,-0.00945,0.03012*
1,1,0.01272,0.00945,0.03012*
1,1,0.01272,0.00945,-0.03012*
1,1,0.01272,-0.00945,-0.03012*
%
%ADD86ROUNDEDRECTD86*%
G04:AMPARAMS|DCode=87|XSize=31.62mil|YSize=69.02mil|CornerRadius=6.95mil|HoleSize=0mil|Usage=FLASHONLY|Rotation=180.000|XOffset=0mil|YOffset=0mil|HoleType=Round|Shape=RoundedRectangle|*
%AMROUNDEDRECTD87*
21,1,0.03162,0.05512,0,0,180.0*
21,1,0.01772,0.06902,0,0,180.0*
1,1,0.01391,-0.00886,0.02756*
1,1,0.01391,0.00886,0.02756*
1,1,0.01391,0.00886,-0.02756*
1,1,0.01391,-0.00886,-0.02756*
%
%ADD87ROUNDEDRECTD87*%
G04:AMPARAMS|DCode=88|XSize=61.15mil|YSize=51.31mil|CornerRadius=9.41mil|HoleSize=0mil|Usage=FLASHONLY|Rotation=270.000|XOffset=0mil|YOffset=0mil|HoleType=Round|Shape=RoundedRectangle|*
%AMROUNDEDRECTD88*
21,1,0.06115,0.03248,0,0,270.0*
21,1,0.04232,0.05131,0,0,270.0*
1,1,0.01883,-0.01624,-0.02116*
1,1,0.01883,-0.01624,0.02116*
1,1,0.01883,0.01624,0.02116*
1,1,0.01883,0.01624,-0.02116*
%
%ADD88ROUNDEDRECTD88*%
G04:AMPARAMS|DCode=89|XSize=69.02mil|YSize=100.52mil|CornerRadius=10.1mil|HoleSize=0mil|Usage=FLASHONLY|Rotation=90.000|XOffset=0mil|YOffset=0mil|HoleType=Round|Shape=RoundedRectangle|*
%AMROUNDEDRECTD89*
21,1,0.06902,0.08031,0,0,90.0*
21,1,0.04882,0.10052,0,0,90.0*
1,1,0.02020,0.04016,0.02441*
1,1,0.02020,0.04016,-0.02441*
1,1,0.02020,-0.04016,-0.02441*
1,1,0.02020,-0.04016,0.02441*
%
%ADD89ROUNDEDRECTD89*%
G04:AMPARAMS|DCode=90|XSize=78.87mil|YSize=53.28mil|CornerRadius=9.66mil|HoleSize=0mil|Usage=FLASHONLY|Rotation=90.000|XOffset=0mil|YOffset=0mil|HoleType=Round|Shape=RoundedRectangle|*
%AMROUNDEDRECTD90*
21,1,0.07887,0.03396,0,0,90.0*
21,1,0.05955,0.05328,0,0,90.0*
1,1,0.01932,0.01698,0.02977*
1,1,0.01932,0.01698,-0.02977*
1,1,0.01932,-0.01698,-0.02977*
1,1,0.01932,-0.01698,0.02977*
%
%ADD90ROUNDEDRECTD90*%
G04:AMPARAMS|DCode=91|XSize=67.06mil|YSize=57.21mil|CornerRadius=10.15mil|HoleSize=0mil|Usage=FLASHONLY|Rotation=0.000|XOffset=0mil|YOffset=0mil|HoleType=Round|Shape=RoundedRectangle|*
%AMROUNDEDRECTD91*
21,1,0.06706,0.03691,0,0,0.0*
21,1,0.04675,0.05721,0,0,0.0*
1,1,0.02030,0.02338,-0.01845*
1,1,0.02030,-0.02338,-0.01845*
1,1,0.02030,-0.02338,0.01845*
1,1,0.02030,0.02338,0.01845*
%
%ADD91ROUNDEDRECTD91*%
G04:AMPARAMS|DCode=92|XSize=31.62mil|YSize=67.06mil|CornerRadius=6.95mil|HoleSize=0mil|Usage=FLASHONLY|Rotation=270.000|XOffset=0mil|YOffset=0mil|HoleType=Round|Shape=RoundedRectangle|*
%AMROUNDEDRECTD92*
21,1,0.03162,0.05315,0,0,270.0*
21,1,0.01772,0.06706,0,0,270.0*
1,1,0.01391,-0.02657,-0.00886*
1,1,0.01391,-0.02657,0.00886*
1,1,0.01391,0.02657,0.00886*
1,1,0.01391,0.02657,-0.00886*
%
%ADD92ROUNDEDRECTD92*%
G04:AMPARAMS|DCode=93|XSize=61.15mil|YSize=51.31mil|CornerRadius=9.41mil|HoleSize=0mil|Usage=FLASHONLY|Rotation=180.000|XOffset=0mil|YOffset=0mil|HoleType=Round|Shape=RoundedRectangle|*
%AMROUNDEDRECTD93*
21,1,0.06115,0.03248,0,0,180.0*
21,1,0.04232,0.05131,0,0,180.0*
1,1,0.01883,-0.02116,0.01624*
1,1,0.01883,0.02116,0.01624*
1,1,0.01883,0.02116,-0.01624*
1,1,0.01883,-0.02116,-0.01624*
%
%ADD93ROUNDEDRECTD93*%
G04:AMPARAMS|DCode=94|XSize=67.06mil|YSize=57.21mil|CornerRadius=10.15mil|HoleSize=0mil|Usage=FLASHONLY|Rotation=90.000|XOffset=0mil|YOffset=0mil|HoleType=Round|Shape=RoundedRectangle|*
%AMROUNDEDRECTD94*
21,1,0.06706,0.03691,0,0,90.0*
21,1,0.04675,0.05721,0,0,90.0*
1,1,0.02030,0.01845,0.02338*
1,1,0.02030,0.01845,-0.02338*
1,1,0.02030,-0.01845,-0.02338*
1,1,0.02030,-0.01845,0.02338*
%
%ADD94ROUNDEDRECTD94*%
%ADD95C,0.00800*%
%ADD96C,0.07493*%
G04:AMPARAMS|DCode=97|XSize=74.93mil|YSize=74.93mil|CornerRadius=12.37mil|HoleSize=0mil|Usage=FLASHONLY|Rotation=180.000|XOffset=0mil|YOffset=0mil|HoleType=Round|Shape=RoundedRectangle|*
%AMROUNDEDRECTD97*
21,1,0.07493,0.05020,0,0,180.0*
21,1,0.05020,0.07493,0,0,180.0*
1,1,0.02473,-0.02510,0.02510*
1,1,0.02473,0.02510,0.02510*
1,1,0.02473,0.02510,-0.02510*
1,1,0.02473,-0.02510,-0.02510*
%
%ADD97ROUNDEDRECTD97*%
%ADD98C,0.07300*%
G04:AMPARAMS|DCode=99|XSize=73mil|YSize=73mil|CornerRadius=20.25mil|HoleSize=0mil|Usage=FLASHONLY|Rotation=90.000|XOffset=0mil|YOffset=0mil|HoleType=Round|Shape=RoundedRectangle|*
%AMROUNDEDRECTD99*
21,1,0.07300,0.03250,0,0,90.0*
21,1,0.03250,0.07300,0,0,90.0*
1,1,0.04050,0.01625,0.01625*
1,1,0.04050,0.01625,-0.01625*
1,1,0.04050,-0.01625,-0.01625*
1,1,0.04050,-0.01625,0.01625*
%
%ADD99ROUNDEDRECTD99*%
G04:AMPARAMS|DCode=100|XSize=75mil|YSize=93mil|CornerRadius=12.38mil|HoleSize=0mil|Usage=FLASHONLY|Rotation=0.000|XOffset=0mil|YOffset=0mil|HoleType=Round|Shape=RoundedRectangle|*
%AMROUNDEDRECTD100*
21,1,0.07500,0.06825,0,0,0.0*
21,1,0.05025,0.09300,0,0,0.0*
1,1,0.02475,0.02513,-0.03413*
1,1,0.02475,-0.02513,-0.03413*
1,1,0.02475,-0.02513,0.03413*
1,1,0.02475,0.02513,0.03413*
%
%ADD100ROUNDEDRECTD100*%
%ADD101O,0.07500X0.09300*%
%ADD102C,0.06800*%
G04:AMPARAMS|DCode=103|XSize=70.99mil|YSize=70.99mil|CornerRadius=19.75mil|HoleSize=0mil|Usage=FLASHONLY|Rotation=0.000|XOffset=0mil|YOffset=0mil|HoleType=Round|Shape=RoundedRectangle|*
%AMROUNDEDRECTD103*
21,1,0.07099,0.03150,0,0,0.0*
21,1,0.03150,0.07099,0,0,0.0*
1,1,0.03950,0.01575,-0.01575*
1,1,0.03950,-0.01575,-0.01575*
1,1,0.03950,-0.01575,0.01575*
1,1,0.03950,0.01575,0.01575*
%
%ADD103ROUNDEDRECTD103*%
%ADD104C,0.07099*%
%ADD105C,0.12611*%
G04:AMPARAMS|DCode=106|XSize=163.9mil|YSize=163.9mil|CornerRadius=42.98mil|HoleSize=0mil|Usage=FLASHONLY|Rotation=270.000|XOffset=0mil|YOffset=0mil|HoleType=Round|Shape=RoundedRectangle|*
%AMROUNDEDRECTD106*
21,1,0.16390,0.07795,0,0,270.0*
21,1,0.07795,0.16390,0,0,270.0*
1,1,0.08595,-0.03898,-0.03898*
1,1,0.08595,-0.03898,0.03898*
1,1,0.08595,0.03898,0.03898*
1,1,0.08595,0.03898,-0.03898*
%
%ADD106ROUNDEDRECTD106*%
G04:AMPARAMS|DCode=107|XSize=73mil|YSize=73mil|CornerRadius=12.13mil|HoleSize=0mil|Usage=FLASHONLY|Rotation=0.000|XOffset=0mil|YOffset=0mil|HoleType=Round|Shape=RoundedRectangle|*
%AMROUNDEDRECTD107*
21,1,0.07300,0.04875,0,0,0.0*
21,1,0.04875,0.07300,0,0,0.0*
1,1,0.02425,0.02438,-0.02438*
1,1,0.02425,-0.02438,-0.02438*
1,1,0.02425,-0.02438,0.02438*
1,1,0.02425,0.02438,0.02438*
%
%ADD107ROUNDEDRECTD107*%
%ADD108C,0.09800*%
G04:AMPARAMS|DCode=109|XSize=70.99mil|YSize=70.99mil|CornerRadius=19.75mil|HoleSize=0mil|Usage=FLASHONLY|Rotation=90.000|XOffset=0mil|YOffset=0mil|HoleType=Round|Shape=RoundedRectangle|*
%AMROUNDEDRECTD109*
21,1,0.07099,0.03150,0,0,90.0*
21,1,0.03150,0.07099,0,0,90.0*
1,1,0.03950,0.01575,0.01575*
1,1,0.03950,0.01575,-0.01575*
1,1,0.03950,-0.01575,-0.01575*
1,1,0.03950,-0.01575,0.01575*
%
%ADD109ROUNDEDRECTD109*%
%ADD110O,0.09300X0.07500*%
G04:AMPARAMS|DCode=111|XSize=75mil|YSize=93mil|CornerRadius=12.38mil|HoleSize=0mil|Usage=FLASHONLY|Rotation=270.000|XOffset=0mil|YOffset=0mil|HoleType=Round|Shape=RoundedRectangle|*
%AMROUNDEDRECTD111*
21,1,0.07500,0.06825,0,0,270.0*
21,1,0.05025,0.09300,0,0,270.0*
1,1,0.02475,-0.03413,-0.02513*
1,1,0.02475,-0.03413,0.02513*
1,1,0.02475,0.03413,0.02513*
1,1,0.02475,0.03413,-0.02513*
%
%ADD111ROUNDEDRECTD111*%
%ADD112C,0.05800*%
%ADD113C,0.03000*%
%ADD114C,0.02800*%
D30*
X1150000Y337497D02*
X1156665D01*
X1153332D01*
Y327500D01*
X1161663D02*
X1164995D01*
X1166661Y329166D01*
Y332498D01*
X1164995Y334165D01*
X1161663D01*
X1159997Y332498D01*
Y329166D01*
X1161663Y327500D01*
X1169994Y324168D02*
Y334165D01*
X1174992D01*
X1176658Y332498D01*
Y329166D01*
X1174992Y327500D01*
X1169994D01*
X1196652Y335831D02*
X1194985Y337497D01*
X1191653D01*
X1189987Y335831D01*
Y334165D01*
X1191653Y332498D01*
X1194985D01*
X1196652Y330832D01*
Y329166D01*
X1194985Y327500D01*
X1191653D01*
X1189987Y329166D01*
X1201650Y327500D02*
X1204982D01*
X1206648Y329166D01*
Y332498D01*
X1204982Y334165D01*
X1201650D01*
X1199984Y332498D01*
Y329166D01*
X1201650Y327500D01*
X1209981D02*
X1213313D01*
X1211647D01*
Y337497D01*
X1209981D01*
X1224976D02*
Y327500D01*
X1219977D01*
X1218311Y329166D01*
Y332498D01*
X1219977Y334165D01*
X1224976D01*
X1233307Y327500D02*
X1229974D01*
X1228308Y329166D01*
Y332498D01*
X1229974Y334165D01*
X1233307D01*
X1234973Y332498D01*
Y330832D01*
X1228308D01*
X1238305Y334165D02*
Y327500D01*
Y330832D01*
X1239971Y332498D01*
X1241637Y334165D01*
X1243303D01*
D76*
X7500Y43000D02*
D03*
D77*
X108417Y141484D02*
D03*
Y144043D02*
D03*
Y146602D02*
D03*
Y149161D02*
D03*
Y151720D02*
D03*
Y154280D02*
D03*
Y156839D02*
D03*
Y159398D02*
D03*
Y161957D02*
D03*
Y164516D02*
D03*
X85583Y141484D02*
D03*
Y144043D02*
D03*
Y146602D02*
D03*
Y149161D02*
D03*
Y151720D02*
D03*
Y154280D02*
D03*
Y156839D02*
D03*
Y159398D02*
D03*
Y161957D02*
D03*
Y164516D02*
D03*
X107083Y254516D02*
D03*
Y251957D02*
D03*
Y249398D02*
D03*
Y246839D02*
D03*
Y244280D02*
D03*
Y241721D02*
D03*
Y239161D02*
D03*
Y236602D02*
D03*
Y234043D02*
D03*
Y231484D02*
D03*
X129917Y254516D02*
D03*
Y251957D02*
D03*
Y249398D02*
D03*
Y246839D02*
D03*
Y244280D02*
D03*
Y241721D02*
D03*
Y239161D02*
D03*
Y236602D02*
D03*
Y234043D02*
D03*
Y231484D02*
D03*
X241368Y130362D02*
D03*
Y132921D02*
D03*
Y135480D02*
D03*
Y138039D02*
D03*
Y140598D02*
D03*
Y143157D02*
D03*
Y145717D02*
D03*
Y148276D02*
D03*
Y150835D02*
D03*
Y153394D02*
D03*
X218533Y130362D02*
D03*
Y132921D02*
D03*
Y135480D02*
D03*
Y138039D02*
D03*
Y140598D02*
D03*
Y143157D02*
D03*
Y145717D02*
D03*
Y148276D02*
D03*
Y150835D02*
D03*
Y153394D02*
D03*
X174417Y208484D02*
D03*
Y211043D02*
D03*
Y213602D02*
D03*
Y216161D02*
D03*
Y218721D02*
D03*
Y221280D02*
D03*
Y223839D02*
D03*
Y226398D02*
D03*
Y228957D02*
D03*
Y231516D02*
D03*
X151583Y208484D02*
D03*
Y211043D02*
D03*
Y213602D02*
D03*
Y216161D02*
D03*
Y218721D02*
D03*
Y221280D02*
D03*
Y223839D02*
D03*
Y226398D02*
D03*
Y228957D02*
D03*
Y231516D02*
D03*
X108417Y180484D02*
D03*
Y183043D02*
D03*
Y185602D02*
D03*
Y188161D02*
D03*
Y190720D02*
D03*
Y193280D02*
D03*
Y195839D02*
D03*
Y198398D02*
D03*
Y200957D02*
D03*
Y203516D02*
D03*
X85583Y180484D02*
D03*
Y183043D02*
D03*
Y185602D02*
D03*
Y188161D02*
D03*
Y190720D02*
D03*
Y193280D02*
D03*
Y195839D02*
D03*
Y198398D02*
D03*
Y200957D02*
D03*
Y203516D02*
D03*
D78*
X276162Y304500D02*
D03*
X278720D02*
D03*
X281280D02*
D03*
X283839D02*
D03*
X286398D02*
D03*
X288957D02*
D03*
X291516D02*
D03*
X294075D02*
D03*
X296634D02*
D03*
X299193D02*
D03*
X301752D02*
D03*
X304311D02*
D03*
X306870D02*
D03*
X309429D02*
D03*
X276162Y327728D02*
D03*
X278720D02*
D03*
X281280D02*
D03*
X283839D02*
D03*
X286398D02*
D03*
X288957D02*
D03*
X291516D02*
D03*
X294075D02*
D03*
X296634D02*
D03*
X299193D02*
D03*
X301752D02*
D03*
X304311D02*
D03*
X306870D02*
D03*
X309429D02*
D03*
D79*
X35000Y25091D02*
D03*
X55000D02*
D03*
D80*
X45000Y66035D02*
D03*
D81*
X80484Y83339D02*
D03*
X98516D02*
D03*
D82*
X89500Y57551D02*
D03*
D83*
X298240Y82760D02*
D03*
X294500Y90240D02*
D03*
X301980D02*
D03*
X89000Y249260D02*
D03*
X85260Y256740D02*
D03*
X92740D02*
D03*
D84*
X92000Y338008D02*
D03*
D85*
X101055Y313992D02*
D03*
X92000Y313992D02*
D03*
X82945Y313992D02*
D03*
D86*
X157000Y340272D02*
D03*
X152000D02*
D03*
X147000D02*
D03*
X142000D02*
D03*
X137000D02*
D03*
X132000D02*
D03*
X127000D02*
D03*
X122000D02*
D03*
X157000Y311728D02*
D03*
X152000Y311728D02*
D03*
X147000Y311728D02*
D03*
X142000D02*
D03*
X137000D02*
D03*
X132000D02*
D03*
X127000Y311728D02*
D03*
X122000Y311728D02*
D03*
X302000Y72772D02*
D03*
X297000D02*
D03*
X292000D02*
D03*
X287000D02*
D03*
X282000D02*
D03*
X277000D02*
D03*
X272000D02*
D03*
X267000D02*
D03*
X302000Y44228D02*
D03*
X297000D02*
D03*
X292000D02*
D03*
X287000D02*
D03*
X282000D02*
D03*
X277000D02*
D03*
X272000D02*
D03*
X267000D02*
D03*
D87*
X379500Y293630D02*
D03*
X374500D02*
D03*
X369500D02*
D03*
X364500D02*
D03*
X379500Y272370D02*
D03*
X374500D02*
D03*
X369500D02*
D03*
X364500D02*
D03*
D88*
X76437Y241760D02*
D03*
X68563D02*
D03*
X52063Y257000D02*
D03*
X59937D02*
D03*
X133465Y266535D02*
D03*
X141339D02*
D03*
X93063Y269000D02*
D03*
X100937D02*
D03*
X316437Y90000D02*
D03*
X308563D02*
D03*
X83063Y305500D02*
D03*
X90937D02*
D03*
X254937Y77500D02*
D03*
X247063D02*
D03*
D89*
X71465Y337500D02*
D03*
X54535D02*
D03*
X33630Y320866D02*
D03*
X16701D02*
D03*
D90*
X118905Y83500D02*
D03*
X107095D02*
D03*
D91*
X68000Y93437D02*
D03*
Y85563D02*
D03*
X17000Y41563D02*
D03*
Y49437D02*
D03*
X43000Y102063D02*
D03*
Y109937D02*
D03*
X354000Y293437D02*
D03*
Y285563D02*
D03*
X144000Y254437D02*
D03*
Y246563D02*
D03*
X71500Y41437D02*
D03*
Y33563D02*
D03*
D92*
X52260Y245500D02*
D03*
X59740Y249240D02*
D03*
Y241760D02*
D03*
D93*
X353000Y147437D02*
D03*
Y139563D02*
D03*
Y124063D02*
D03*
Y131937D02*
D03*
X241311Y347563D02*
D03*
Y355437D02*
D03*
X256311Y347563D02*
D03*
Y355437D02*
D03*
X331500Y103937D02*
D03*
Y96063D02*
D03*
X43500Y257063D02*
D03*
Y264937D02*
D03*
X297000Y272563D02*
D03*
Y280437D02*
D03*
X287000Y272563D02*
D03*
Y280437D02*
D03*
X346311Y355437D02*
D03*
Y347563D02*
D03*
X331311Y355437D02*
D03*
Y347563D02*
D03*
X316311Y355437D02*
D03*
Y347563D02*
D03*
X271311Y355437D02*
D03*
Y347563D02*
D03*
X301311Y355437D02*
D03*
Y347563D02*
D03*
X286311Y355437D02*
D03*
Y347563D02*
D03*
X71000Y297563D02*
D03*
Y305437D02*
D03*
D94*
X218563Y123000D02*
D03*
X226437D02*
D03*
X152063Y201000D02*
D03*
X159937D02*
D03*
X84937Y173000D02*
D03*
X77063D02*
D03*
X84937Y133500D02*
D03*
X77063D02*
D03*
X326437Y304500D02*
D03*
X318563D02*
D03*
D95*
X377953Y377953D02*
D03*
X15748D02*
D03*
Y15748D02*
D03*
X377953D02*
D03*
D96*
X237000Y59000D02*
D03*
X247000D02*
D03*
X152874Y266535D02*
D03*
D97*
X162874D02*
D03*
D98*
X31000Y270000D02*
D03*
X21000D02*
D03*
X31000Y280000D02*
D03*
X21000D02*
D03*
X31000Y290000D02*
D03*
X21000D02*
D03*
Y260000D02*
D03*
X31000D02*
D03*
X21000Y250000D02*
D03*
X31000D02*
D03*
X21000Y240000D02*
D03*
X31000D02*
D03*
X21000Y230000D02*
D03*
X31000D02*
D03*
X21000Y220000D02*
D03*
X31000D02*
D03*
X21000Y210000D02*
D03*
X31000D02*
D03*
X21000Y200000D02*
D03*
X31000D02*
D03*
X21000Y190000D02*
D03*
X31000D02*
D03*
X21000Y180000D02*
D03*
X31000D02*
D03*
X21000Y170000D02*
D03*
X31000D02*
D03*
X21000Y160000D02*
D03*
X31000D02*
D03*
X21000Y150000D02*
D03*
X31000D02*
D03*
Y110000D02*
D03*
X21000D02*
D03*
X31000Y120000D02*
D03*
X21000D02*
D03*
X31000Y130000D02*
D03*
X21000D02*
D03*
X31000Y140000D02*
D03*
X21000D02*
D03*
Y100000D02*
D03*
X217000D02*
D03*
X187000D02*
D03*
X197000D02*
D03*
X207000D02*
D03*
X157000D02*
D03*
X167000D02*
D03*
X177000D02*
D03*
X137000D02*
D03*
X127000D02*
D03*
X117000D02*
D03*
X107000D02*
D03*
X97000D02*
D03*
X227000D02*
D03*
X317000D02*
D03*
X267000D02*
D03*
X257000D02*
D03*
X247000D02*
D03*
X297000D02*
D03*
X287000D02*
D03*
X277000D02*
D03*
X307000D02*
D03*
X337000Y170000D02*
D03*
Y140000D02*
D03*
Y150000D02*
D03*
Y160000D02*
D03*
Y290000D02*
D03*
Y120000D02*
D03*
Y130000D02*
D03*
Y180000D02*
D03*
Y250000D02*
D03*
Y220000D02*
D03*
Y230000D02*
D03*
Y240000D02*
D03*
Y190000D02*
D03*
Y200000D02*
D03*
Y210000D02*
D03*
Y260000D02*
D03*
X327000Y170000D02*
D03*
Y140000D02*
D03*
Y150000D02*
D03*
Y160000D02*
D03*
Y290000D02*
D03*
Y120000D02*
D03*
Y130000D02*
D03*
Y180000D02*
D03*
Y250000D02*
D03*
Y220000D02*
D03*
Y230000D02*
D03*
Y240000D02*
D03*
Y190000D02*
D03*
Y200000D02*
D03*
Y210000D02*
D03*
Y260000D02*
D03*
Y280000D02*
D03*
Y270000D02*
D03*
X337000Y280000D02*
D03*
Y270000D02*
D03*
X111000Y290000D02*
D03*
X81000D02*
D03*
X91000D02*
D03*
X101000D02*
D03*
X51000D02*
D03*
X61000D02*
D03*
X71000D02*
D03*
X121000D02*
D03*
X197000D02*
D03*
X167000D02*
D03*
X177000D02*
D03*
X187000D02*
D03*
X137000D02*
D03*
X147000D02*
D03*
X157000D02*
D03*
X207000D02*
D03*
X287000D02*
D03*
X257000D02*
D03*
X267000D02*
D03*
X277000D02*
D03*
X227000D02*
D03*
X237000D02*
D03*
X247000D02*
D03*
X297000D02*
D03*
D99*
X31000Y100000D02*
D03*
D100*
X364500Y124000D02*
D03*
X127000Y65500D02*
D03*
X364500Y147000D02*
D03*
D101*
X374500Y124000D02*
D03*
X384500D02*
D03*
X217000Y65500D02*
D03*
X207000D02*
D03*
X197000D02*
D03*
X187000D02*
D03*
X177000D02*
D03*
X167000D02*
D03*
X157000D02*
D03*
X147000D02*
D03*
X137000D02*
D03*
X374500Y147000D02*
D03*
X384500D02*
D03*
D102*
X363000Y264000D02*
D03*
X371000D02*
D03*
X267000Y85626D02*
D03*
X257000D02*
D03*
D103*
X51079Y317500D02*
D03*
D104*
X60921D02*
D03*
X327500Y60921D02*
D03*
D105*
X379000Y223984D02*
D03*
Y172016D02*
D03*
D106*
Y198000D02*
D03*
D107*
X87000Y100000D02*
D03*
D108*
X95500Y375000D02*
D03*
X110500D02*
D03*
X127000Y18000D02*
D03*
X112000D02*
D03*
X142000D02*
D03*
X157000D02*
D03*
X172000D02*
D03*
X187000D02*
D03*
X202000D02*
D03*
X217000D02*
D03*
X232000D02*
D03*
X247000D02*
D03*
X327500D02*
D03*
X312500D02*
D03*
X277000D02*
D03*
X292000D02*
D03*
X213811Y375000D02*
D03*
X228811D02*
D03*
X243811D02*
D03*
X258811D02*
D03*
X273811D02*
D03*
X288811D02*
D03*
X303811D02*
D03*
X318811D02*
D03*
X348811D02*
D03*
X333811D02*
D03*
X375500Y92500D02*
D03*
Y77500D02*
D03*
X16500Y351000D02*
D03*
Y336000D02*
D03*
X375500Y56500D02*
D03*
Y41500D02*
D03*
X56500Y375000D02*
D03*
X71500D02*
D03*
X173500D02*
D03*
X188500D02*
D03*
X134500D02*
D03*
X149500D02*
D03*
D109*
X327500Y51079D02*
D03*
D110*
X92000Y8000D02*
D03*
Y18000D02*
D03*
D111*
Y28000D02*
D03*
D112*
X157000Y305000D02*
D03*
X152000Y305000D02*
D03*
X101000Y305500D02*
D03*
X126500Y276500D02*
D03*
X115500D02*
D03*
X68000Y99500D02*
D03*
X261500Y74500D02*
D03*
X131500Y54000D02*
D03*
X212000D02*
D03*
X67000Y209000D02*
D03*
X93063Y133500D02*
D03*
X93000Y118000D02*
D03*
X54000Y110000D02*
D03*
X67000Y249240D02*
D03*
D113*
X354000Y279000D02*
D03*
X306870Y293000D02*
D03*
X379500Y302000D02*
D03*
X367000D02*
D03*
X274500Y334000D02*
D03*
X241500Y126000D02*
D03*
X93000Y223500D02*
D03*
X79500Y256740D02*
D03*
X88000Y238000D02*
D03*
Y228500D02*
D03*
X203000Y147000D02*
D03*
Y180000D02*
D03*
Y188000D02*
D03*
X190000Y185000D02*
D03*
X296000Y139000D02*
D03*
Y129000D02*
D03*
X304311Y333500D02*
D03*
X251000Y233000D02*
D03*
X245500D02*
D03*
X241500Y228000D02*
D03*
X272000Y177000D02*
D03*
Y182000D02*
D03*
X166000Y201000D02*
D03*
X144000Y208500D02*
D03*
X100500Y229500D02*
D03*
X115500Y178000D02*
D03*
Y166500D02*
D03*
X190000Y202000D02*
D03*
X239000Y193500D02*
D03*
X247000Y225500D02*
D03*
X210122Y130878D02*
D03*
X290000Y227000D02*
D03*
X203000Y134000D02*
D03*
X77000Y141000D02*
D03*
X182000Y205500D02*
D03*
X137000Y246500D02*
D03*
X248000Y148276D02*
D03*
X232500Y123000D02*
D03*
X148000Y161000D02*
D03*
X132000Y163000D02*
D03*
X138000Y157000D02*
D03*
X148000Y151000D02*
D03*
X153000Y161000D02*
D03*
Y151000D02*
D03*
X99500Y248000D02*
D03*
X182000Y228957D02*
D03*
X101516Y203516D02*
D03*
X77000Y180000D02*
D03*
X206000Y198000D02*
D03*
X212000Y192000D02*
D03*
X300000Y255000D02*
D03*
X295000Y250000D02*
D03*
X178000Y133000D02*
D03*
X172000Y139000D02*
D03*
X244000Y207000D02*
D03*
X237000D02*
D03*
X271000Y219000D02*
D03*
X282500Y190000D02*
D03*
X286500Y185000D02*
D03*
X5500Y45000D02*
D03*
Y41000D02*
D03*
X9500D02*
D03*
Y45000D02*
D03*
X332500Y304500D02*
D03*
X93000Y241000D02*
D03*
X229000Y176000D02*
D03*
X246500Y158500D02*
D03*
X282000Y160500D02*
D03*
Y151500D02*
D03*
X277000D02*
D03*
Y159000D02*
D03*
X44500D02*
D03*
X291500Y185000D02*
D03*
X277000Y189500D02*
D03*
X285500Y223500D02*
D03*
X281000Y236000D02*
D03*
X275500Y233500D02*
D03*
X299213Y311024D02*
D03*
X115795Y139000D02*
D03*
X65500Y257000D02*
D03*
X10236Y312598D02*
D03*
Y308598D02*
D03*
X6236D02*
D03*
Y312598D02*
D03*
D114*
X82000Y67500D02*
D03*
X87000D02*
D03*
X92000D02*
D03*
X97000D02*
D03*
Y47500D02*
D03*
X92000D02*
D03*
X87000D02*
D03*
X82000D02*
D03*
X97000Y52500D02*
D03*
X92000D02*
D03*
X87000D02*
D03*
X82000D02*
D03*
Y57500D02*
D03*
X87000D02*
D03*
X92000D02*
D03*
X97000D02*
D03*
Y62500D02*
D03*
X92000D02*
D03*
X87000D02*
D03*
X82000D02*
D03*
X28500Y78000D02*
D03*
X33500D02*
D03*
X38500D02*
D03*
X43500D02*
D03*
X48500D02*
D03*
X53500D02*
D03*
X58500D02*
D03*
X63500D02*
D03*
X28500Y73000D02*
D03*
X63500D02*
D03*
X58500D02*
D03*
X53500D02*
D03*
X48500D02*
D03*
X43500D02*
D03*
X38500D02*
D03*
X33500D02*
D03*
Y68000D02*
D03*
X38500D02*
D03*
X43500D02*
D03*
X48500D02*
D03*
X53500D02*
D03*
X58500D02*
D03*
X63500D02*
D03*
X28500D02*
D03*
X33500Y63000D02*
D03*
X38500D02*
D03*
X43500D02*
D03*
X48500D02*
D03*
X53500D02*
D03*
X58500D02*
D03*
X63500D02*
D03*
X28500D02*
D03*
X33500Y58000D02*
D03*
X38500D02*
D03*
X43500D02*
D03*
X48500D02*
D03*
X53500D02*
D03*
X58500D02*
D03*
X63500D02*
D03*
X28500D02*
D03*
X33500Y53000D02*
D03*
X38500D02*
D03*
X43500D02*
D03*
X48500D02*
D03*
X53500D02*
D03*
X58500D02*
D03*
X63500D02*
D03*
X28500D02*
D03*
X302240Y82760D02*
D03*
M02*
