M48
;Layer_Color=9474304
;FILE_FORMAT=2:5
INCH,LZ
;TYPE=PLATED
T1F00S00C0.01968
T2F00S00C0.02953
T3F00S00C0.03346
T4F00S00C0.03740
T5F00S00C0.03937
T6F00S00C0.04700
T7F00S00C0.05512
T8F00S00C0.07874
;TYPE=NON_PLATED
T9F00S00C0.15748
%
T01
X00055Y0041
Y0045
X00095
Y0041
X00285Y0053
X00335
X00385
X00435
X00485
X00535
X00585
X00635
X0082Y00525
Y00475
X0087
X0092
X0097
Y00525
X0092
X0087
X030224Y008276
X0296Y0129
Y0139
X02915Y0185
X02865
X02825Y019
X0277Y01895
X0272Y0182
Y0177
X0277Y0159
X0282Y01605
Y01515
X0277
X0248Y0148276
X02465Y01585
X0229Y0176
X0239Y01935
X0237Y0207
X0244
X0206Y0198
X0212Y0192
X0203Y0188
Y018
X019Y0185
Y0202
X0182Y02055
X0166Y0201
X0144Y02085
X0148Y0161
X0153
Y0151
X0148
X0138Y0157
X0172Y0139
X0178Y0133
X0203Y0134
X0210122Y0130878
X0203Y0147
X02325Y0123
X02415Y0126
X0115795Y0139
X01155Y01665
Y0178
X0132Y0163
X0101516Y0203516
X0077Y018
Y0141
X00445Y0159
X00435Y0078
X00385
X00335
X00285
Y0073
X00335
X00385
X00435
X00485
Y0078
X00535
X00585
X00635
Y0073
X00585
X00535
Y0068
X00485
X00435
X00385
X00335
X00285
Y0063
X00335
X00385
X00435
X00485
X00535
X00585
Y0068
X00635
Y0063
Y0058
X00585
X00535
X00485
X00435
X00385
X00335
X00285
X0082Y00575
X0087
X0092
X0097
Y00625
Y00675
X0092
X0087
X0082
Y00625
X0087
X0092
X0093Y02235
X0088Y02285
Y0238
X0093Y0241
X00995Y0248
X01005Y02295
X00795Y025674
X00655Y0257
X0010236Y0308598
Y0312598
X0006236
Y0308598
X0137Y02465
X0182Y0228957
X02415Y0228
X0247Y02255
X02455Y0233
X0251
X02755Y02335
X0281Y0236
X02855Y02235
X0271Y0219
X02745Y0334
X0304311Y03335
X0299213Y0311024
X030687Y0293
X03325Y03045
X0367Y0302
X03795
X0354Y0279
X03Y0255
X0295Y025
X029Y0227
T02
X01315Y0054
X0212
X02615Y00745
X0093Y0118
X0093063Y01335
X0068Y00995
X0054Y011
X0067Y0209
X0067Y024924
X01155Y02765
X01265
X0101Y03055
X0152Y0305
X0157Y0305
X0363Y0264
X0371
X0385Y0272
T03
X0247Y0059
T04
X0237Y0059
T05
X03275Y0051079
Y0060921
X0317Y01
X0307
X0297
X0327Y012
X0337
Y013
Y014
Y015
Y016
Y017
Y018
Y019
Y02
Y021
X0327
Y02
Y019
Y018
Y017
Y016
Y015
Y014
Y013
X0287Y01
X0277
X0267
X0257
X0247
X0227
X0217
X0207
X0197
X0187
X0177
X0167
X0157
X0137
X0257Y0085626
X0267
X0127Y01
X0117
X0107
X0097
X0087
X0031
Y011
X0021
Y012
X0031
Y013
X0021
Y014
Y015
Y016
Y017
Y018
Y019
Y02
Y021
X0031
Y02
Y019
Y018
Y017
Y016
Y015
Y014
X0021Y01
Y022
Y023
Y024
Y025
Y026
Y027
X0031
Y028
X0021
Y029
X0031
X0051
X0061
X0071
X0081
X0091
X0101
X0111
X0121
X0060921Y03175
X0051079
X0031Y026
Y025
Y024
Y023
Y022
X0152874Y0266535
X0162874
X0167Y029
X0177
X0187
X0197
X0207
X0227
X0237
X0247
X0257
X0267
X0277
X0287
X0157
X0147
X0137
X0297
X0327
X0337
Y028
X0327
Y027
Y026
X0337
Y025
Y024
Y023
Y022
X0327
Y023
Y024
Y025
X0337Y027
T06
X0092Y0008
Y0018
Y0028
X03645Y0124
X03745
X03845
Y0147
X03745
X03645
X0217Y00655
X0207
X0197
X0187
X0177
X0167
X0157
X0147
X0137
X0127
T07
X0112Y0018
X0127
X0142
X0157
X0172
X0187
X0202
X0217
X0232
X0247
X0277
X0292
X03125
X03275
X03755Y00415
Y00565
Y00775
Y00925
X00165Y0336
Y0351
X0303811Y0375
X0318811
X0333811
X0348811
X0288811
X0273811
X0258811
X0243811
X0228811
X0213811
X01885Y0375
X01735
X01495
X01345
X01105
X00955
X00715
X00565
T08
X0379Y0172016
Y0198
Y0223984
T09
X0015748Y0015748
X0377953
Y0377953
X0015748
M30
