G04 Layer_Physical_Order=2*
G04 Layer_Color=16711680*
%FSLAX25Y25*%
%MOIN*%
G70*
G01*
G75*
G04:AMPARAMS|DCode=26|XSize=53.15mil|YSize=43.31mil|CornerRadius=5.41mil|HoleSize=0mil|Usage=FLASHONLY|Rotation=180.000|XOffset=0mil|YOffset=0mil|HoleType=Round|Shape=RoundedRectangle|*
%AMROUNDEDRECTD26*
21,1,0.05315,0.03248,0,0,180.0*
21,1,0.04232,0.04331,0,0,180.0*
1,1,0.01083,-0.02116,0.01624*
1,1,0.01083,0.02116,0.01624*
1,1,0.01083,0.02116,-0.01624*
1,1,0.01083,-0.02116,-0.01624*
%
%ADD26ROUNDEDRECTD26*%
%ADD28C,0.05000*%
%ADD30C,0.01000*%
%ADD31C,0.01500*%
%ADD32C,0.01200*%
%ADD33C,0.02500*%
%ADD34C,0.02000*%
%ADD36C,0.04000*%
%ADD38C,0.04500*%
%ADD42C,0.06693*%
G04:AMPARAMS|DCode=43|XSize=66.93mil|YSize=66.93mil|CornerRadius=8.37mil|HoleSize=0mil|Usage=FLASHONLY|Rotation=180.000|XOffset=0mil|YOffset=0mil|HoleType=Round|Shape=RoundedRectangle|*
%AMROUNDEDRECTD43*
21,1,0.06693,0.05020,0,0,180.0*
21,1,0.05020,0.06693,0,0,180.0*
1,1,0.01673,-0.02510,0.02510*
1,1,0.01673,0.02510,0.02510*
1,1,0.01673,0.02510,-0.02510*
1,1,0.01673,-0.02510,-0.02510*
%
%ADD43ROUNDEDRECTD43*%
%ADD44C,0.06500*%
G04:AMPARAMS|DCode=45|XSize=65mil|YSize=65mil|CornerRadius=16.25mil|HoleSize=0mil|Usage=FLASHONLY|Rotation=90.000|XOffset=0mil|YOffset=0mil|HoleType=Round|Shape=RoundedRectangle|*
%AMROUNDEDRECTD45*
21,1,0.06500,0.03250,0,0,90.0*
21,1,0.03250,0.06500,0,0,90.0*
1,1,0.03250,0.01625,0.01625*
1,1,0.03250,0.01625,-0.01625*
1,1,0.03250,-0.01625,-0.01625*
1,1,0.03250,-0.01625,0.01625*
%
%ADD45ROUNDEDRECTD45*%
%ADD48C,0.06000*%
%ADD51C,0.11811*%
G04:AMPARAMS|DCode=52|XSize=155.9mil|YSize=155.9mil|CornerRadius=38.98mil|HoleSize=0mil|Usage=FLASHONLY|Rotation=270.000|XOffset=0mil|YOffset=0mil|HoleType=Round|Shape=RoundedRectangle|*
%AMROUNDEDRECTD52*
21,1,0.15590,0.07795,0,0,270.0*
21,1,0.07795,0.15590,0,0,270.0*
1,1,0.07795,-0.03898,-0.03898*
1,1,0.07795,-0.03898,0.03898*
1,1,0.07795,0.03898,0.03898*
1,1,0.07795,0.03898,-0.03898*
%
%ADD52ROUNDEDRECTD52*%
G04:AMPARAMS|DCode=53|XSize=65mil|YSize=65mil|CornerRadius=8.13mil|HoleSize=0mil|Usage=FLASHONLY|Rotation=0.000|XOffset=0mil|YOffset=0mil|HoleType=Round|Shape=RoundedRectangle|*
%AMROUNDEDRECTD53*
21,1,0.06500,0.04875,0,0,0.0*
21,1,0.04875,0.06500,0,0,0.0*
1,1,0.01625,0.02438,-0.02438*
1,1,0.01625,-0.02438,-0.02438*
1,1,0.01625,-0.02438,0.02438*
1,1,0.01625,0.02438,0.02438*
%
%ADD53ROUNDEDRECTD53*%
%ADD54C,0.09000*%
%ADD58C,0.05000*%
%ADD59C,0.04000*%
G04:AMPARAMS|DCode=60|XSize=69mil|YSize=90mil|CornerRadius=8.63mil|HoleSize=0mil|Usage=FLASHONLY|Rotation=0.000|XOffset=0mil|YOffset=0mil|HoleType=Round|Shape=RoundedRectangle|*
%AMROUNDEDRECTD60*
21,1,0.06900,0.07275,0,0,0.0*
21,1,0.05175,0.09000,0,0,0.0*
1,1,0.01725,0.02587,-0.03637*
1,1,0.01725,-0.02587,-0.03637*
1,1,0.01725,-0.02587,0.03637*
1,1,0.01725,0.02587,0.03637*
%
%ADD60ROUNDEDRECTD60*%
%ADD61O,0.06900X0.09000*%
G04:AMPARAMS|DCode=62|XSize=66.93mil|YSize=66.93mil|CornerRadius=16.73mil|HoleSize=0mil|Usage=FLASHONLY|Rotation=0.000|XOffset=0mil|YOffset=0mil|HoleType=Round|Shape=RoundedRectangle|*
%AMROUNDEDRECTD62*
21,1,0.06693,0.03347,0,0,0.0*
21,1,0.03347,0.06693,0,0,0.0*
1,1,0.03346,0.01673,-0.01673*
1,1,0.03346,-0.01673,-0.01673*
1,1,0.03346,-0.01673,0.01673*
1,1,0.03346,0.01673,0.01673*
%
%ADD62ROUNDEDRECTD62*%
G04:AMPARAMS|DCode=63|XSize=66.93mil|YSize=66.93mil|CornerRadius=16.73mil|HoleSize=0mil|Usage=FLASHONLY|Rotation=90.000|XOffset=0mil|YOffset=0mil|HoleType=Round|Shape=RoundedRectangle|*
%AMROUNDEDRECTD63*
21,1,0.06693,0.03347,0,0,90.0*
21,1,0.03347,0.06693,0,0,90.0*
1,1,0.03346,0.01673,0.01673*
1,1,0.03346,0.01673,-0.01673*
1,1,0.03346,-0.01673,-0.01673*
1,1,0.03346,-0.01673,0.01673*
%
%ADD63ROUNDEDRECTD63*%
%ADD64O,0.09000X0.06900*%
G04:AMPARAMS|DCode=65|XSize=69mil|YSize=90mil|CornerRadius=8.63mil|HoleSize=0mil|Usage=FLASHONLY|Rotation=270.000|XOffset=0mil|YOffset=0mil|HoleType=Round|Shape=RoundedRectangle|*
%AMROUNDEDRECTD65*
21,1,0.06900,0.07275,0,0,270.0*
21,1,0.05175,0.09000,0,0,270.0*
1,1,0.01725,-0.03637,-0.02587*
1,1,0.01725,-0.03637,0.02587*
1,1,0.01725,0.03637,0.02587*
1,1,0.01725,0.03637,-0.02587*
%
%ADD65ROUNDEDRECTD65*%
G36*
X12500Y315748D02*
X12500Y40151D01*
X12500Y40151D01*
X12500Y40150D01*
X12495Y40143D01*
X12395Y39902D01*
X12394Y39894D01*
X12393Y39893D01*
X12393Y39893D01*
X11713Y39213D01*
X11713Y39213D01*
X11607Y39107D01*
X11598Y39105D01*
X11357Y39005D01*
X11349Y39000D01*
X11199D01*
X11199Y39000D01*
X3883Y39000D01*
X3529Y39354D01*
Y315394D01*
X3883Y315748D01*
X12500Y315748D01*
D02*
G37*
G36*
X366291Y387780D02*
X365577Y386944D01*
X364323Y384898D01*
X363404Y382680D01*
X362844Y380346D01*
X362655Y377953D01*
X362844Y375560D01*
X363404Y373226D01*
X364323Y371008D01*
X365577Y368961D01*
X367136Y367136D01*
X368961Y365577D01*
X371008Y364323D01*
X373226Y363404D01*
X375560Y362844D01*
X377953Y362655D01*
X380346Y362844D01*
X382680Y363404D01*
X384898Y364323D01*
X386944Y365577D01*
X387780Y366291D01*
X388234Y366082D01*
Y202714D01*
X387734Y202681D01*
X387669Y203176D01*
X387176Y204368D01*
X386391Y205391D01*
X385368Y206176D01*
X384176Y206669D01*
X382898Y206838D01*
X380500D01*
Y198000D01*
Y189163D01*
X382898D01*
X384176Y189331D01*
X385368Y189824D01*
X386391Y190609D01*
X387176Y191632D01*
X387669Y192824D01*
X387734Y193319D01*
X388234Y193286D01*
Y151271D01*
X387761Y151110D01*
X387674Y151224D01*
X386744Y151937D01*
X386000Y152245D01*
Y147000D01*
Y141755D01*
X386744Y142063D01*
X387674Y142776D01*
X387761Y142890D01*
X388234Y142729D01*
Y128271D01*
X387761Y128110D01*
X387674Y128224D01*
X386744Y128937D01*
X386000Y129245D01*
Y124000D01*
Y118755D01*
X386744Y119063D01*
X387674Y119776D01*
X387761Y119890D01*
X388234Y119729D01*
Y27619D01*
X387780Y27410D01*
X386944Y28124D01*
X384898Y29378D01*
X382680Y30297D01*
X380346Y30857D01*
X377953Y31045D01*
X375560Y30857D01*
X373226Y30297D01*
X371008Y29378D01*
X368961Y28124D01*
X367136Y26565D01*
X365577Y24740D01*
X364323Y22693D01*
X363404Y20475D01*
X362844Y18141D01*
X362655Y15748D01*
X362844Y13355D01*
X363404Y11021D01*
X364323Y8803D01*
X365577Y6756D01*
X366291Y5920D01*
X366082Y5466D01*
X97575D01*
X97241Y5966D01*
X97580Y6786D01*
X97740Y8000D01*
X97580Y9214D01*
X97112Y10345D01*
X96367Y11316D01*
X95395Y12062D01*
X94264Y12530D01*
X93050Y12690D01*
X90950D01*
X89736Y12530D01*
X88605Y12062D01*
X87634Y11316D01*
X86888Y10345D01*
X86420Y9214D01*
X86260Y8000D01*
X86420Y6786D01*
X86759Y5966D01*
X86425Y5466D01*
X27619D01*
X27410Y5920D01*
X28124Y6756D01*
X29378Y8803D01*
X30297Y11021D01*
X30857Y13355D01*
X31045Y15748D01*
X30857Y18141D01*
X30297Y20475D01*
X29378Y22693D01*
X28124Y24740D01*
X26565Y26565D01*
X24740Y28124D01*
X22693Y29378D01*
X20475Y30297D01*
X18141Y30857D01*
X15748Y31045D01*
X13355Y30857D01*
X11021Y30297D01*
X8803Y29378D01*
X6756Y28124D01*
X4931Y26565D01*
X3999Y25473D01*
X3529Y25646D01*
Y37181D01*
X3883Y37471D01*
X11199Y37471D01*
X11199Y37471D01*
X11349D01*
X11498Y37500D01*
X11649Y37500D01*
X11787Y37558D01*
X11935Y37587D01*
X11942Y37592D01*
X12183Y37692D01*
X12192Y37694D01*
X12317Y37777D01*
X12455Y37834D01*
X12562Y37941D01*
X12688Y38025D01*
X12794Y38131D01*
X12795Y38132D01*
X13475Y38812D01*
X13559Y38938D01*
X13665Y39044D01*
X13668Y39052D01*
X13674Y39058D01*
X13675Y39058D01*
X13724Y39182D01*
X13799Y39291D01*
X13799Y39291D01*
X13801Y39301D01*
X13806Y39308D01*
X13808Y39316D01*
X13808Y39317D01*
X13905Y39550D01*
X13909Y39557D01*
X13909Y39557D01*
X13911Y39562D01*
X13913Y39566D01*
X13942Y39713D01*
X14000Y39851D01*
Y39867D01*
X14006Y39882D01*
X14006Y39882D01*
X14003Y40013D01*
X14029Y40142D01*
X14029Y40146D01*
X14029Y40151D01*
X14029Y315748D01*
X13913Y316333D01*
X13581Y316829D01*
X13085Y317161D01*
X12500Y317277D01*
X3883Y317277D01*
X3529Y317568D01*
Y368055D01*
X3999Y368228D01*
X4931Y367136D01*
X6756Y365577D01*
X8803Y364323D01*
X11021Y363404D01*
X13355Y362844D01*
X15748Y362655D01*
X18141Y362844D01*
X20475Y363404D01*
X22693Y364323D01*
X24740Y365577D01*
X26565Y367136D01*
X28124Y368961D01*
X29378Y371008D01*
X30297Y373226D01*
X30857Y375560D01*
X31045Y377953D01*
X30857Y380346D01*
X30297Y382680D01*
X29378Y384898D01*
X28124Y386944D01*
X27410Y387780D01*
X27619Y388234D01*
X366082D01*
X366291Y387780D01*
D02*
G37*
%LPC*%
G36*
X330979Y118500D02*
X328500D01*
Y116021D01*
X329143Y116288D01*
X330031Y116969D01*
X330712Y117857D01*
X330979Y118500D01*
D02*
G37*
G36*
X340979D02*
X338500D01*
Y116021D01*
X339143Y116288D01*
X340031Y116969D01*
X340712Y117857D01*
X340979Y118500D01*
D02*
G37*
G36*
X325500D02*
X323021D01*
X323288Y117857D01*
X323969Y116969D01*
X324857Y116288D01*
X325500Y116021D01*
Y118500D01*
D02*
G37*
G36*
X31000Y124488D02*
X29838Y124336D01*
X28756Y123887D01*
X27826Y123174D01*
X27113Y122244D01*
X26665Y121162D01*
X26512Y120000D01*
X26665Y118838D01*
X27113Y117756D01*
X27826Y116826D01*
X28756Y116113D01*
X29838Y115665D01*
X31000Y115512D01*
X32162Y115665D01*
X33244Y116113D01*
X34174Y116826D01*
X34887Y117756D01*
X35335Y118838D01*
X35489Y120000D01*
X35335Y121162D01*
X34887Y122244D01*
X34174Y123174D01*
X33244Y123887D01*
X32162Y124336D01*
X31000Y124488D01*
D02*
G37*
G36*
X93063Y137030D02*
X92149Y136910D01*
X91298Y136557D01*
X90567Y135996D01*
X90006Y135265D01*
X89653Y134414D01*
X89533Y133500D01*
X89653Y132586D01*
X89722Y132420D01*
Y119232D01*
X89590Y118914D01*
X89470Y118000D01*
X89590Y117086D01*
X89943Y116235D01*
X90504Y115504D01*
X91235Y114943D01*
X92086Y114590D01*
X93000Y114470D01*
X93914Y114590D01*
X94765Y114943D01*
X95496Y115504D01*
X96057Y116235D01*
X96410Y117086D01*
X96530Y118000D01*
X96410Y118914D01*
X96278Y119232D01*
Y132116D01*
X96473Y132586D01*
X96593Y133500D01*
X96473Y134414D01*
X96120Y135265D01*
X95559Y135996D01*
X94828Y136557D01*
X93977Y136910D01*
X93063Y137030D01*
D02*
G37*
G36*
X21000Y124488D02*
X19838Y124336D01*
X18756Y123887D01*
X17826Y123174D01*
X17113Y122244D01*
X16665Y121162D01*
X16512Y120000D01*
X16665Y118838D01*
X17113Y117756D01*
X17826Y116826D01*
X18756Y116113D01*
X19838Y115665D01*
X21000Y115512D01*
X22162Y115665D01*
X23244Y116113D01*
X24174Y116826D01*
X24887Y117756D01*
X25335Y118838D01*
X25488Y120000D01*
X25335Y121162D01*
X24887Y122244D01*
X24174Y123174D01*
X23244Y123887D01*
X22162Y124336D01*
X21000Y124488D01*
D02*
G37*
G36*
X31000Y114488D02*
X29838Y114336D01*
X28756Y113887D01*
X27826Y113174D01*
X27113Y112244D01*
X26665Y111162D01*
X26512Y110000D01*
X26665Y108838D01*
X27113Y107756D01*
X27826Y106826D01*
X28756Y106113D01*
X29838Y105665D01*
X31000Y105512D01*
X32162Y105665D01*
X33244Y106113D01*
X34174Y106826D01*
X34887Y107756D01*
X35335Y108838D01*
X35489Y110000D01*
X35335Y111162D01*
X34887Y112244D01*
X34174Y113174D01*
X33244Y113887D01*
X32162Y114336D01*
X31000Y114488D01*
D02*
G37*
G36*
X328500Y123979D02*
Y121500D01*
X330979D01*
X330712Y122143D01*
X330031Y123031D01*
X329143Y123712D01*
X328500Y123979D01*
D02*
G37*
G36*
X335500Y123979D02*
X334857Y123712D01*
X333969Y123031D01*
X333288Y122143D01*
X333021Y121500D01*
X335500D01*
Y123979D01*
D02*
G37*
G36*
X383000Y129245D02*
X382256Y128937D01*
X381326Y128224D01*
X380613Y127294D01*
X380165Y126212D01*
X380071Y125500D01*
X383000D01*
Y129245D01*
D02*
G37*
G36*
X338500Y123979D02*
Y121500D01*
X340979D01*
X340712Y122143D01*
X340031Y123031D01*
X339143Y123712D01*
X338500Y123979D01*
D02*
G37*
G36*
X325500Y123979D02*
X324857Y123712D01*
X323969Y123031D01*
X323288Y122143D01*
X323021Y121500D01*
X325500D01*
Y123979D01*
D02*
G37*
G36*
X367088Y152740D02*
X361912D01*
X361108Y152580D01*
X360425Y152125D01*
X359970Y151442D01*
X359810Y150637D01*
Y143362D01*
X359970Y142558D01*
X360425Y141876D01*
X360970Y141512D01*
Y129488D01*
X360425Y129124D01*
X359970Y128442D01*
X359810Y127638D01*
Y120362D01*
X359970Y119558D01*
X360425Y118876D01*
X361108Y118420D01*
X361912Y118260D01*
X367088D01*
X367892Y118420D01*
X368575Y118876D01*
X369030Y119558D01*
X369190Y120362D01*
Y127638D01*
X369030Y128442D01*
X368575Y129124D01*
X368030Y129488D01*
Y141512D01*
X368575Y141876D01*
X369030Y142558D01*
X369190Y143362D01*
Y150637D01*
X369030Y151442D01*
X368575Y152125D01*
X367892Y152580D01*
X367088Y152740D01*
D02*
G37*
G36*
X335500Y118500D02*
X333021D01*
X333288Y117857D01*
X333969Y116969D01*
X334857Y116288D01*
X335500Y116021D01*
Y118500D01*
D02*
G37*
G36*
X383000Y122500D02*
X380071D01*
X380165Y121788D01*
X380613Y120706D01*
X381326Y119776D01*
X382256Y119063D01*
X383000Y118755D01*
Y122500D01*
D02*
G37*
G36*
X374500Y129740D02*
X373286Y129580D01*
X372155Y129112D01*
X371184Y128366D01*
X370438Y127395D01*
X369970Y126264D01*
X369810Y125050D01*
Y122950D01*
X369970Y121736D01*
X370438Y120605D01*
X371184Y119634D01*
X372155Y118888D01*
X373286Y118420D01*
X374500Y118260D01*
X375714Y118420D01*
X376845Y118888D01*
X377816Y119634D01*
X378562Y120605D01*
X379030Y121736D01*
X379190Y122950D01*
Y125050D01*
X379030Y126264D01*
X378562Y127395D01*
X377816Y128366D01*
X376845Y129112D01*
X375714Y129580D01*
X374500Y129740D01*
D02*
G37*
G36*
X21000Y114488D02*
X19838Y114336D01*
X18756Y113887D01*
X17826Y113174D01*
X17113Y112244D01*
X16665Y111162D01*
X16512Y110000D01*
X16665Y108838D01*
X17113Y107756D01*
X17826Y106826D01*
X18756Y106113D01*
X19838Y105665D01*
X21000Y105512D01*
X22162Y105665D01*
X23244Y106113D01*
X24174Y106826D01*
X24887Y107756D01*
X25335Y108838D01*
X25488Y110000D01*
X25335Y111162D01*
X24887Y112244D01*
X24174Y113174D01*
X23244Y113887D01*
X22162Y114336D01*
X21000Y114488D01*
D02*
G37*
G36*
X35273Y98500D02*
X32500D01*
Y95727D01*
X32625D01*
X33310Y95818D01*
X33949Y96082D01*
X34497Y96503D01*
X34918Y97051D01*
X35182Y97690D01*
X35273Y98375D01*
Y98500D01*
D02*
G37*
G36*
X29500D02*
X26727D01*
Y98375D01*
X26818Y97690D01*
X27082Y97051D01*
X27503Y96503D01*
X28051Y96082D01*
X28690Y95818D01*
X29375Y95727D01*
X29500D01*
Y98500D01*
D02*
G37*
G36*
X115500Y98500D02*
X113021D01*
X113288Y97857D01*
X113969Y96969D01*
X114857Y96288D01*
X115500Y96021D01*
Y98500D01*
D02*
G37*
G36*
X54000Y113530D02*
X53086Y113410D01*
X52235Y113057D01*
X51504Y112496D01*
X50943Y111765D01*
X50590Y110914D01*
X50470Y110000D01*
X50590Y109086D01*
X50943Y108235D01*
X51504Y107504D01*
X52235Y106943D01*
X53086Y106590D01*
X53137Y106583D01*
X62360Y97360D01*
X62987Y96880D01*
X63717Y96577D01*
X64500Y96474D01*
X66194D01*
X66235Y96443D01*
X67086Y96090D01*
X68000Y95970D01*
X68914Y96090D01*
X69765Y96443D01*
X70496Y97004D01*
X71057Y97735D01*
X71410Y98586D01*
X71530Y99500D01*
X71410Y100414D01*
X71057Y101265D01*
X70496Y101996D01*
X69765Y102557D01*
X68914Y102910D01*
X68000Y103030D01*
X67086Y102910D01*
X66235Y102557D01*
X66194Y102526D01*
X65753D01*
X57417Y110863D01*
X57410Y110914D01*
X57057Y111765D01*
X56496Y112496D01*
X55765Y113057D01*
X54914Y113410D01*
X54000Y113530D01*
D02*
G37*
G36*
X297000Y104488D02*
X295838Y104335D01*
X294756Y103887D01*
X293826Y103174D01*
X293113Y102244D01*
X292665Y101162D01*
X292512Y100000D01*
X292665Y98838D01*
X293113Y97756D01*
X293826Y96826D01*
X294756Y96113D01*
X295838Y95665D01*
X297000Y95512D01*
X298162Y95665D01*
X299244Y96113D01*
X300174Y96826D01*
X300887Y97756D01*
X301336Y98838D01*
X301488Y100000D01*
X301336Y101162D01*
X300887Y102244D01*
X300174Y103174D01*
X299244Y103887D01*
X298162Y104335D01*
X297000Y104488D01*
D02*
G37*
G36*
X287000D02*
X285838Y104335D01*
X284756Y103887D01*
X283826Y103174D01*
X283113Y102244D01*
X282665Y101162D01*
X282512Y100000D01*
X282665Y98838D01*
X283113Y97756D01*
X283826Y96826D01*
X284756Y96113D01*
X285838Y95665D01*
X287000Y95512D01*
X288162Y95665D01*
X289244Y96113D01*
X290174Y96826D01*
X290887Y97756D01*
X291336Y98838D01*
X291489Y100000D01*
X291336Y101162D01*
X290887Y102244D01*
X290174Y103174D01*
X289244Y103887D01*
X288162Y104335D01*
X287000Y104488D01*
D02*
G37*
G36*
X317000D02*
X315838Y104335D01*
X314756Y103887D01*
X313826Y103174D01*
X313113Y102244D01*
X312665Y101162D01*
X312512Y100000D01*
X312665Y98838D01*
X313113Y97756D01*
X313826Y96826D01*
X314756Y96113D01*
X315838Y95665D01*
X317000Y95512D01*
X318162Y95665D01*
X319244Y96113D01*
X320174Y96826D01*
X320887Y97756D01*
X321336Y98838D01*
X321488Y100000D01*
X321336Y101162D01*
X320887Y102244D01*
X320174Y103174D01*
X319244Y103887D01*
X318162Y104335D01*
X317000Y104488D01*
D02*
G37*
G36*
X307000D02*
X305838Y104335D01*
X304756Y103887D01*
X303826Y103174D01*
X303113Y102244D01*
X302665Y101162D01*
X302512Y100000D01*
X302665Y98838D01*
X303113Y97756D01*
X303826Y96826D01*
X304756Y96113D01*
X305838Y95665D01*
X307000Y95512D01*
X308162Y95665D01*
X309244Y96113D01*
X310174Y96826D01*
X310887Y97756D01*
X311335Y98838D01*
X311489Y100000D01*
X311335Y101162D01*
X310887Y102244D01*
X310174Y103174D01*
X309244Y103887D01*
X308162Y104335D01*
X307000Y104488D01*
D02*
G37*
G36*
X120979Y98500D02*
X118500D01*
Y96021D01*
X119143Y96288D01*
X120031Y96969D01*
X120712Y97857D01*
X120979Y98500D01*
D02*
G37*
G36*
X118500Y103979D02*
Y101500D01*
X120979D01*
X120712Y102143D01*
X120031Y103031D01*
X119143Y103712D01*
X118500Y103979D01*
D02*
G37*
G36*
X115500D02*
X114857Y103712D01*
X113969Y103031D01*
X113288Y102143D01*
X113021Y101500D01*
X115500D01*
Y103979D01*
D02*
G37*
G36*
X128500D02*
Y101500D01*
X130979D01*
X130712Y102143D01*
X130031Y103031D01*
X129143Y103712D01*
X128500Y103979D01*
D02*
G37*
G36*
X125500D02*
X124857Y103712D01*
X123969Y103031D01*
X123288Y102143D01*
X123021Y101500D01*
X125500D01*
Y103979D01*
D02*
G37*
G36*
X130979Y98500D02*
X128500D01*
Y96021D01*
X129143Y96288D01*
X130031Y96969D01*
X130712Y97857D01*
X130979Y98500D01*
D02*
G37*
G36*
X125500D02*
X123021D01*
X123288Y97857D01*
X123969Y96969D01*
X124857Y96288D01*
X125500Y96021D01*
Y98500D01*
D02*
G37*
G36*
X32625Y104273D02*
X32500D01*
Y101500D01*
X35273D01*
Y101625D01*
X35182Y102310D01*
X34918Y102949D01*
X34497Y103497D01*
X33949Y103918D01*
X33310Y104183D01*
X32625Y104273D01*
D02*
G37*
G36*
X29500D02*
X29375D01*
X28690Y104183D01*
X28051Y103918D01*
X27503Y103497D01*
X27082Y102949D01*
X26818Y102310D01*
X26727Y101625D01*
Y101500D01*
X29500D01*
Y104273D01*
D02*
G37*
G36*
X337000Y164488D02*
X335838Y164336D01*
X334756Y163887D01*
X333826Y163174D01*
X333113Y162244D01*
X332665Y161162D01*
X332512Y160000D01*
X332665Y158838D01*
X333113Y157756D01*
X333826Y156826D01*
X334756Y156113D01*
X335838Y155665D01*
X337000Y155512D01*
X338162Y155665D01*
X339244Y156113D01*
X340174Y156826D01*
X340887Y157756D01*
X341336Y158838D01*
X341489Y160000D01*
X341336Y161162D01*
X340887Y162244D01*
X340174Y163174D01*
X339244Y163887D01*
X338162Y164336D01*
X337000Y164488D01*
D02*
G37*
G36*
X327000D02*
X325838Y164336D01*
X324756Y163887D01*
X323826Y163174D01*
X323113Y162244D01*
X322665Y161162D01*
X322512Y160000D01*
X322665Y158838D01*
X323113Y157756D01*
X323826Y156826D01*
X324756Y156113D01*
X325838Y155665D01*
X327000Y155512D01*
X328162Y155665D01*
X329244Y156113D01*
X330174Y156826D01*
X330887Y157756D01*
X331335Y158838D01*
X331488Y160000D01*
X331335Y161162D01*
X330887Y162244D01*
X330174Y163174D01*
X329244Y163887D01*
X328162Y164336D01*
X327000Y164488D01*
D02*
G37*
G36*
X282000Y163526D02*
X281217Y163423D01*
X280487Y163121D01*
X279860Y162640D01*
X279380Y162013D01*
X279245Y161689D01*
X278637Y161526D01*
X278513Y161621D01*
X277783Y161923D01*
X277000Y162026D01*
X276217Y161923D01*
X275487Y161621D01*
X274860Y161140D01*
X274380Y160513D01*
X274077Y159783D01*
X273974Y159000D01*
X274077Y158217D01*
X274380Y157487D01*
X274860Y156860D01*
X274961Y156783D01*
Y153717D01*
X274860Y153640D01*
X274380Y153013D01*
X274077Y152283D01*
X273974Y151500D01*
X274077Y150717D01*
X274380Y149987D01*
X274860Y149360D01*
X275487Y148880D01*
X276217Y148577D01*
X277000Y148474D01*
X277783Y148577D01*
X278513Y148880D01*
X279140Y149360D01*
X279250Y149504D01*
X279750D01*
X279860Y149360D01*
X280487Y148880D01*
X281217Y148577D01*
X282000Y148474D01*
X282783Y148577D01*
X283513Y148880D01*
X284140Y149360D01*
X284621Y149987D01*
X284923Y150717D01*
X285026Y151500D01*
X284923Y152283D01*
X284621Y153013D01*
X284140Y153640D01*
X284039Y153717D01*
Y158283D01*
X284140Y158360D01*
X284621Y158987D01*
X284923Y159717D01*
X285026Y160500D01*
X284923Y161283D01*
X284621Y162013D01*
X284140Y162640D01*
X283513Y163121D01*
X282783Y163423D01*
X282000Y163526D01*
D02*
G37*
G36*
X44500Y162026D02*
X43717Y161923D01*
X42987Y161621D01*
X42360Y161140D01*
X41880Y160513D01*
X41577Y159783D01*
X41474Y159000D01*
X41491Y158874D01*
X35144Y152527D01*
X34645Y152560D01*
X34174Y153174D01*
X33244Y153887D01*
X32162Y154335D01*
X31000Y154488D01*
X29838Y154335D01*
X28756Y153887D01*
X27826Y153174D01*
X27113Y152244D01*
X26665Y151162D01*
X26512Y150000D01*
X26665Y148838D01*
X27113Y147756D01*
X27826Y146826D01*
X28756Y146113D01*
X29838Y145665D01*
X31000Y145512D01*
X32162Y145665D01*
X33244Y146113D01*
X34174Y146826D01*
X34887Y147756D01*
X34972Y147961D01*
X35500D01*
X36280Y148116D01*
X36942Y148558D01*
X44374Y155991D01*
X44500Y155974D01*
X45283Y156077D01*
X46013Y156379D01*
X46640Y156860D01*
X47120Y157487D01*
X47423Y158217D01*
X47526Y159000D01*
X47423Y159783D01*
X47120Y160513D01*
X46640Y161140D01*
X46013Y161621D01*
X45283Y161923D01*
X44500Y162026D01*
D02*
G37*
G36*
X229000Y179026D02*
X228217Y178923D01*
X227487Y178621D01*
X226860Y178140D01*
X226380Y177513D01*
X226077Y176783D01*
X225974Y176000D01*
X226077Y175217D01*
X226380Y174487D01*
X226860Y173860D01*
X227487Y173380D01*
X228217Y173077D01*
X229000Y172974D01*
X229444Y173033D01*
X243533Y158944D01*
X243474Y158500D01*
X243577Y157717D01*
X243880Y156987D01*
X244360Y156360D01*
X244987Y155879D01*
X245717Y155577D01*
X246500Y155474D01*
X247283Y155577D01*
X248013Y155879D01*
X248640Y156360D01*
X249121Y156987D01*
X249423Y157717D01*
X249526Y158500D01*
X249423Y159283D01*
X249121Y160013D01*
X248640Y160640D01*
X248013Y161121D01*
X247283Y161423D01*
X246500Y161526D01*
X246056Y161468D01*
X231967Y175556D01*
X232026Y176000D01*
X231923Y176783D01*
X231621Y177513D01*
X231140Y178140D01*
X230513Y178621D01*
X229783Y178923D01*
X229000Y179026D01*
D02*
G37*
G36*
X132000Y166026D02*
X131217Y165923D01*
X130487Y165621D01*
X129860Y165140D01*
X129379Y164513D01*
X129077Y163783D01*
X128974Y163000D01*
X129077Y162217D01*
X129379Y161487D01*
X129860Y160860D01*
X130487Y160380D01*
X131217Y160077D01*
X132000Y159974D01*
X132126Y159991D01*
X134991Y157126D01*
X134974Y157000D01*
X135077Y156217D01*
X135380Y155487D01*
X135860Y154860D01*
X136487Y154379D01*
X137217Y154077D01*
X138000Y153974D01*
X138783Y154077D01*
X139513Y154379D01*
X140140Y154860D01*
X140621Y155487D01*
X140923Y156217D01*
X141026Y157000D01*
X140923Y157783D01*
X140621Y158513D01*
X140140Y159140D01*
X139513Y159621D01*
X138783Y159923D01*
X138000Y160026D01*
X137874Y160009D01*
X135009Y162874D01*
X135026Y163000D01*
X134923Y163783D01*
X134621Y164513D01*
X134140Y165140D01*
X133513Y165621D01*
X132783Y165923D01*
X132000Y166026D01*
D02*
G37*
G36*
X31000Y164488D02*
X29838Y164336D01*
X28756Y163887D01*
X27826Y163174D01*
X27113Y162244D01*
X26665Y161162D01*
X26512Y160000D01*
X26665Y158838D01*
X27113Y157756D01*
X27826Y156826D01*
X28756Y156113D01*
X29838Y155665D01*
X31000Y155512D01*
X32162Y155665D01*
X33244Y156113D01*
X34174Y156826D01*
X34887Y157756D01*
X35335Y158838D01*
X35489Y160000D01*
X35335Y161162D01*
X34887Y162244D01*
X34174Y163174D01*
X33244Y163887D01*
X32162Y164336D01*
X31000Y164488D01*
D02*
G37*
G36*
X21000D02*
X19838Y164336D01*
X18756Y163887D01*
X17826Y163174D01*
X17113Y162244D01*
X16665Y161162D01*
X16512Y160000D01*
X16665Y158838D01*
X17113Y157756D01*
X17826Y156826D01*
X18756Y156113D01*
X19838Y155665D01*
X21000Y155512D01*
X22162Y155665D01*
X23244Y156113D01*
X24174Y156826D01*
X24887Y157756D01*
X25335Y158838D01*
X25488Y160000D01*
X25335Y161162D01*
X24887Y162244D01*
X24174Y163174D01*
X23244Y163887D01*
X22162Y164336D01*
X21000Y164488D01*
D02*
G37*
G36*
X153000Y164026D02*
X152217Y163923D01*
X151487Y163621D01*
X150860Y163140D01*
X150750Y162996D01*
X150250D01*
X150140Y163140D01*
X149513Y163621D01*
X148783Y163923D01*
X148000Y164026D01*
X147217Y163923D01*
X146487Y163621D01*
X145860Y163140D01*
X145379Y162513D01*
X145077Y161783D01*
X144974Y161000D01*
X145077Y160217D01*
X145379Y159487D01*
X145860Y158860D01*
X145961Y158783D01*
Y153217D01*
X145860Y153140D01*
X145379Y152513D01*
X145077Y151783D01*
X144974Y151000D01*
X145077Y150217D01*
X145379Y149487D01*
X145860Y148860D01*
X146487Y148380D01*
X147217Y148077D01*
X148000Y147974D01*
X148783Y148077D01*
X149513Y148380D01*
X150140Y148860D01*
X150250Y149004D01*
X150750D01*
X150860Y148860D01*
X151487Y148380D01*
X152217Y148077D01*
X153000Y147974D01*
X153783Y148077D01*
X154513Y148380D01*
X155140Y148860D01*
X155621Y149487D01*
X155923Y150217D01*
X156026Y151000D01*
X155923Y151783D01*
X155621Y152513D01*
X155140Y153140D01*
X155039Y153217D01*
Y158783D01*
X155140Y158860D01*
X155621Y159487D01*
X155923Y160217D01*
X156026Y161000D01*
X155923Y161783D01*
X155621Y162513D01*
X155140Y163140D01*
X154513Y163621D01*
X153783Y163923D01*
X153000Y164026D01*
D02*
G37*
G36*
X21000Y184488D02*
X19838Y184335D01*
X18756Y183887D01*
X17826Y183174D01*
X17113Y182244D01*
X16665Y181162D01*
X16512Y180000D01*
X16665Y178838D01*
X17113Y177756D01*
X17826Y176826D01*
X18756Y176113D01*
X19838Y175665D01*
X21000Y175512D01*
X22162Y175665D01*
X23244Y176113D01*
X24174Y176826D01*
X24887Y177756D01*
X25335Y178838D01*
X25488Y180000D01*
X25335Y181162D01*
X24887Y182244D01*
X24174Y183174D01*
X23244Y183887D01*
X22162Y184335D01*
X21000Y184488D01*
D02*
G37*
G36*
X337000Y174488D02*
X335838Y174336D01*
X334756Y173887D01*
X333826Y173174D01*
X333113Y172244D01*
X332665Y171162D01*
X332512Y170000D01*
X332665Y168838D01*
X333113Y167756D01*
X333826Y166826D01*
X334756Y166113D01*
X335838Y165665D01*
X337000Y165512D01*
X338162Y165665D01*
X339244Y166113D01*
X340174Y166826D01*
X340887Y167756D01*
X341336Y168838D01*
X341489Y170000D01*
X341336Y171162D01*
X340887Y172244D01*
X340174Y173174D01*
X339244Y173887D01*
X338162Y174336D01*
X337000Y174488D01*
D02*
G37*
G36*
X327000Y184488D02*
X325838Y184335D01*
X324756Y183887D01*
X323826Y183174D01*
X323113Y182244D01*
X322665Y181162D01*
X322512Y180000D01*
X322665Y178838D01*
X323113Y177756D01*
X323826Y176826D01*
X324756Y176113D01*
X325838Y175665D01*
X327000Y175512D01*
X328162Y175665D01*
X329244Y176113D01*
X330174Y176826D01*
X330887Y177756D01*
X331335Y178838D01*
X331488Y180000D01*
X331335Y181162D01*
X330887Y182244D01*
X330174Y183174D01*
X329244Y183887D01*
X328162Y184335D01*
X327000Y184488D01*
D02*
G37*
G36*
X31000D02*
X29838Y184335D01*
X28756Y183887D01*
X27826Y183174D01*
X27113Y182244D01*
X26665Y181162D01*
X26512Y180000D01*
X26665Y178838D01*
X27113Y177756D01*
X27826Y176826D01*
X28756Y176113D01*
X29838Y175665D01*
X31000Y175512D01*
X32162Y175665D01*
X33244Y176113D01*
X34174Y176826D01*
X34887Y177756D01*
X35335Y178838D01*
X35489Y180000D01*
X35335Y181162D01*
X34887Y182244D01*
X34174Y183174D01*
X33244Y183887D01*
X32162Y184335D01*
X31000Y184488D01*
D02*
G37*
G36*
X21000Y174488D02*
X19838Y174336D01*
X18756Y173887D01*
X17826Y173174D01*
X17113Y172244D01*
X16665Y171162D01*
X16512Y170000D01*
X16665Y168838D01*
X17113Y167756D01*
X17826Y166826D01*
X18756Y166113D01*
X19838Y165665D01*
X21000Y165512D01*
X22162Y165665D01*
X23244Y166113D01*
X24174Y166826D01*
X24887Y167756D01*
X25335Y168838D01*
X25488Y170000D01*
X25335Y171162D01*
X24887Y172244D01*
X24174Y173174D01*
X23244Y173887D01*
X22162Y174336D01*
X21000Y174488D01*
D02*
G37*
G36*
X379000Y179156D02*
X377607Y179018D01*
X376268Y178612D01*
X375033Y177952D01*
X373951Y177064D01*
X373063Y175982D01*
X372404Y174748D01*
X371997Y173409D01*
X371860Y172016D01*
X371997Y170623D01*
X372404Y169283D01*
X373063Y168049D01*
X373951Y166967D01*
X375033Y166079D01*
X376268Y165419D01*
X377607Y165013D01*
X379000Y164876D01*
X380393Y165013D01*
X381732Y165419D01*
X382967Y166079D01*
X384049Y166967D01*
X384937Y168049D01*
X385596Y169283D01*
X386003Y170623D01*
X386140Y172016D01*
X386003Y173409D01*
X385596Y174748D01*
X384937Y175982D01*
X384049Y177064D01*
X382967Y177952D01*
X381732Y178612D01*
X380393Y179018D01*
X379000Y179156D01*
D02*
G37*
G36*
X327000Y174488D02*
X325838Y174336D01*
X324756Y173887D01*
X323826Y173174D01*
X323113Y172244D01*
X322665Y171162D01*
X322512Y170000D01*
X322665Y168838D01*
X323113Y167756D01*
X323826Y166826D01*
X324756Y166113D01*
X325838Y165665D01*
X327000Y165512D01*
X328162Y165665D01*
X329244Y166113D01*
X330174Y166826D01*
X330887Y167756D01*
X331335Y168838D01*
X331488Y170000D01*
X331335Y171162D01*
X330887Y172244D01*
X330174Y173174D01*
X329244Y173887D01*
X328162Y174336D01*
X327000Y174488D01*
D02*
G37*
G36*
X31000D02*
X29838Y174336D01*
X28756Y173887D01*
X27826Y173174D01*
X27113Y172244D01*
X26665Y171162D01*
X26512Y170000D01*
X26665Y168838D01*
X27113Y167756D01*
X27826Y166826D01*
X28756Y166113D01*
X29838Y165665D01*
X31000Y165512D01*
X32162Y165665D01*
X33244Y166113D01*
X34174Y166826D01*
X34887Y167756D01*
X35335Y168838D01*
X35489Y170000D01*
X35335Y171162D01*
X34887Y172244D01*
X34174Y173174D01*
X33244Y173887D01*
X32162Y174336D01*
X31000Y174488D01*
D02*
G37*
G36*
X172000Y142026D02*
X171217Y141923D01*
X170487Y141621D01*
X169860Y141140D01*
X169379Y140513D01*
X169077Y139783D01*
X168974Y139000D01*
X169077Y138217D01*
X169379Y137487D01*
X169860Y136860D01*
X170487Y136380D01*
X171217Y136077D01*
X172000Y135974D01*
X172125Y135991D01*
X174991Y133125D01*
X174974Y133000D01*
X175077Y132217D01*
X175380Y131487D01*
X175860Y130860D01*
X176487Y130379D01*
X177217Y130077D01*
X178000Y129974D01*
X178783Y130077D01*
X179513Y130379D01*
X180140Y130860D01*
X180621Y131487D01*
X180923Y132217D01*
X181026Y133000D01*
X180923Y133783D01*
X180621Y134513D01*
X180140Y135140D01*
X179513Y135620D01*
X178783Y135923D01*
X178000Y136026D01*
X177875Y136009D01*
X175009Y138874D01*
X175026Y139000D01*
X174923Y139783D01*
X174620Y140513D01*
X174140Y141140D01*
X173513Y141621D01*
X172783Y141923D01*
X172000Y142026D01*
D02*
G37*
G36*
X296000Y142026D02*
X295217Y141923D01*
X294487Y141621D01*
X293860Y141140D01*
X293380Y140513D01*
X293077Y139783D01*
X292974Y139000D01*
X293077Y138217D01*
X293380Y137487D01*
X293860Y136860D01*
X293961Y136783D01*
Y131217D01*
X293860Y131140D01*
X293380Y130513D01*
X293077Y129783D01*
X292974Y129000D01*
X293077Y128217D01*
X293380Y127487D01*
X293860Y126860D01*
X294487Y126380D01*
X295217Y126077D01*
X296000Y125974D01*
X296783Y126077D01*
X297513Y126380D01*
X298140Y126860D01*
X298621Y127487D01*
X298923Y128217D01*
X299026Y129000D01*
X298923Y129783D01*
X298621Y130513D01*
X298140Y131140D01*
X298039Y131217D01*
Y136783D01*
X298140Y136860D01*
X298621Y137487D01*
X298923Y138217D01*
X299026Y139000D01*
X298923Y139783D01*
X298621Y140513D01*
X298140Y141140D01*
X297513Y141621D01*
X296783Y141923D01*
X296000Y142026D01*
D02*
G37*
G36*
X21000Y144488D02*
X19838Y144335D01*
X18756Y143887D01*
X17826Y143174D01*
X17113Y142244D01*
X16665Y141162D01*
X16512Y140000D01*
X16665Y138838D01*
X17113Y137756D01*
X17826Y136826D01*
X18756Y136113D01*
X19838Y135665D01*
X21000Y135512D01*
X22162Y135665D01*
X23244Y136113D01*
X24174Y136826D01*
X24887Y137756D01*
X25335Y138838D01*
X25488Y140000D01*
X25335Y141162D01*
X24887Y142244D01*
X24174Y143174D01*
X23244Y143887D01*
X22162Y144335D01*
X21000Y144488D01*
D02*
G37*
G36*
X203000Y150026D02*
X202217Y149923D01*
X201487Y149621D01*
X200860Y149140D01*
X200379Y148513D01*
X200077Y147783D01*
X199974Y147000D01*
X200077Y146217D01*
X200379Y145487D01*
X200860Y144860D01*
X200961Y144783D01*
Y136217D01*
X200860Y136140D01*
X200379Y135513D01*
X200077Y134783D01*
X199974Y134000D01*
X200077Y133217D01*
X200379Y132487D01*
X200860Y131860D01*
X201487Y131379D01*
X202217Y131077D01*
X203000Y130974D01*
X203783Y131077D01*
X204513Y131379D01*
X205140Y131860D01*
X205621Y132487D01*
X205923Y133217D01*
X206026Y134000D01*
X205923Y134783D01*
X205621Y135513D01*
X205140Y136140D01*
X205039Y136217D01*
Y144783D01*
X205140Y144860D01*
X205621Y145487D01*
X205923Y146217D01*
X206026Y147000D01*
X205923Y147783D01*
X205621Y148513D01*
X205140Y149140D01*
X204513Y149621D01*
X203783Y149923D01*
X203000Y150026D01*
D02*
G37*
G36*
X31000Y134488D02*
X29838Y134335D01*
X28756Y133887D01*
X27826Y133174D01*
X27113Y132244D01*
X26665Y131162D01*
X26512Y130000D01*
X26665Y128838D01*
X27113Y127756D01*
X27826Y126826D01*
X28756Y126113D01*
X29838Y125665D01*
X31000Y125512D01*
X32162Y125665D01*
X33244Y126113D01*
X34174Y126826D01*
X34887Y127756D01*
X35335Y128838D01*
X35489Y130000D01*
X35335Y131162D01*
X34887Y132244D01*
X34174Y133174D01*
X33244Y133887D01*
X32162Y134335D01*
X31000Y134488D01*
D02*
G37*
G36*
X21000D02*
X19838Y134335D01*
X18756Y133887D01*
X17826Y133174D01*
X17113Y132244D01*
X16665Y131162D01*
X16512Y130000D01*
X16665Y128838D01*
X17113Y127756D01*
X17826Y126826D01*
X18756Y126113D01*
X19838Y125665D01*
X21000Y125512D01*
X22162Y125665D01*
X23244Y126113D01*
X24174Y126826D01*
X24887Y127756D01*
X25335Y128838D01*
X25488Y130000D01*
X25335Y131162D01*
X24887Y132244D01*
X24174Y133174D01*
X23244Y133887D01*
X22162Y134335D01*
X21000Y134488D01*
D02*
G37*
G36*
X337000D02*
X335838Y134335D01*
X334756Y133887D01*
X333826Y133174D01*
X333113Y132244D01*
X332665Y131162D01*
X332512Y130000D01*
X332665Y128838D01*
X333113Y127756D01*
X333826Y126826D01*
X334756Y126113D01*
X335838Y125665D01*
X337000Y125512D01*
X338162Y125665D01*
X339244Y126113D01*
X340174Y126826D01*
X340887Y127756D01*
X341336Y128838D01*
X341489Y130000D01*
X341336Y131162D01*
X340887Y132244D01*
X340174Y133174D01*
X339244Y133887D01*
X338162Y134335D01*
X337000Y134488D01*
D02*
G37*
G36*
X327000D02*
X325838Y134335D01*
X324756Y133887D01*
X323826Y133174D01*
X323113Y132244D01*
X322665Y131162D01*
X322512Y130000D01*
X322665Y128838D01*
X323113Y127756D01*
X323826Y126826D01*
X324756Y126113D01*
X325838Y125665D01*
X327000Y125512D01*
X328162Y125665D01*
X329244Y126113D01*
X330174Y126826D01*
X330887Y127756D01*
X331335Y128838D01*
X331488Y130000D01*
X331335Y131162D01*
X330887Y132244D01*
X330174Y133174D01*
X329244Y133887D01*
X328162Y134335D01*
X327000Y134488D01*
D02*
G37*
G36*
X31000Y144488D02*
X29838Y144335D01*
X28756Y143887D01*
X27826Y143174D01*
X27113Y142244D01*
X26665Y141162D01*
X26512Y140000D01*
X26665Y138838D01*
X27113Y137756D01*
X27826Y136826D01*
X28756Y136113D01*
X29838Y135665D01*
X31000Y135512D01*
X32162Y135665D01*
X33244Y136113D01*
X34174Y136826D01*
X34887Y137756D01*
X35335Y138838D01*
X35489Y140000D01*
X35335Y141162D01*
X34887Y142244D01*
X34174Y143174D01*
X33244Y143887D01*
X32162Y144335D01*
X31000Y144488D01*
D02*
G37*
G36*
X327000Y154488D02*
X325838Y154335D01*
X324756Y153887D01*
X323826Y153174D01*
X323113Y152244D01*
X322665Y151162D01*
X322512Y150000D01*
X322665Y148838D01*
X323113Y147756D01*
X323826Y146826D01*
X324756Y146113D01*
X325838Y145665D01*
X327000Y145512D01*
X328162Y145665D01*
X329244Y146113D01*
X330174Y146826D01*
X330887Y147756D01*
X331335Y148838D01*
X331488Y150000D01*
X331335Y151162D01*
X330887Y152244D01*
X330174Y153174D01*
X329244Y153887D01*
X328162Y154335D01*
X327000Y154488D01*
D02*
G37*
G36*
X21000D02*
X19838Y154335D01*
X18756Y153887D01*
X17826Y153174D01*
X17113Y152244D01*
X16665Y151162D01*
X16512Y150000D01*
X16665Y148838D01*
X17113Y147756D01*
X17826Y146826D01*
X18756Y146113D01*
X19838Y145665D01*
X21000Y145512D01*
X22162Y145665D01*
X23244Y146113D01*
X24174Y146826D01*
X24887Y147756D01*
X25335Y148838D01*
X25488Y150000D01*
X25335Y151162D01*
X24887Y152244D01*
X24174Y153174D01*
X23244Y153887D01*
X22162Y154335D01*
X21000Y154488D01*
D02*
G37*
G36*
X383000Y152245D02*
X382256Y151937D01*
X381326Y151224D01*
X380613Y150294D01*
X380165Y149212D01*
X380071Y148500D01*
X383000D01*
Y152245D01*
D02*
G37*
G36*
X337000Y154488D02*
X335838Y154335D01*
X334756Y153887D01*
X333826Y153174D01*
X333113Y152244D01*
X332665Y151162D01*
X332512Y150000D01*
X332665Y148838D01*
X333113Y147756D01*
X333826Y146826D01*
X334756Y146113D01*
X335838Y145665D01*
X337000Y145512D01*
X338162Y145665D01*
X339244Y146113D01*
X340174Y146826D01*
X340887Y147756D01*
X341336Y148838D01*
X341489Y150000D01*
X341336Y151162D01*
X340887Y152244D01*
X340174Y153174D01*
X339244Y153887D01*
X338162Y154335D01*
X337000Y154488D01*
D02*
G37*
G36*
Y144488D02*
X335838Y144335D01*
X334756Y143887D01*
X333826Y143174D01*
X333113Y142244D01*
X332665Y141162D01*
X332512Y140000D01*
X332665Y138838D01*
X333113Y137756D01*
X333826Y136826D01*
X334756Y136113D01*
X335838Y135665D01*
X337000Y135512D01*
X338162Y135665D01*
X339244Y136113D01*
X340174Y136826D01*
X340887Y137756D01*
X341336Y138838D01*
X341489Y140000D01*
X341336Y141162D01*
X340887Y142244D01*
X340174Y143174D01*
X339244Y143887D01*
X338162Y144335D01*
X337000Y144488D01*
D02*
G37*
G36*
X327000D02*
X325838Y144335D01*
X324756Y143887D01*
X323826Y143174D01*
X323113Y142244D01*
X322665Y141162D01*
X322512Y140000D01*
X322665Y138838D01*
X323113Y137756D01*
X323826Y136826D01*
X324756Y136113D01*
X325838Y135665D01*
X327000Y135512D01*
X328162Y135665D01*
X329244Y136113D01*
X330174Y136826D01*
X330887Y137756D01*
X331335Y138838D01*
X331488Y140000D01*
X331335Y141162D01*
X330887Y142244D01*
X330174Y143174D01*
X329244Y143887D01*
X328162Y144335D01*
X327000Y144488D01*
D02*
G37*
G36*
X383000Y145500D02*
X380071D01*
X380165Y144788D01*
X380613Y143706D01*
X381326Y142776D01*
X382256Y142063D01*
X383000Y141755D01*
Y145500D01*
D02*
G37*
G36*
X374500Y152740D02*
X373286Y152580D01*
X372155Y152112D01*
X371184Y151366D01*
X370438Y150395D01*
X369970Y149264D01*
X369810Y148050D01*
Y145950D01*
X369970Y144736D01*
X370438Y143605D01*
X371184Y142634D01*
X372155Y141888D01*
X373286Y141420D01*
X374500Y141260D01*
X375714Y141420D01*
X376845Y141888D01*
X377816Y142634D01*
X378562Y143605D01*
X379030Y144736D01*
X379190Y145950D01*
Y148050D01*
X379030Y149264D01*
X378562Y150395D01*
X377816Y151366D01*
X376845Y152112D01*
X375714Y152580D01*
X374500Y152740D01*
D02*
G37*
G36*
X277000Y104488D02*
X275838Y104335D01*
X274756Y103887D01*
X273826Y103174D01*
X273113Y102244D01*
X272665Y101162D01*
X272512Y100000D01*
X272665Y98838D01*
X273113Y97756D01*
X273826Y96826D01*
X274756Y96113D01*
X275838Y95665D01*
X277000Y95512D01*
X278162Y95665D01*
X279244Y96113D01*
X280174Y96826D01*
X280887Y97756D01*
X281335Y98838D01*
X281488Y100000D01*
X281335Y101162D01*
X280887Y102244D01*
X280174Y103174D01*
X279244Y103887D01*
X278162Y104335D01*
X277000Y104488D01*
D02*
G37*
G36*
X377000Y46832D02*
Y43000D01*
X380832D01*
X380304Y44274D01*
X379423Y45423D01*
X378274Y46304D01*
X377000Y46832D01*
D02*
G37*
G36*
X374000Y46832D02*
X372726Y46304D01*
X371577Y45423D01*
X370696Y44274D01*
X370168Y43000D01*
X374000D01*
Y46832D01*
D02*
G37*
G36*
X375500Y62249D02*
X374012Y62053D01*
X372625Y61479D01*
X371435Y60565D01*
X370521Y59375D01*
X369947Y57988D01*
X369751Y56500D01*
X369947Y55012D01*
X370521Y53626D01*
X371435Y52435D01*
X372625Y51521D01*
X374012Y50947D01*
X375500Y50751D01*
X376988Y50947D01*
X378375Y51521D01*
X379565Y52435D01*
X380479Y53626D01*
X381053Y55012D01*
X381249Y56500D01*
X381053Y57988D01*
X380479Y59375D01*
X379565Y60565D01*
X378375Y61479D01*
X376988Y62053D01*
X375500Y62249D01*
D02*
G37*
G36*
X329173Y55650D02*
X325827D01*
X325077Y55551D01*
X324378Y55262D01*
X323778Y54801D01*
X323317Y54201D01*
X323027Y53502D01*
X322929Y52752D01*
Y49406D01*
X323027Y48656D01*
X323317Y47956D01*
X323778Y47356D01*
X324378Y46896D01*
X325077Y46606D01*
X325827Y46507D01*
X329173D01*
X329923Y46606D01*
X330622Y46896D01*
X331222Y47356D01*
X331683Y47956D01*
X331973Y48656D01*
X332071Y49406D01*
Y52752D01*
X331973Y53502D01*
X331683Y54201D01*
X331222Y54801D01*
X330622Y55262D01*
X329923Y55551D01*
X329173Y55650D01*
D02*
G37*
G36*
X95638Y32691D02*
X88362D01*
X87558Y32530D01*
X86876Y32074D01*
X86420Y31392D01*
X86260Y30588D01*
Y25412D01*
X86420Y24608D01*
X86876Y23926D01*
X87558Y23470D01*
X88362Y23310D01*
X95638D01*
X96442Y23470D01*
X97124Y23926D01*
X97580Y24608D01*
X97741Y25412D01*
Y30588D01*
X97580Y31392D01*
X97124Y32074D01*
X96442Y32530D01*
X95638Y32691D01*
D02*
G37*
G36*
X248500Y23332D02*
Y19500D01*
X252332D01*
X251804Y20774D01*
X250923Y21923D01*
X249774Y22804D01*
X248500Y23332D01*
D02*
G37*
G36*
X380832Y40000D02*
X377000D01*
Y36168D01*
X378274Y36696D01*
X379423Y37577D01*
X380304Y38726D01*
X380832Y40000D01*
D02*
G37*
G36*
X374000D02*
X370168D01*
X370696Y38726D01*
X371577Y37577D01*
X372726Y36696D01*
X374000Y36168D01*
Y40000D01*
D02*
G37*
G36*
X237000Y63586D02*
X235813Y63429D01*
X234707Y62971D01*
X233757Y62243D01*
X233029Y61293D01*
X232571Y60187D01*
X232414Y59000D01*
X232571Y57813D01*
X233029Y56707D01*
X233757Y55757D01*
X234707Y55029D01*
X235813Y54571D01*
X237000Y54414D01*
X238187Y54571D01*
X239293Y55029D01*
X240243Y55757D01*
X240971Y56707D01*
X241429Y57813D01*
X241586Y59000D01*
X241429Y60187D01*
X240971Y61293D01*
X240243Y62243D01*
X239293Y62971D01*
X238187Y63429D01*
X237000Y63586D01*
D02*
G37*
G36*
X147000Y71240D02*
X145786Y71080D01*
X144655Y70612D01*
X143684Y69867D01*
X142938Y68895D01*
X142470Y67764D01*
X142310Y66550D01*
Y64450D01*
X142470Y63236D01*
X142938Y62105D01*
X143684Y61134D01*
X144655Y60388D01*
X145786Y59920D01*
X147000Y59760D01*
X148214Y59920D01*
X149345Y60388D01*
X150317Y61134D01*
X151062Y62105D01*
X151530Y63236D01*
X151690Y64450D01*
Y66550D01*
X151530Y67764D01*
X151062Y68895D01*
X150317Y69867D01*
X149345Y70612D01*
X148214Y71080D01*
X147000Y71240D01*
D02*
G37*
G36*
X137000D02*
X135786Y71080D01*
X134655Y70612D01*
X133684Y69867D01*
X132938Y68895D01*
X132470Y67764D01*
X132310Y66550D01*
Y64450D01*
X132470Y63236D01*
X132938Y62105D01*
X133684Y61134D01*
X134655Y60388D01*
X135786Y59920D01*
X137000Y59760D01*
X138214Y59920D01*
X139345Y60388D01*
X140316Y61134D01*
X141062Y62105D01*
X141530Y63236D01*
X141690Y64450D01*
Y66550D01*
X141530Y67764D01*
X141062Y68895D01*
X140316Y69867D01*
X139345Y70612D01*
X138214Y71080D01*
X137000Y71240D01*
D02*
G37*
G36*
X167000D02*
X165786Y71080D01*
X164655Y70612D01*
X163684Y69867D01*
X162938Y68895D01*
X162470Y67764D01*
X162310Y66550D01*
Y64450D01*
X162470Y63236D01*
X162938Y62105D01*
X163684Y61134D01*
X164655Y60388D01*
X165786Y59920D01*
X167000Y59760D01*
X168214Y59920D01*
X169345Y60388D01*
X170317Y61134D01*
X171062Y62105D01*
X171530Y63236D01*
X171690Y64450D01*
Y66550D01*
X171530Y67764D01*
X171062Y68895D01*
X170317Y69867D01*
X169345Y70612D01*
X168214Y71080D01*
X167000Y71240D01*
D02*
G37*
G36*
X157000D02*
X155786Y71080D01*
X154655Y70612D01*
X153684Y69867D01*
X152938Y68895D01*
X152470Y67764D01*
X152310Y66550D01*
Y64450D01*
X152470Y63236D01*
X152938Y62105D01*
X153684Y61134D01*
X154655Y60388D01*
X155786Y59920D01*
X157000Y59760D01*
X158214Y59920D01*
X159345Y60388D01*
X160317Y61134D01*
X161062Y62105D01*
X161530Y63236D01*
X161690Y64450D01*
Y66550D01*
X161530Y67764D01*
X161062Y68895D01*
X160317Y69867D01*
X159345Y70612D01*
X158214Y71080D01*
X157000Y71240D01*
D02*
G37*
G36*
X326000Y59421D02*
X323417D01*
X323703Y58729D01*
X324400Y57821D01*
X325308Y57125D01*
X326000Y56838D01*
Y59421D01*
D02*
G37*
G36*
X247000Y63586D02*
X245813Y63429D01*
X244707Y62971D01*
X243757Y62243D01*
X243029Y61293D01*
X242571Y60187D01*
X242414Y59000D01*
X242571Y57813D01*
X243029Y56707D01*
X243757Y55757D01*
X244707Y55029D01*
X245813Y54571D01*
X247000Y54414D01*
X248187Y54571D01*
X249293Y55029D01*
X250243Y55757D01*
X250971Y56707D01*
X251429Y57813D01*
X251586Y59000D01*
X251429Y60187D01*
X250971Y61293D01*
X250243Y62243D01*
X249293Y62971D01*
X248187Y63429D01*
X247000Y63586D01*
D02*
G37*
G36*
X212000Y57530D02*
X211086Y57410D01*
X210768Y57278D01*
X132732D01*
X132414Y57410D01*
X131500Y57530D01*
X130586Y57410D01*
X129735Y57057D01*
X129004Y56496D01*
X128443Y55765D01*
X128090Y54914D01*
X127970Y54000D01*
X128090Y53086D01*
X128443Y52235D01*
X129004Y51504D01*
X129735Y50943D01*
X130586Y50590D01*
X131500Y50470D01*
X132414Y50590D01*
X132732Y50722D01*
X210768D01*
X211086Y50590D01*
X212000Y50470D01*
X212914Y50590D01*
X213765Y50943D01*
X214496Y51504D01*
X215057Y52235D01*
X215410Y53086D01*
X215530Y54000D01*
X215410Y54914D01*
X215057Y55765D01*
X214496Y56496D01*
X213765Y57057D01*
X212914Y57410D01*
X212000Y57530D01*
D02*
G37*
G36*
X331583Y59421D02*
X329000D01*
Y56838D01*
X329692Y57125D01*
X330600Y57821D01*
X331297Y58729D01*
X331583Y59421D01*
D02*
G37*
G36*
X187000Y23749D02*
X185512Y23553D01*
X184125Y22979D01*
X182935Y22065D01*
X182021Y20875D01*
X181447Y19488D01*
X181251Y18000D01*
X181447Y16512D01*
X182021Y15125D01*
X182935Y13935D01*
X184125Y13021D01*
X185512Y12447D01*
X187000Y12251D01*
X188488Y12447D01*
X189875Y13021D01*
X191065Y13935D01*
X191979Y15125D01*
X192553Y16512D01*
X192749Y18000D01*
X192553Y19488D01*
X191979Y20875D01*
X191065Y22065D01*
X189875Y22979D01*
X188488Y23553D01*
X187000Y23749D01*
D02*
G37*
G36*
X172000D02*
X170512Y23553D01*
X169125Y22979D01*
X167935Y22065D01*
X167021Y20875D01*
X166447Y19488D01*
X166251Y18000D01*
X166447Y16512D01*
X167021Y15125D01*
X167935Y13935D01*
X169125Y13021D01*
X170512Y12447D01*
X172000Y12251D01*
X173488Y12447D01*
X174875Y13021D01*
X176065Y13935D01*
X176979Y15125D01*
X177553Y16512D01*
X177749Y18000D01*
X177553Y19488D01*
X176979Y20875D01*
X176065Y22065D01*
X174875Y22979D01*
X173488Y23553D01*
X172000Y23749D01*
D02*
G37*
G36*
X217000D02*
X215512Y23553D01*
X214125Y22979D01*
X212935Y22065D01*
X212021Y20875D01*
X211447Y19488D01*
X211251Y18000D01*
X211447Y16512D01*
X212021Y15125D01*
X212935Y13935D01*
X214125Y13021D01*
X215512Y12447D01*
X217000Y12251D01*
X218488Y12447D01*
X219875Y13021D01*
X221065Y13935D01*
X221979Y15125D01*
X222553Y16512D01*
X222749Y18000D01*
X222553Y19488D01*
X221979Y20875D01*
X221065Y22065D01*
X219875Y22979D01*
X218488Y23553D01*
X217000Y23749D01*
D02*
G37*
G36*
X202000D02*
X200512Y23553D01*
X199125Y22979D01*
X197935Y22065D01*
X197021Y20875D01*
X196447Y19488D01*
X196251Y18000D01*
X196447Y16512D01*
X197021Y15125D01*
X197935Y13935D01*
X199125Y13021D01*
X200512Y12447D01*
X202000Y12251D01*
X203488Y12447D01*
X204875Y13021D01*
X206065Y13935D01*
X206979Y15125D01*
X207553Y16512D01*
X207749Y18000D01*
X207553Y19488D01*
X206979Y20875D01*
X206065Y22065D01*
X204875Y22979D01*
X203488Y23553D01*
X202000Y23749D01*
D02*
G37*
G36*
X127000D02*
X125512Y23553D01*
X124125Y22979D01*
X122935Y22065D01*
X122021Y20875D01*
X121447Y19488D01*
X121251Y18000D01*
X121447Y16512D01*
X122021Y15125D01*
X122935Y13935D01*
X124125Y13021D01*
X125512Y12447D01*
X127000Y12251D01*
X128488Y12447D01*
X129875Y13021D01*
X131065Y13935D01*
X131979Y15125D01*
X132553Y16512D01*
X132749Y18000D01*
X132553Y19488D01*
X131979Y20875D01*
X131065Y22065D01*
X129875Y22979D01*
X128488Y23553D01*
X127000Y23749D01*
D02*
G37*
G36*
X112000D02*
X110512Y23553D01*
X109125Y22979D01*
X107935Y22065D01*
X107021Y20875D01*
X106447Y19488D01*
X106251Y18000D01*
X106447Y16512D01*
X107021Y15125D01*
X107935Y13935D01*
X109125Y13021D01*
X110512Y12447D01*
X112000Y12251D01*
X113488Y12447D01*
X114875Y13021D01*
X116065Y13935D01*
X116979Y15125D01*
X117553Y16512D01*
X117749Y18000D01*
X117553Y19488D01*
X116979Y20875D01*
X116065Y22065D01*
X114875Y22979D01*
X113488Y23553D01*
X112000Y23749D01*
D02*
G37*
G36*
X157000D02*
X155512Y23553D01*
X154125Y22979D01*
X152935Y22065D01*
X152021Y20875D01*
X151447Y19488D01*
X151251Y18000D01*
X151447Y16512D01*
X152021Y15125D01*
X152935Y13935D01*
X154125Y13021D01*
X155512Y12447D01*
X157000Y12251D01*
X158488Y12447D01*
X159875Y13021D01*
X161065Y13935D01*
X161979Y15125D01*
X162553Y16512D01*
X162749Y18000D01*
X162553Y19488D01*
X161979Y20875D01*
X161065Y22065D01*
X159875Y22979D01*
X158488Y23553D01*
X157000Y23749D01*
D02*
G37*
G36*
X142000D02*
X140512Y23553D01*
X139125Y22979D01*
X137935Y22065D01*
X137021Y20875D01*
X136447Y19488D01*
X136251Y18000D01*
X136447Y16512D01*
X137021Y15125D01*
X137935Y13935D01*
X139125Y13021D01*
X140512Y12447D01*
X142000Y12251D01*
X143488Y12447D01*
X144875Y13021D01*
X146065Y13935D01*
X146979Y15125D01*
X147553Y16512D01*
X147749Y18000D01*
X147553Y19488D01*
X146979Y20875D01*
X146065Y22065D01*
X144875Y22979D01*
X143488Y23553D01*
X142000Y23749D01*
D02*
G37*
G36*
X232000D02*
X230512Y23553D01*
X229125Y22979D01*
X227935Y22065D01*
X227021Y20875D01*
X226447Y19488D01*
X226251Y18000D01*
X226447Y16512D01*
X227021Y15125D01*
X227935Y13935D01*
X229125Y13021D01*
X230512Y12447D01*
X232000Y12251D01*
X233488Y12447D01*
X234875Y13021D01*
X236065Y13935D01*
X236979Y15125D01*
X237553Y16512D01*
X237749Y18000D01*
X237553Y19488D01*
X236979Y20875D01*
X236065Y22065D01*
X234875Y22979D01*
X233488Y23553D01*
X232000Y23749D01*
D02*
G37*
G36*
X252332Y16500D02*
X248500D01*
Y12668D01*
X249774Y13196D01*
X250923Y14077D01*
X251804Y15226D01*
X252332Y16500D01*
D02*
G37*
G36*
X245500D02*
X241668D01*
X242196Y15226D01*
X243077Y14077D01*
X244226Y13196D01*
X245500Y12668D01*
Y16500D01*
D02*
G37*
G36*
Y23332D02*
X244226Y22804D01*
X243077Y21923D01*
X242196Y20774D01*
X241668Y19500D01*
X245500D01*
Y23332D01*
D02*
G37*
G36*
X93050Y22690D02*
X90950D01*
X89736Y22530D01*
X88605Y22062D01*
X87634Y21317D01*
X86888Y20345D01*
X86420Y19214D01*
X86260Y18000D01*
X86420Y16786D01*
X86888Y15655D01*
X87634Y14684D01*
X88605Y13938D01*
X89736Y13470D01*
X90950Y13310D01*
X93050D01*
X94264Y13470D01*
X95395Y13938D01*
X96367Y14684D01*
X97112Y15655D01*
X97580Y16786D01*
X97740Y18000D01*
X97580Y19214D01*
X97112Y20345D01*
X96367Y21317D01*
X95395Y22062D01*
X94264Y22530D01*
X93050Y22690D01*
D02*
G37*
G36*
X292000Y23749D02*
X290512Y23553D01*
X289125Y22979D01*
X287935Y22065D01*
X287021Y20875D01*
X286447Y19488D01*
X286251Y18000D01*
X286447Y16512D01*
X287021Y15125D01*
X287935Y13935D01*
X289125Y13021D01*
X290512Y12447D01*
X292000Y12251D01*
X293488Y12447D01*
X294875Y13021D01*
X296065Y13935D01*
X296979Y15125D01*
X297553Y16512D01*
X297749Y18000D01*
X297553Y19488D01*
X296979Y20875D01*
X296065Y22065D01*
X294875Y22979D01*
X293488Y23553D01*
X292000Y23749D01*
D02*
G37*
G36*
X277000D02*
X275512Y23553D01*
X274126Y22979D01*
X272935Y22065D01*
X272021Y20875D01*
X271447Y19488D01*
X271251Y18000D01*
X271447Y16512D01*
X272021Y15125D01*
X272935Y13935D01*
X274126Y13021D01*
X275512Y12447D01*
X277000Y12251D01*
X278488Y12447D01*
X279875Y13021D01*
X281065Y13935D01*
X281979Y15125D01*
X282553Y16512D01*
X282749Y18000D01*
X282553Y19488D01*
X281979Y20875D01*
X281065Y22065D01*
X279875Y22979D01*
X278488Y23553D01*
X277000Y23749D01*
D02*
G37*
G36*
X327500D02*
X326012Y23553D01*
X324625Y22979D01*
X323435Y22065D01*
X322521Y20875D01*
X321947Y19488D01*
X321751Y18000D01*
X321947Y16512D01*
X322521Y15125D01*
X323435Y13935D01*
X324625Y13021D01*
X326012Y12447D01*
X327500Y12251D01*
X328988Y12447D01*
X330375Y13021D01*
X331565Y13935D01*
X332479Y15125D01*
X333053Y16512D01*
X333249Y18000D01*
X333053Y19488D01*
X332479Y20875D01*
X331565Y22065D01*
X330375Y22979D01*
X328988Y23553D01*
X327500Y23749D01*
D02*
G37*
G36*
X312500D02*
X311012Y23553D01*
X309626Y22979D01*
X308435Y22065D01*
X307521Y20875D01*
X306947Y19488D01*
X306751Y18000D01*
X306947Y16512D01*
X307521Y15125D01*
X308435Y13935D01*
X309626Y13021D01*
X311012Y12447D01*
X312500Y12251D01*
X313988Y12447D01*
X315375Y13021D01*
X316565Y13935D01*
X317479Y15125D01*
X318053Y16512D01*
X318249Y18000D01*
X318053Y19488D01*
X317479Y20875D01*
X316565Y22065D01*
X315375Y22979D01*
X313988Y23553D01*
X312500Y23749D01*
D02*
G37*
G36*
X137000Y104488D02*
X135838Y104335D01*
X134756Y103887D01*
X133826Y103174D01*
X133113Y102244D01*
X132665Y101162D01*
X132512Y100000D01*
X132665Y98838D01*
X133113Y97756D01*
X133826Y96826D01*
X134756Y96113D01*
X135838Y95665D01*
X137000Y95512D01*
X138162Y95665D01*
X139244Y96113D01*
X140174Y96826D01*
X140887Y97756D01*
X141335Y98838D01*
X141488Y100000D01*
X141335Y101162D01*
X140887Y102244D01*
X140174Y103174D01*
X139244Y103887D01*
X138162Y104335D01*
X137000Y104488D01*
D02*
G37*
G36*
X107000D02*
X105838Y104335D01*
X104756Y103887D01*
X103826Y103174D01*
X103113Y102244D01*
X102665Y101162D01*
X102512Y100000D01*
X102665Y98838D01*
X103113Y97756D01*
X103826Y96826D01*
X104756Y96113D01*
X105838Y95665D01*
X107000Y95512D01*
X108162Y95665D01*
X109244Y96113D01*
X110174Y96826D01*
X110887Y97756D01*
X111336Y98838D01*
X111488Y100000D01*
X111336Y101162D01*
X110887Y102244D01*
X110174Y103174D01*
X109244Y103887D01*
X108162Y104335D01*
X107000Y104488D01*
D02*
G37*
G36*
X167000D02*
X165838Y104335D01*
X164756Y103887D01*
X163826Y103174D01*
X163113Y102244D01*
X162665Y101162D01*
X162512Y100000D01*
X162665Y98838D01*
X163113Y97756D01*
X163826Y96826D01*
X164756Y96113D01*
X165838Y95665D01*
X167000Y95512D01*
X168162Y95665D01*
X169244Y96113D01*
X170174Y96826D01*
X170887Y97756D01*
X171335Y98838D01*
X171488Y100000D01*
X171335Y101162D01*
X170887Y102244D01*
X170174Y103174D01*
X169244Y103887D01*
X168162Y104335D01*
X167000Y104488D01*
D02*
G37*
G36*
X157000D02*
X155838Y104335D01*
X154756Y103887D01*
X153826Y103174D01*
X153113Y102244D01*
X152665Y101162D01*
X152512Y100000D01*
X152665Y98838D01*
X153113Y97756D01*
X153826Y96826D01*
X154756Y96113D01*
X155838Y95665D01*
X157000Y95512D01*
X158162Y95665D01*
X159244Y96113D01*
X160174Y96826D01*
X160887Y97756D01*
X161336Y98838D01*
X161488Y100000D01*
X161336Y101162D01*
X160887Y102244D01*
X160174Y103174D01*
X159244Y103887D01*
X158162Y104335D01*
X157000Y104488D01*
D02*
G37*
G36*
X89438Y104490D02*
X84562D01*
X83777Y104333D01*
X83112Y103888D01*
X82667Y103223D01*
X82511Y102438D01*
Y97562D01*
X82667Y96777D01*
X83112Y96112D01*
X83777Y95667D01*
X84562Y95511D01*
X89438D01*
X90223Y95667D01*
X90889Y96112D01*
X91333Y96777D01*
X91489Y97562D01*
Y102438D01*
X91333Y103223D01*
X90889Y103888D01*
X90223Y104333D01*
X89438Y104490D01*
D02*
G37*
G36*
X375500Y98249D02*
X374012Y98053D01*
X372625Y97479D01*
X371435Y96565D01*
X370521Y95375D01*
X369947Y93988D01*
X369751Y92500D01*
X369947Y91012D01*
X370521Y89626D01*
X371435Y88435D01*
X372625Y87521D01*
X374012Y86947D01*
X375500Y86751D01*
X376988Y86947D01*
X378375Y87521D01*
X379565Y88435D01*
X380479Y89626D01*
X381053Y91012D01*
X381249Y92500D01*
X381053Y93988D01*
X380479Y95375D01*
X379565Y96565D01*
X378375Y97479D01*
X376988Y98053D01*
X375500Y98249D01*
D02*
G37*
G36*
X97000Y104488D02*
X95838Y104335D01*
X94756Y103887D01*
X93826Y103174D01*
X93113Y102244D01*
X92665Y101162D01*
X92512Y100000D01*
X92665Y98838D01*
X93113Y97756D01*
X93826Y96826D01*
X94756Y96113D01*
X95838Y95665D01*
X97000Y95512D01*
X98162Y95665D01*
X99244Y96113D01*
X100174Y96826D01*
X100887Y97756D01*
X101336Y98838D01*
X101488Y100000D01*
X101336Y101162D01*
X100887Y102244D01*
X100174Y103174D01*
X99244Y103887D01*
X98162Y104335D01*
X97000Y104488D01*
D02*
G37*
G36*
X21000D02*
X19838Y104335D01*
X18756Y103887D01*
X17826Y103174D01*
X17113Y102244D01*
X16665Y101162D01*
X16512Y100000D01*
X16665Y98838D01*
X17113Y97756D01*
X17826Y96826D01*
X18756Y96113D01*
X19838Y95665D01*
X21000Y95512D01*
X22162Y95665D01*
X23244Y96113D01*
X24174Y96826D01*
X24887Y97756D01*
X25335Y98838D01*
X25488Y100000D01*
X25335Y101162D01*
X24887Y102244D01*
X24174Y103174D01*
X23244Y103887D01*
X22162Y104335D01*
X21000Y104488D01*
D02*
G37*
G36*
X177000D02*
X175838Y104335D01*
X174756Y103887D01*
X173826Y103174D01*
X173113Y102244D01*
X172665Y101162D01*
X172512Y100000D01*
X172665Y98838D01*
X173113Y97756D01*
X173826Y96826D01*
X174756Y96113D01*
X175838Y95665D01*
X177000Y95512D01*
X178162Y95665D01*
X179244Y96113D01*
X180174Y96826D01*
X180887Y97756D01*
X181335Y98838D01*
X181488Y100000D01*
X181335Y101162D01*
X180887Y102244D01*
X180174Y103174D01*
X179244Y103887D01*
X178162Y104335D01*
X177000Y104488D01*
D02*
G37*
G36*
X247000D02*
X245838Y104335D01*
X244756Y103887D01*
X243826Y103174D01*
X243113Y102244D01*
X242665Y101162D01*
X242512Y100000D01*
X242665Y98838D01*
X243113Y97756D01*
X243826Y96826D01*
X244756Y96113D01*
X245838Y95665D01*
X247000Y95512D01*
X248162Y95665D01*
X249244Y96113D01*
X250174Y96826D01*
X250887Y97756D01*
X251336Y98838D01*
X251488Y100000D01*
X251336Y101162D01*
X250887Y102244D01*
X250174Y103174D01*
X249244Y103887D01*
X248162Y104335D01*
X247000Y104488D01*
D02*
G37*
G36*
X227000D02*
X225838Y104335D01*
X224756Y103887D01*
X223826Y103174D01*
X223113Y102244D01*
X222665Y101162D01*
X222512Y100000D01*
X222665Y98838D01*
X223113Y97756D01*
X223826Y96826D01*
X224756Y96113D01*
X225838Y95665D01*
X227000Y95512D01*
X228162Y95665D01*
X229244Y96113D01*
X230174Y96826D01*
X230887Y97756D01*
X231335Y98838D01*
X231488Y100000D01*
X231335Y101162D01*
X230887Y102244D01*
X230174Y103174D01*
X229244Y103887D01*
X228162Y104335D01*
X227000Y104488D01*
D02*
G37*
G36*
X267000D02*
X265838Y104335D01*
X264756Y103887D01*
X263826Y103174D01*
X263113Y102244D01*
X262665Y101162D01*
X262512Y100000D01*
X262665Y98838D01*
X263113Y97756D01*
X263826Y96826D01*
X264756Y96113D01*
X265838Y95665D01*
X267000Y95512D01*
X268162Y95665D01*
X269244Y96113D01*
X270174Y96826D01*
X270887Y97756D01*
X271336Y98838D01*
X271488Y100000D01*
X271336Y101162D01*
X270887Y102244D01*
X270174Y103174D01*
X269244Y103887D01*
X268162Y104335D01*
X267000Y104488D01*
D02*
G37*
G36*
X257000D02*
X255838Y104335D01*
X254756Y103887D01*
X253826Y103174D01*
X253113Y102244D01*
X252665Y101162D01*
X252512Y100000D01*
X252665Y98838D01*
X253113Y97756D01*
X253826Y96826D01*
X254756Y96113D01*
X255838Y95665D01*
X257000Y95512D01*
X258162Y95665D01*
X259244Y96113D01*
X260174Y96826D01*
X260887Y97756D01*
X261335Y98838D01*
X261489Y100000D01*
X261335Y101162D01*
X260887Y102244D01*
X260174Y103174D01*
X259244Y103887D01*
X258162Y104335D01*
X257000Y104488D01*
D02*
G37*
G36*
X197000D02*
X195838Y104335D01*
X194756Y103887D01*
X193826Y103174D01*
X193113Y102244D01*
X192665Y101162D01*
X192512Y100000D01*
X192665Y98838D01*
X193113Y97756D01*
X193826Y96826D01*
X194756Y96113D01*
X195838Y95665D01*
X197000Y95512D01*
X198162Y95665D01*
X199244Y96113D01*
X200174Y96826D01*
X200887Y97756D01*
X201336Y98838D01*
X201488Y100000D01*
X201336Y101162D01*
X200887Y102244D01*
X200174Y103174D01*
X199244Y103887D01*
X198162Y104335D01*
X197000Y104488D01*
D02*
G37*
G36*
X187000D02*
X185838Y104335D01*
X184756Y103887D01*
X183826Y103174D01*
X183113Y102244D01*
X182665Y101162D01*
X182512Y100000D01*
X182665Y98838D01*
X183113Y97756D01*
X183826Y96826D01*
X184756Y96113D01*
X185838Y95665D01*
X187000Y95512D01*
X188162Y95665D01*
X189244Y96113D01*
X190174Y96826D01*
X190887Y97756D01*
X191335Y98838D01*
X191488Y100000D01*
X191335Y101162D01*
X190887Y102244D01*
X190174Y103174D01*
X189244Y103887D01*
X188162Y104335D01*
X187000Y104488D01*
D02*
G37*
G36*
X217000D02*
X215838Y104335D01*
X214756Y103887D01*
X213826Y103174D01*
X213113Y102244D01*
X212665Y101162D01*
X212512Y100000D01*
X212665Y98838D01*
X213113Y97756D01*
X213826Y96826D01*
X214756Y96113D01*
X215838Y95665D01*
X217000Y95512D01*
X218162Y95665D01*
X219244Y96113D01*
X220174Y96826D01*
X220887Y97756D01*
X221336Y98838D01*
X221488Y100000D01*
X221336Y101162D01*
X220887Y102244D01*
X220174Y103174D01*
X219244Y103887D01*
X218162Y104335D01*
X217000Y104488D01*
D02*
G37*
G36*
X207000D02*
X205838Y104335D01*
X204756Y103887D01*
X203826Y103174D01*
X203113Y102244D01*
X202665Y101162D01*
X202512Y100000D01*
X202665Y98838D01*
X203113Y97756D01*
X203826Y96826D01*
X204756Y96113D01*
X205838Y95665D01*
X207000Y95512D01*
X208162Y95665D01*
X209244Y96113D01*
X210174Y96826D01*
X210887Y97756D01*
X211335Y98838D01*
X211489Y100000D01*
X211335Y101162D01*
X210887Y102244D01*
X210174Y103174D01*
X209244Y103887D01*
X208162Y104335D01*
X207000Y104488D01*
D02*
G37*
G36*
X125500Y64000D02*
X122514D01*
Y61862D01*
X122658Y61136D01*
X123070Y60520D01*
X123686Y60108D01*
X124413Y59964D01*
X125500D01*
Y64000D01*
D02*
G37*
G36*
X217000Y71240D02*
X215786Y71080D01*
X214655Y70612D01*
X213684Y69867D01*
X212938Y68895D01*
X212470Y67764D01*
X212310Y66550D01*
Y64450D01*
X212470Y63236D01*
X212938Y62105D01*
X213684Y61134D01*
X214655Y60388D01*
X215786Y59920D01*
X217000Y59760D01*
X218214Y59920D01*
X219345Y60388D01*
X220317Y61134D01*
X221062Y62105D01*
X221530Y63236D01*
X221690Y64450D01*
Y66550D01*
X221530Y67764D01*
X221062Y68895D01*
X220317Y69867D01*
X219345Y70612D01*
X218214Y71080D01*
X217000Y71240D01*
D02*
G37*
G36*
X326000Y65004D02*
X325308Y64718D01*
X324400Y64021D01*
X323703Y63113D01*
X323417Y62421D01*
X326000D01*
Y65004D01*
D02*
G37*
G36*
X131486Y64000D02*
X128500D01*
Y59964D01*
X129588D01*
X130314Y60108D01*
X130930Y60520D01*
X131342Y61136D01*
X131486Y61862D01*
Y64000D01*
D02*
G37*
G36*
X187000Y71240D02*
X185786Y71080D01*
X184655Y70612D01*
X183684Y69867D01*
X182938Y68895D01*
X182470Y67764D01*
X182310Y66550D01*
Y64450D01*
X182470Y63236D01*
X182938Y62105D01*
X183684Y61134D01*
X184655Y60388D01*
X185786Y59920D01*
X187000Y59760D01*
X188214Y59920D01*
X189345Y60388D01*
X190316Y61134D01*
X191062Y62105D01*
X191530Y63236D01*
X191690Y64450D01*
Y66550D01*
X191530Y67764D01*
X191062Y68895D01*
X190316Y69867D01*
X189345Y70612D01*
X188214Y71080D01*
X187000Y71240D01*
D02*
G37*
G36*
X177000D02*
X175786Y71080D01*
X174655Y70612D01*
X173684Y69867D01*
X172938Y68895D01*
X172470Y67764D01*
X172310Y66550D01*
Y64450D01*
X172470Y63236D01*
X172938Y62105D01*
X173684Y61134D01*
X174655Y60388D01*
X175786Y59920D01*
X177000Y59760D01*
X178214Y59920D01*
X179345Y60388D01*
X180316Y61134D01*
X181062Y62105D01*
X181530Y63236D01*
X181690Y64450D01*
Y66550D01*
X181530Y67764D01*
X181062Y68895D01*
X180316Y69867D01*
X179345Y70612D01*
X178214Y71080D01*
X177000Y71240D01*
D02*
G37*
G36*
X207000D02*
X205786Y71080D01*
X204655Y70612D01*
X203684Y69867D01*
X202938Y68895D01*
X202470Y67764D01*
X202310Y66550D01*
Y64450D01*
X202470Y63236D01*
X202938Y62105D01*
X203684Y61134D01*
X204655Y60388D01*
X205786Y59920D01*
X207000Y59760D01*
X208214Y59920D01*
X209345Y60388D01*
X210316Y61134D01*
X211062Y62105D01*
X211530Y63236D01*
X211690Y64450D01*
Y66550D01*
X211530Y67764D01*
X211062Y68895D01*
X210316Y69867D01*
X209345Y70612D01*
X208214Y71080D01*
X207000Y71240D01*
D02*
G37*
G36*
X197000D02*
X195786Y71080D01*
X194655Y70612D01*
X193684Y69867D01*
X192938Y68895D01*
X192470Y67764D01*
X192310Y66550D01*
Y64450D01*
X192470Y63236D01*
X192938Y62105D01*
X193684Y61134D01*
X194655Y60388D01*
X195786Y59920D01*
X197000Y59760D01*
X198214Y59920D01*
X199345Y60388D01*
X200317Y61134D01*
X201062Y62105D01*
X201530Y63236D01*
X201690Y64450D01*
Y66550D01*
X201530Y67764D01*
X201062Y68895D01*
X200317Y69867D01*
X199345Y70612D01*
X198214Y71080D01*
X197000Y71240D01*
D02*
G37*
G36*
X329000Y65004D02*
Y62421D01*
X331583D01*
X331297Y63113D01*
X330600Y64021D01*
X329692Y64718D01*
X329000Y65004D01*
D02*
G37*
G36*
X377000Y82832D02*
Y79000D01*
X380832D01*
X380304Y80274D01*
X379423Y81423D01*
X378274Y82304D01*
X377000Y82832D01*
D02*
G37*
G36*
X374000Y82832D02*
X372726Y82304D01*
X371577Y81423D01*
X370696Y80274D01*
X370168Y79000D01*
X374000D01*
Y82832D01*
D02*
G37*
G36*
X267000Y89862D02*
X265904Y89718D01*
X264882Y89295D01*
X264005Y88621D01*
X263331Y87744D01*
X262908Y86722D01*
X262764Y85626D01*
X262908Y84530D01*
X263331Y83508D01*
X264005Y82631D01*
X264882Y81957D01*
X265904Y81534D01*
X267000Y81390D01*
X268096Y81534D01*
X269118Y81957D01*
X269995Y82631D01*
X270669Y83508D01*
X271092Y84530D01*
X271236Y85626D01*
X271092Y86722D01*
X270669Y87744D01*
X269995Y88621D01*
X269118Y89295D01*
X268096Y89718D01*
X267000Y89862D01*
D02*
G37*
G36*
X257000D02*
X255904Y89718D01*
X254882Y89295D01*
X254005Y88621D01*
X253331Y87744D01*
X252908Y86722D01*
X252764Y85626D01*
X252908Y84530D01*
X253331Y83508D01*
X254005Y82631D01*
X254882Y81957D01*
X255904Y81534D01*
X257000Y81390D01*
X258097Y81534D01*
X259118Y81957D01*
X259996Y82631D01*
X260669Y83508D01*
X261092Y84530D01*
X261236Y85626D01*
X261092Y86722D01*
X260669Y87744D01*
X259996Y88621D01*
X259118Y89295D01*
X258097Y89718D01*
X257000Y89862D01*
D02*
G37*
G36*
X129588Y71036D02*
X128500D01*
Y67000D01*
X131486D01*
Y69138D01*
X131342Y69864D01*
X130930Y70480D01*
X130314Y70892D01*
X129588Y71036D01*
D02*
G37*
G36*
X125500D02*
X124413D01*
X123686Y70892D01*
X123070Y70480D01*
X122658Y69864D01*
X122514Y69138D01*
Y67000D01*
X125500D01*
Y71036D01*
D02*
G37*
G36*
X380832Y76000D02*
X377000D01*
Y72168D01*
X378274Y72696D01*
X379423Y73577D01*
X380304Y74726D01*
X380832Y76000D01*
D02*
G37*
G36*
X374000D02*
X370168D01*
X370696Y74726D01*
X371577Y73577D01*
X372726Y72696D01*
X374000Y72168D01*
Y76000D01*
D02*
G37*
G36*
X59421Y321583D02*
X58729Y321297D01*
X57821Y320600D01*
X57125Y319692D01*
X56838Y319000D01*
X59421D01*
Y321583D01*
D02*
G37*
G36*
X65004Y316000D02*
X62421D01*
Y313417D01*
X63113Y313703D01*
X64021Y314400D01*
X64718Y315308D01*
X65004Y316000D01*
D02*
G37*
G36*
X16500Y341749D02*
X15012Y341553D01*
X13625Y340979D01*
X12435Y340065D01*
X11521Y338875D01*
X10947Y337488D01*
X10751Y336000D01*
X10947Y334512D01*
X11521Y333125D01*
X12435Y331935D01*
X13625Y331021D01*
X15012Y330447D01*
X16500Y330251D01*
X17988Y330447D01*
X19375Y331021D01*
X20565Y331935D01*
X21479Y333125D01*
X22053Y334512D01*
X22249Y336000D01*
X22053Y337488D01*
X21479Y338875D01*
X20565Y340065D01*
X19375Y340979D01*
X17988Y341553D01*
X16500Y341749D01*
D02*
G37*
G36*
X62421Y321583D02*
Y319000D01*
X65004D01*
X64718Y319692D01*
X64021Y320600D01*
X63113Y321297D01*
X62421Y321583D01*
D02*
G37*
G36*
X379500Y305026D02*
X378717Y304923D01*
X377987Y304621D01*
X377360Y304140D01*
X376970Y303631D01*
X369530D01*
X369140Y304140D01*
X368513Y304621D01*
X367783Y304923D01*
X367000Y305026D01*
X366217Y304923D01*
X365487Y304621D01*
X364860Y304140D01*
X364380Y303513D01*
X364077Y302783D01*
X363974Y302000D01*
X364077Y301217D01*
X364380Y300487D01*
X364860Y299860D01*
X365487Y299379D01*
X366217Y299077D01*
X367000Y298974D01*
X367783Y299077D01*
X368513Y299379D01*
X369140Y299860D01*
X369530Y300369D01*
X376970D01*
X377360Y299860D01*
X377987Y299379D01*
X378717Y299077D01*
X379500Y298974D01*
X380283Y299077D01*
X381013Y299379D01*
X381640Y299860D01*
X382120Y300487D01*
X382423Y301217D01*
X382526Y302000D01*
X382423Y302783D01*
X382120Y303513D01*
X381640Y304140D01*
X381013Y304621D01*
X380283Y304923D01*
X379500Y305026D01*
D02*
G37*
G36*
X303870Y297631D02*
X293000D01*
X292376Y297507D01*
X291846Y297153D01*
X288775Y294082D01*
X288162Y294336D01*
X287000Y294489D01*
X285838Y294336D01*
X284756Y293887D01*
X283826Y293174D01*
X283113Y292244D01*
X282665Y291162D01*
X282512Y290000D01*
X282665Y288838D01*
X283113Y287756D01*
X283826Y286826D01*
X284756Y286113D01*
X285838Y285665D01*
X287000Y285512D01*
X288162Y285665D01*
X289244Y286113D01*
X290174Y286826D01*
X290887Y287756D01*
X291336Y288838D01*
X291489Y290000D01*
X291336Y291162D01*
X291082Y291775D01*
X293676Y294369D01*
X294538D01*
X294736Y293920D01*
X294732Y293869D01*
X293826Y293174D01*
X293113Y292244D01*
X292665Y291162D01*
X292512Y290000D01*
X292665Y288838D01*
X293113Y287756D01*
X293826Y286826D01*
X294756Y286113D01*
X295838Y285665D01*
X297000Y285512D01*
X298162Y285665D01*
X299244Y286113D01*
X300174Y286826D01*
X300887Y287756D01*
X301336Y288838D01*
X301488Y290000D01*
X301336Y291162D01*
X300887Y292244D01*
X300174Y293174D01*
X299268Y293869D01*
X299265Y293920D01*
X299462Y294369D01*
X303194D01*
X303928Y293635D01*
X303844Y293000D01*
X303947Y292217D01*
X304250Y291487D01*
X304731Y290860D01*
X305357Y290380D01*
X306087Y290077D01*
X306870Y289974D01*
X307653Y290077D01*
X308383Y290380D01*
X309010Y290860D01*
X309491Y291487D01*
X309793Y292217D01*
X309896Y293000D01*
X309793Y293783D01*
X309491Y294513D01*
X309010Y295140D01*
X308383Y295620D01*
X307653Y295923D01*
X306870Y296026D01*
X306235Y295942D01*
X305024Y297153D01*
X304494Y297507D01*
X303870Y297631D01*
D02*
G37*
G36*
X59421Y316000D02*
X56838D01*
X57125Y315308D01*
X57821Y314400D01*
X58729Y313703D01*
X59421Y313417D01*
Y316000D01*
D02*
G37*
G36*
X52752Y322071D02*
X49406D01*
X48655Y321972D01*
X47956Y321683D01*
X47356Y321222D01*
X46896Y320622D01*
X46606Y319923D01*
X46507Y319173D01*
Y315827D01*
X46606Y315077D01*
X46896Y314378D01*
X47356Y313778D01*
X47956Y313317D01*
X48655Y313028D01*
X49406Y312929D01*
X52752D01*
X53502Y313028D01*
X54201Y313317D01*
X54801Y313778D01*
X55262Y314378D01*
X55551Y315077D01*
X55650Y315827D01*
Y319173D01*
X55551Y319923D01*
X55262Y320622D01*
X54801Y321222D01*
X54201Y321683D01*
X53502Y321972D01*
X52752Y322071D01*
D02*
G37*
G36*
X240711Y346963D02*
X237623D01*
Y345939D01*
X237743Y345338D01*
X238084Y344828D01*
X238594Y344487D01*
X239195Y344368D01*
X240711D01*
Y346963D01*
D02*
G37*
G36*
X285711D02*
X282623D01*
Y345939D01*
X282743Y345338D01*
X283084Y344828D01*
X283594Y344487D01*
X284195Y344368D01*
X285711D01*
Y346963D01*
D02*
G37*
G36*
X274999D02*
X271911D01*
Y344368D01*
X273427D01*
X274029Y344487D01*
X274538Y344828D01*
X274879Y345338D01*
X274999Y345939D01*
Y346963D01*
D02*
G37*
G36*
X300711D02*
X297623D01*
Y345939D01*
X297743Y345338D01*
X298084Y344828D01*
X298593Y344487D01*
X299195Y344368D01*
X300711D01*
Y346963D01*
D02*
G37*
G36*
X289999D02*
X286911D01*
Y344368D01*
X288427D01*
X289029Y344487D01*
X289539Y344828D01*
X289879Y345338D01*
X289999Y345939D01*
Y346963D01*
D02*
G37*
G36*
X255711D02*
X252623D01*
Y345939D01*
X252743Y345338D01*
X253084Y344828D01*
X253593Y344487D01*
X254195Y344368D01*
X255711D01*
Y346963D01*
D02*
G37*
G36*
X244999D02*
X241911D01*
Y344368D01*
X243427D01*
X244029Y344487D01*
X244538Y344828D01*
X244879Y345338D01*
X244999Y345939D01*
Y346963D01*
D02*
G37*
G36*
X270711D02*
X267623D01*
Y345939D01*
X267743Y345338D01*
X268084Y344828D01*
X268594Y344487D01*
X269195Y344368D01*
X270711D01*
Y346963D01*
D02*
G37*
G36*
X259999D02*
X256911D01*
Y344368D01*
X258427D01*
X259029Y344487D01*
X259539Y344828D01*
X259879Y345338D01*
X259999Y345939D01*
Y346963D01*
D02*
G37*
G36*
X227000Y294489D02*
X225838Y294336D01*
X224756Y293887D01*
X223826Y293174D01*
X223113Y292244D01*
X222665Y291162D01*
X222512Y290000D01*
X222665Y288838D01*
X223113Y287756D01*
X223826Y286826D01*
X224756Y286113D01*
X225838Y285665D01*
X227000Y285512D01*
X228162Y285665D01*
X229244Y286113D01*
X230174Y286826D01*
X230887Y287756D01*
X231335Y288838D01*
X231488Y290000D01*
X231335Y291162D01*
X230887Y292244D01*
X230174Y293174D01*
X229244Y293887D01*
X228162Y294336D01*
X227000Y294489D01*
D02*
G37*
G36*
X207000D02*
X205838Y294336D01*
X204756Y293887D01*
X203826Y293174D01*
X203113Y292244D01*
X202665Y291162D01*
X202512Y290000D01*
X202665Y288838D01*
X203113Y287756D01*
X203826Y286826D01*
X204756Y286113D01*
X205838Y285665D01*
X207000Y285512D01*
X208162Y285665D01*
X209244Y286113D01*
X210174Y286826D01*
X210887Y287756D01*
X211335Y288838D01*
X211489Y290000D01*
X211335Y291162D01*
X210887Y292244D01*
X210174Y293174D01*
X209244Y293887D01*
X208162Y294336D01*
X207000Y294489D01*
D02*
G37*
G36*
X247000D02*
X245838Y294336D01*
X244756Y293887D01*
X243826Y293174D01*
X243113Y292244D01*
X242665Y291162D01*
X242512Y290000D01*
X242665Y288838D01*
X243113Y287756D01*
X243826Y286826D01*
X244756Y286113D01*
X245838Y285665D01*
X247000Y285512D01*
X248162Y285665D01*
X249244Y286113D01*
X250174Y286826D01*
X250887Y287756D01*
X251336Y288838D01*
X251488Y290000D01*
X251336Y291162D01*
X250887Y292244D01*
X250174Y293174D01*
X249244Y293887D01*
X248162Y294336D01*
X247000Y294489D01*
D02*
G37*
G36*
X237000D02*
X235838Y294336D01*
X234756Y293887D01*
X233826Y293174D01*
X233113Y292244D01*
X232665Y291162D01*
X232512Y290000D01*
X232665Y288838D01*
X233113Y287756D01*
X233826Y286826D01*
X234756Y286113D01*
X235838Y285665D01*
X237000Y285512D01*
X238162Y285665D01*
X239244Y286113D01*
X240174Y286826D01*
X240887Y287756D01*
X241336Y288838D01*
X241489Y290000D01*
X241336Y291162D01*
X240887Y292244D01*
X240174Y293174D01*
X239244Y293887D01*
X238162Y294336D01*
X237000Y294489D01*
D02*
G37*
G36*
X177000D02*
X175838Y294336D01*
X174756Y293887D01*
X173826Y293174D01*
X173113Y292244D01*
X172665Y291162D01*
X172512Y290000D01*
X172665Y288838D01*
X173113Y287756D01*
X173826Y286826D01*
X174756Y286113D01*
X175838Y285665D01*
X177000Y285512D01*
X178162Y285665D01*
X179244Y286113D01*
X180174Y286826D01*
X180887Y287756D01*
X181335Y288838D01*
X181488Y290000D01*
X181335Y291162D01*
X180887Y292244D01*
X180174Y293174D01*
X179244Y293887D01*
X178162Y294336D01*
X177000Y294489D01*
D02*
G37*
G36*
X167000D02*
X165838Y294336D01*
X164756Y293887D01*
X163826Y293174D01*
X163113Y292244D01*
X162665Y291162D01*
X162512Y290000D01*
X162665Y288838D01*
X163113Y287756D01*
X163826Y286826D01*
X164756Y286113D01*
X165838Y285665D01*
X167000Y285512D01*
X168162Y285665D01*
X169244Y286113D01*
X170174Y286826D01*
X170887Y287756D01*
X171335Y288838D01*
X171488Y290000D01*
X171335Y291162D01*
X170887Y292244D01*
X170174Y293174D01*
X169244Y293887D01*
X168162Y294336D01*
X167000Y294489D01*
D02*
G37*
G36*
X197000D02*
X195838Y294336D01*
X194756Y293887D01*
X193826Y293174D01*
X193113Y292244D01*
X192665Y291162D01*
X192512Y290000D01*
X192665Y288838D01*
X193113Y287756D01*
X193826Y286826D01*
X194756Y286113D01*
X195838Y285665D01*
X197000Y285512D01*
X198162Y285665D01*
X199244Y286113D01*
X200174Y286826D01*
X200887Y287756D01*
X201336Y288838D01*
X201488Y290000D01*
X201336Y291162D01*
X200887Y292244D01*
X200174Y293174D01*
X199244Y293887D01*
X198162Y294336D01*
X197000Y294489D01*
D02*
G37*
G36*
X187000D02*
X185838Y294336D01*
X184756Y293887D01*
X183826Y293174D01*
X183113Y292244D01*
X182665Y291162D01*
X182512Y290000D01*
X182665Y288838D01*
X183113Y287756D01*
X183826Y286826D01*
X184756Y286113D01*
X185838Y285665D01*
X187000Y285512D01*
X188162Y285665D01*
X189244Y286113D01*
X190174Y286826D01*
X190887Y287756D01*
X191335Y288838D01*
X191488Y290000D01*
X191335Y291162D01*
X190887Y292244D01*
X190174Y293174D01*
X189244Y293887D01*
X188162Y294336D01*
X187000Y294489D01*
D02*
G37*
G36*
X257000D02*
X255838Y294336D01*
X254756Y293887D01*
X253826Y293174D01*
X253113Y292244D01*
X252665Y291162D01*
X252512Y290000D01*
X252665Y288838D01*
X253113Y287756D01*
X253826Y286826D01*
X254756Y286113D01*
X255838Y285665D01*
X257000Y285512D01*
X258162Y285665D01*
X259244Y286113D01*
X260174Y286826D01*
X260887Y287756D01*
X261335Y288838D01*
X261489Y290000D01*
X261335Y291162D01*
X260887Y292244D01*
X260174Y293174D01*
X259244Y293887D01*
X258162Y294336D01*
X257000Y294489D01*
D02*
G37*
G36*
X64979Y288500D02*
X62500D01*
Y286021D01*
X63143Y286288D01*
X64031Y286969D01*
X64712Y287857D01*
X64979Y288500D01*
D02*
G37*
G36*
X59500D02*
X57021D01*
X57288Y287857D01*
X57969Y286969D01*
X58857Y286288D01*
X59500Y286021D01*
Y288500D01*
D02*
G37*
G36*
X62500Y293979D02*
Y291500D01*
X64979D01*
X64712Y292143D01*
X64031Y293031D01*
X63143Y293712D01*
X62500Y293979D01*
D02*
G37*
G36*
X59500D02*
X58857Y293712D01*
X57969Y293031D01*
X57288Y292143D01*
X57021Y291500D01*
X59500D01*
Y293979D01*
D02*
G37*
G36*
X277000Y294489D02*
X275838Y294336D01*
X274756Y293887D01*
X273826Y293174D01*
X273113Y292244D01*
X272665Y291162D01*
X272512Y290000D01*
X272665Y288838D01*
X273113Y287756D01*
X273826Y286826D01*
X274756Y286113D01*
X275838Y285665D01*
X277000Y285512D01*
X278162Y285665D01*
X279244Y286113D01*
X280174Y286826D01*
X280887Y287756D01*
X281335Y288838D01*
X281488Y290000D01*
X281335Y291162D01*
X280887Y292244D01*
X280174Y293174D01*
X279244Y293887D01*
X278162Y294336D01*
X277000Y294489D01*
D02*
G37*
G36*
X267000D02*
X265838Y294336D01*
X264756Y293887D01*
X263826Y293174D01*
X263113Y292244D01*
X262665Y291162D01*
X262512Y290000D01*
X262665Y288838D01*
X263113Y287756D01*
X263826Y286826D01*
X264756Y286113D01*
X265838Y285665D01*
X267000Y285512D01*
X268162Y285665D01*
X269244Y286113D01*
X270174Y286826D01*
X270887Y287756D01*
X271336Y288838D01*
X271488Y290000D01*
X271336Y291162D01*
X270887Y292244D01*
X270174Y293174D01*
X269244Y293887D01*
X268162Y294336D01*
X267000Y294489D01*
D02*
G37*
G36*
X337000D02*
X335838Y294336D01*
X334756Y293887D01*
X333826Y293174D01*
X333113Y292244D01*
X332665Y291162D01*
X332512Y290000D01*
X332665Y288838D01*
X333113Y287756D01*
X333826Y286826D01*
X334756Y286113D01*
X335838Y285665D01*
X337000Y285512D01*
X338162Y285665D01*
X339244Y286113D01*
X340174Y286826D01*
X340887Y287756D01*
X341336Y288838D01*
X341489Y290000D01*
X341336Y291162D01*
X340887Y292244D01*
X340174Y293174D01*
X339244Y293887D01*
X338162Y294336D01*
X337000Y294489D01*
D02*
G37*
G36*
X327000D02*
X325838Y294336D01*
X324756Y293887D01*
X323826Y293174D01*
X323113Y292244D01*
X322665Y291162D01*
X322512Y290000D01*
X322665Y288838D01*
X323113Y287756D01*
X323826Y286826D01*
X324756Y286113D01*
X325838Y285665D01*
X327000Y285512D01*
X328162Y285665D01*
X329244Y286113D01*
X330174Y286826D01*
X330887Y287756D01*
X331335Y288838D01*
X331488Y290000D01*
X331335Y291162D01*
X330887Y292244D01*
X330174Y293174D01*
X329244Y293887D01*
X328162Y294336D01*
X327000Y294489D01*
D02*
G37*
G36*
X304999Y346963D02*
X301911D01*
Y344368D01*
X303427D01*
X304029Y344487D01*
X304538Y344828D01*
X304879Y345338D01*
X304999Y345939D01*
Y346963D01*
D02*
G37*
G36*
X134500Y380749D02*
X133012Y380553D01*
X131625Y379979D01*
X130435Y379065D01*
X129521Y377875D01*
X128947Y376488D01*
X128751Y375000D01*
X128947Y373512D01*
X129521Y372125D01*
X130435Y370935D01*
X131625Y370021D01*
X133012Y369447D01*
X134500Y369251D01*
X135988Y369447D01*
X137375Y370021D01*
X138565Y370935D01*
X139479Y372125D01*
X140053Y373512D01*
X140249Y375000D01*
X140053Y376488D01*
X139479Y377875D01*
X138565Y379065D01*
X137375Y379979D01*
X135988Y380553D01*
X134500Y380749D01*
D02*
G37*
G36*
X110500D02*
X109012Y380553D01*
X107625Y379979D01*
X106435Y379065D01*
X105521Y377875D01*
X104947Y376488D01*
X104751Y375000D01*
X104947Y373512D01*
X105521Y372125D01*
X106435Y370935D01*
X107625Y370021D01*
X109012Y369447D01*
X110500Y369251D01*
X111988Y369447D01*
X113375Y370021D01*
X114565Y370935D01*
X115479Y372125D01*
X116053Y373512D01*
X116249Y375000D01*
X116053Y376488D01*
X115479Y377875D01*
X114565Y379065D01*
X113375Y379979D01*
X111988Y380553D01*
X110500Y380749D01*
D02*
G37*
G36*
X173500D02*
X172012Y380553D01*
X170625Y379979D01*
X169435Y379065D01*
X168521Y377875D01*
X167947Y376488D01*
X167751Y375000D01*
X167947Y373512D01*
X168521Y372125D01*
X169435Y370935D01*
X170625Y370021D01*
X172012Y369447D01*
X173500Y369251D01*
X174988Y369447D01*
X176375Y370021D01*
X177565Y370935D01*
X178479Y372125D01*
X179053Y373512D01*
X179249Y375000D01*
X179053Y376488D01*
X178479Y377875D01*
X177565Y379065D01*
X176375Y379979D01*
X174988Y380553D01*
X173500Y380749D01*
D02*
G37*
G36*
X149500D02*
X148012Y380553D01*
X146625Y379979D01*
X145435Y379065D01*
X144521Y377875D01*
X143947Y376488D01*
X143751Y375000D01*
X143947Y373512D01*
X144521Y372125D01*
X145435Y370935D01*
X146625Y370021D01*
X148012Y369447D01*
X149500Y369251D01*
X150988Y369447D01*
X152375Y370021D01*
X153565Y370935D01*
X154479Y372125D01*
X155053Y373512D01*
X155249Y375000D01*
X155053Y376488D01*
X154479Y377875D01*
X153565Y379065D01*
X152375Y379979D01*
X150988Y380553D01*
X149500Y380749D01*
D02*
G37*
G36*
X56500D02*
X55012Y380553D01*
X53625Y379979D01*
X52435Y379065D01*
X51521Y377875D01*
X50947Y376488D01*
X50751Y375000D01*
X50947Y373512D01*
X51521Y372125D01*
X52435Y370935D01*
X53625Y370021D01*
X55012Y369447D01*
X56500Y369251D01*
X57988Y369447D01*
X59375Y370021D01*
X60565Y370935D01*
X61479Y372125D01*
X62053Y373512D01*
X62249Y375000D01*
X62053Y376488D01*
X61479Y377875D01*
X60565Y379065D01*
X59375Y379979D01*
X57988Y380553D01*
X56500Y380749D01*
D02*
G37*
G36*
X18000Y356332D02*
Y352500D01*
X21832D01*
X21304Y353774D01*
X20423Y354923D01*
X19274Y355804D01*
X18000Y356332D01*
D02*
G37*
G36*
X95500Y380749D02*
X94012Y380553D01*
X92625Y379979D01*
X91435Y379065D01*
X90521Y377875D01*
X89947Y376488D01*
X89751Y375000D01*
X89947Y373512D01*
X90521Y372125D01*
X91435Y370935D01*
X92625Y370021D01*
X94012Y369447D01*
X95500Y369251D01*
X96988Y369447D01*
X98375Y370021D01*
X99565Y370935D01*
X100479Y372125D01*
X101053Y373512D01*
X101249Y375000D01*
X101053Y376488D01*
X100479Y377875D01*
X99565Y379065D01*
X98375Y379979D01*
X96988Y380553D01*
X95500Y380749D01*
D02*
G37*
G36*
X71500D02*
X70012Y380553D01*
X68625Y379979D01*
X67435Y379065D01*
X66521Y377875D01*
X65947Y376488D01*
X65751Y375000D01*
X65947Y373512D01*
X66521Y372125D01*
X67435Y370935D01*
X68625Y370021D01*
X70012Y369447D01*
X71500Y369251D01*
X72988Y369447D01*
X74375Y370021D01*
X75565Y370935D01*
X76479Y372125D01*
X77053Y373512D01*
X77249Y375000D01*
X77053Y376488D01*
X76479Y377875D01*
X75565Y379065D01*
X74375Y379979D01*
X72988Y380553D01*
X71500Y380749D01*
D02*
G37*
G36*
X188500D02*
X187012Y380553D01*
X185625Y379979D01*
X184435Y379065D01*
X183521Y377875D01*
X182947Y376488D01*
X182751Y375000D01*
X182947Y373512D01*
X183521Y372125D01*
X184435Y370935D01*
X185625Y370021D01*
X187012Y369447D01*
X188500Y369251D01*
X189988Y369447D01*
X191375Y370021D01*
X192565Y370935D01*
X193479Y372125D01*
X194053Y373512D01*
X194249Y375000D01*
X194053Y376488D01*
X193479Y377875D01*
X192565Y379065D01*
X191375Y379979D01*
X189988Y380553D01*
X188500Y380749D01*
D02*
G37*
G36*
X227311Y380332D02*
X226037Y379804D01*
X224888Y378923D01*
X224007Y377774D01*
X223479Y376500D01*
X227311D01*
Y380332D01*
D02*
G37*
G36*
X212311D02*
X211037Y379804D01*
X209888Y378923D01*
X209007Y377774D01*
X208479Y376500D01*
X212311D01*
Y380332D01*
D02*
G37*
G36*
X230311Y380332D02*
Y376500D01*
X234143D01*
X233615Y377774D01*
X232734Y378923D01*
X231585Y379804D01*
X230311Y380332D01*
D02*
G37*
G36*
X215311D02*
Y376500D01*
X219143D01*
X218615Y377774D01*
X217734Y378923D01*
X216585Y379804D01*
X215311Y380332D01*
D02*
G37*
G36*
X234143Y373500D02*
X230311D01*
Y369668D01*
X231585Y370196D01*
X232734Y371077D01*
X233615Y372226D01*
X234143Y373500D01*
D02*
G37*
G36*
X219143D02*
X215311D01*
Y369668D01*
X216585Y370196D01*
X217734Y371077D01*
X218615Y372226D01*
X219143Y373500D01*
D02*
G37*
G36*
X227311D02*
X223479D01*
X224007Y372226D01*
X224888Y371077D01*
X226037Y370196D01*
X227311Y369668D01*
Y373500D01*
D02*
G37*
G36*
X212311D02*
X208479D01*
X209007Y372226D01*
X209888Y371077D01*
X211037Y370196D01*
X212311Y369668D01*
Y373500D01*
D02*
G37*
G36*
X349999Y346963D02*
X346911D01*
Y344368D01*
X348427D01*
X349029Y344487D01*
X349538Y344828D01*
X349879Y345338D01*
X349999Y345939D01*
Y346963D01*
D02*
G37*
G36*
X345711D02*
X342623D01*
Y345939D01*
X342743Y345338D01*
X343084Y344828D01*
X343594Y344487D01*
X344195Y344368D01*
X345711D01*
Y346963D01*
D02*
G37*
G36*
X21832Y349500D02*
X18000D01*
Y345668D01*
X19274Y346196D01*
X20423Y347077D01*
X21304Y348226D01*
X21832Y349500D01*
D02*
G37*
G36*
X15000D02*
X11168D01*
X11696Y348226D01*
X12577Y347077D01*
X13726Y346196D01*
X15000Y345668D01*
Y349500D01*
D02*
G37*
G36*
X319999Y346963D02*
X316911D01*
Y344368D01*
X318427D01*
X319029Y344487D01*
X319538Y344828D01*
X319879Y345338D01*
X319999Y345939D01*
Y346963D01*
D02*
G37*
G36*
X315711D02*
X312623D01*
Y345939D01*
X312743Y345338D01*
X313084Y344828D01*
X313594Y344487D01*
X314195Y344368D01*
X315711D01*
Y346963D01*
D02*
G37*
G36*
X334999D02*
X331911D01*
Y344368D01*
X333427D01*
X334029Y344487D01*
X334539Y344828D01*
X334879Y345338D01*
X334999Y345939D01*
Y346963D01*
D02*
G37*
G36*
X330711D02*
X327623D01*
Y345939D01*
X327743Y345338D01*
X328084Y344828D01*
X328593Y344487D01*
X329195Y344368D01*
X330711D01*
Y346963D01*
D02*
G37*
G36*
X258811Y380749D02*
X257323Y380553D01*
X255936Y379979D01*
X254746Y379065D01*
X253832Y377875D01*
X253258Y376488D01*
X253062Y375000D01*
X253258Y373512D01*
X253832Y372126D01*
X254746Y370935D01*
X255936Y370021D01*
X256772Y369675D01*
Y368845D01*
X254869Y366942D01*
X254427Y366280D01*
X254272Y365500D01*
Y358837D01*
X254195D01*
X253516Y358701D01*
X252940Y358316D01*
X252555Y357740D01*
X252419Y357061D01*
Y353813D01*
X252555Y353134D01*
X252623Y353031D01*
Y349187D01*
Y348163D01*
X256311D01*
X259999D01*
Y349000D01*
Y353031D01*
X260068Y353134D01*
X260203Y353813D01*
Y357061D01*
X260068Y357740D01*
X259683Y358316D01*
X259107Y358701D01*
X258427Y358837D01*
X258350D01*
Y364655D01*
X260253Y366558D01*
X260695Y367220D01*
X260850Y368000D01*
Y369675D01*
X261686Y370021D01*
X262876Y370935D01*
X263790Y372126D01*
X264364Y373512D01*
X264560Y375000D01*
X264364Y376488D01*
X263790Y377875D01*
X262876Y379065D01*
X261686Y379979D01*
X260299Y380553D01*
X258811Y380749D01*
D02*
G37*
G36*
X318811D02*
X317323Y380553D01*
X315936Y379979D01*
X314746Y379065D01*
X313832Y377875D01*
X313258Y376488D01*
X313062Y375000D01*
X313258Y373512D01*
X313832Y372126D01*
X314746Y370935D01*
X315936Y370021D01*
X316772Y369675D01*
Y368845D01*
X314869Y366942D01*
X314427Y366280D01*
X314272Y365500D01*
Y358837D01*
X314195D01*
X313515Y358701D01*
X312940Y358316D01*
X312555Y357740D01*
X312420Y357061D01*
Y353813D01*
X312555Y353134D01*
X312623Y353031D01*
Y349187D01*
Y348163D01*
X319999D01*
Y349187D01*
Y353031D01*
X320068Y353134D01*
X320203Y353813D01*
Y357061D01*
X320068Y357740D01*
X319683Y358316D01*
X319107Y358701D01*
X318427Y358837D01*
X318350D01*
Y364655D01*
X320253Y366558D01*
X320695Y367220D01*
X320850Y368000D01*
Y369675D01*
X321686Y370021D01*
X322876Y370935D01*
X323790Y372126D01*
X324364Y373512D01*
X324560Y375000D01*
X324364Y376488D01*
X323790Y377875D01*
X322876Y379065D01*
X321686Y379979D01*
X320299Y380553D01*
X318811Y380749D01*
D02*
G37*
G36*
X303811D02*
X302323Y380553D01*
X300936Y379979D01*
X299746Y379065D01*
X298832Y377875D01*
X298258Y376488D01*
X298062Y375000D01*
X298258Y373512D01*
X298832Y372126D01*
X299746Y370935D01*
X300936Y370021D01*
X301772Y369675D01*
Y368845D01*
X299869Y366942D01*
X299427Y366280D01*
X299272Y365500D01*
Y358837D01*
X299195D01*
X298516Y358701D01*
X297939Y358316D01*
X297555Y357740D01*
X297420Y357061D01*
Y353813D01*
X297555Y353134D01*
X297623Y353031D01*
Y349187D01*
Y348163D01*
X304999D01*
Y349187D01*
Y353031D01*
X305067Y353134D01*
X305203Y353813D01*
Y357061D01*
X305067Y357740D01*
X304683Y358316D01*
X304107Y358701D01*
X303427Y358837D01*
X303350D01*
Y364655D01*
X305253Y366558D01*
X305695Y367220D01*
X305850Y368000D01*
Y369675D01*
X306686Y370021D01*
X307876Y370935D01*
X308790Y372126D01*
X309364Y373512D01*
X309560Y375000D01*
X309364Y376488D01*
X308790Y377875D01*
X307876Y379065D01*
X306686Y379979D01*
X305299Y380553D01*
X303811Y380749D01*
D02*
G37*
G36*
X15000Y356332D02*
X13726Y355804D01*
X12577Y354923D01*
X11696Y353774D01*
X11168Y352500D01*
X15000D01*
Y356332D01*
D02*
G37*
G36*
X333811Y380749D02*
X332323Y380553D01*
X330936Y379979D01*
X329746Y379065D01*
X328832Y377875D01*
X328258Y376488D01*
X328062Y375000D01*
X328258Y373512D01*
X328832Y372126D01*
X329746Y370935D01*
X330936Y370021D01*
X331772Y369675D01*
Y368845D01*
X329869Y366942D01*
X329427Y366280D01*
X329272Y365500D01*
Y358837D01*
X329195D01*
X328516Y358701D01*
X327940Y358316D01*
X327555Y357740D01*
X327419Y357061D01*
Y353813D01*
X327555Y353134D01*
X327623Y353031D01*
Y349187D01*
Y348163D01*
X334999D01*
Y349187D01*
Y353031D01*
X335068Y353134D01*
X335203Y353813D01*
Y357061D01*
X335068Y357740D01*
X334683Y358316D01*
X334107Y358701D01*
X333427Y358837D01*
X333350D01*
Y364655D01*
X335253Y366558D01*
X335695Y367220D01*
X335850Y368000D01*
Y369675D01*
X336686Y370021D01*
X337876Y370935D01*
X338790Y372126D01*
X339364Y373512D01*
X339560Y375000D01*
X339364Y376488D01*
X338790Y377875D01*
X337876Y379065D01*
X336686Y379979D01*
X335299Y380553D01*
X333811Y380749D01*
D02*
G37*
G36*
X273811D02*
X272323Y380553D01*
X270936Y379979D01*
X269746Y379065D01*
X268832Y377875D01*
X268258Y376488D01*
X268062Y375000D01*
X268258Y373512D01*
X268832Y372126D01*
X269746Y370935D01*
X270936Y370021D01*
X271772Y369675D01*
Y368845D01*
X269869Y366942D01*
X269427Y366280D01*
X269272Y365500D01*
Y358837D01*
X269195D01*
X268515Y358701D01*
X267939Y358316D01*
X267555Y357740D01*
X267420Y357061D01*
Y353813D01*
X267555Y353134D01*
X267623Y353031D01*
Y349187D01*
Y348163D01*
X271311D01*
X274999D01*
Y349000D01*
Y353031D01*
X275067Y353134D01*
X275203Y353813D01*
Y357061D01*
X275067Y357740D01*
X274683Y358316D01*
X274107Y358701D01*
X273427Y358837D01*
X273350D01*
Y364655D01*
X275253Y366558D01*
X275695Y367220D01*
X275850Y368000D01*
Y369675D01*
X276686Y370021D01*
X277876Y370935D01*
X278790Y372126D01*
X279364Y373512D01*
X279560Y375000D01*
X279364Y376488D01*
X278790Y377875D01*
X277876Y379065D01*
X276686Y379979D01*
X275299Y380553D01*
X273811Y380749D01*
D02*
G37*
G36*
X243811D02*
X242323Y380553D01*
X240936Y379979D01*
X239746Y379065D01*
X238832Y377875D01*
X238258Y376488D01*
X238062Y375000D01*
X238258Y373512D01*
X238832Y372126D01*
X239746Y370935D01*
X240936Y370021D01*
X241772Y369675D01*
Y368845D01*
X239869Y366942D01*
X239427Y366280D01*
X239272Y365500D01*
Y358837D01*
X239195D01*
X238515Y358701D01*
X237940Y358316D01*
X237555Y357740D01*
X237420Y357061D01*
Y353813D01*
X237555Y353134D01*
X237623Y353031D01*
Y349187D01*
Y348163D01*
X241311D01*
X244999D01*
Y349000D01*
Y353031D01*
X245068Y353134D01*
X245203Y353813D01*
Y357061D01*
X245068Y357740D01*
X244683Y358316D01*
X244107Y358701D01*
X243427Y358837D01*
X243350D01*
Y364655D01*
X245253Y366558D01*
X245695Y367220D01*
X245850Y368000D01*
Y369675D01*
X246686Y370021D01*
X247876Y370935D01*
X248790Y372126D01*
X249364Y373512D01*
X249560Y375000D01*
X249364Y376488D01*
X248790Y377875D01*
X247876Y379065D01*
X246686Y379979D01*
X245299Y380553D01*
X243811Y380749D01*
D02*
G37*
G36*
X288811D02*
X287323Y380553D01*
X285936Y379979D01*
X284746Y379065D01*
X283832Y377875D01*
X283258Y376488D01*
X283062Y375000D01*
X283258Y373512D01*
X283832Y372126D01*
X284746Y370935D01*
X285936Y370021D01*
X286772Y369675D01*
Y368845D01*
X284869Y366942D01*
X284427Y366280D01*
X284272Y365500D01*
Y358837D01*
X284195D01*
X283516Y358701D01*
X282940Y358316D01*
X282555Y357740D01*
X282419Y357061D01*
Y353813D01*
X282555Y353134D01*
X282623Y353031D01*
Y349187D01*
Y348163D01*
X289999D01*
Y349187D01*
Y353031D01*
X290068Y353134D01*
X290203Y353813D01*
Y357061D01*
X290068Y357740D01*
X289683Y358316D01*
X289107Y358701D01*
X288427Y358837D01*
X288350D01*
Y364655D01*
X290253Y366558D01*
X290695Y367220D01*
X290850Y368000D01*
Y369675D01*
X291686Y370021D01*
X292876Y370935D01*
X293790Y372126D01*
X294364Y373512D01*
X294560Y375000D01*
X294364Y376488D01*
X293790Y377875D01*
X292876Y379065D01*
X291686Y379979D01*
X290299Y380553D01*
X288811Y380749D01*
D02*
G37*
G36*
X348811D02*
X347323Y380553D01*
X345936Y379979D01*
X344746Y379065D01*
X343832Y377875D01*
X343258Y376488D01*
X343062Y375000D01*
X343258Y373512D01*
X343832Y372126D01*
X344746Y370935D01*
X345936Y370021D01*
X346772Y369675D01*
Y368845D01*
X344869Y366942D01*
X344427Y366280D01*
X344272Y365500D01*
Y358837D01*
X344195D01*
X343515Y358701D01*
X342939Y358316D01*
X342555Y357740D01*
X342420Y357061D01*
Y353813D01*
X342555Y353134D01*
X342623Y353031D01*
Y349187D01*
Y348163D01*
X346311D01*
X349999D01*
Y349000D01*
Y353031D01*
X350067Y353134D01*
X350203Y353813D01*
Y357061D01*
X350067Y357740D01*
X349683Y358316D01*
X349107Y358701D01*
X348427Y358837D01*
X348350D01*
Y364655D01*
X350253Y366558D01*
X350695Y367220D01*
X350850Y368000D01*
Y369675D01*
X351686Y370021D01*
X352876Y370935D01*
X353790Y372126D01*
X354364Y373512D01*
X354560Y375000D01*
X354364Y376488D01*
X353790Y377875D01*
X352876Y379065D01*
X351686Y379979D01*
X350299Y380553D01*
X348811Y380749D01*
D02*
G37*
G36*
X327000Y224488D02*
X325838Y224336D01*
X324756Y223887D01*
X323826Y223174D01*
X323113Y222244D01*
X322665Y221162D01*
X322512Y220000D01*
X322665Y218838D01*
X323113Y217756D01*
X323826Y216826D01*
X324756Y216113D01*
X325838Y215665D01*
X327000Y215512D01*
X328162Y215665D01*
X329244Y216113D01*
X330174Y216826D01*
X330887Y217756D01*
X331335Y218838D01*
X331488Y220000D01*
X331335Y221162D01*
X330887Y222244D01*
X330174Y223174D01*
X329244Y223887D01*
X328162Y224336D01*
X327000Y224488D01*
D02*
G37*
G36*
X31000D02*
X29838Y224336D01*
X28756Y223887D01*
X27826Y223174D01*
X27113Y222244D01*
X26665Y221162D01*
X26512Y220000D01*
X26665Y218838D01*
X27113Y217756D01*
X27826Y216826D01*
X28756Y216113D01*
X29838Y215665D01*
X31000Y215512D01*
X32162Y215665D01*
X33244Y216113D01*
X34174Y216826D01*
X34887Y217756D01*
X35335Y218838D01*
X35489Y220000D01*
X35335Y221162D01*
X34887Y222244D01*
X34174Y223174D01*
X33244Y223887D01*
X32162Y224336D01*
X31000Y224488D01*
D02*
G37*
G36*
X379000Y231124D02*
X377607Y230987D01*
X376268Y230581D01*
X375033Y229921D01*
X373951Y229033D01*
X373063Y227951D01*
X372404Y226717D01*
X371997Y225377D01*
X371860Y223984D01*
X371997Y222591D01*
X372404Y221252D01*
X373063Y220018D01*
X373951Y218936D01*
X375033Y218048D01*
X376268Y217388D01*
X377607Y216982D01*
X379000Y216844D01*
X380393Y216982D01*
X381732Y217388D01*
X382967Y218048D01*
X384049Y218936D01*
X384937Y220018D01*
X385596Y221252D01*
X386003Y222591D01*
X386140Y223984D01*
X386003Y225377D01*
X385596Y226717D01*
X384937Y227951D01*
X384049Y229033D01*
X382967Y229921D01*
X381732Y230581D01*
X380393Y230987D01*
X379000Y231124D01*
D02*
G37*
G36*
X337000Y224488D02*
X335838Y224336D01*
X334756Y223887D01*
X333826Y223174D01*
X333113Y222244D01*
X332665Y221162D01*
X332512Y220000D01*
X332665Y218838D01*
X333113Y217756D01*
X333826Y216826D01*
X334756Y216113D01*
X335838Y215665D01*
X337000Y215512D01*
X338162Y215665D01*
X339244Y216113D01*
X340174Y216826D01*
X340887Y217756D01*
X341336Y218838D01*
X341489Y220000D01*
X341336Y221162D01*
X340887Y222244D01*
X340174Y223174D01*
X339244Y223887D01*
X338162Y224336D01*
X337000Y224488D01*
D02*
G37*
G36*
Y214489D02*
X335838Y214335D01*
X334756Y213887D01*
X333826Y213174D01*
X333113Y212244D01*
X332665Y211162D01*
X332512Y210000D01*
X332665Y208838D01*
X333113Y207756D01*
X333826Y206826D01*
X334756Y206113D01*
X335838Y205665D01*
X337000Y205512D01*
X338162Y205665D01*
X339244Y206113D01*
X340174Y206826D01*
X340887Y207756D01*
X341336Y208838D01*
X341489Y210000D01*
X341336Y211162D01*
X340887Y212244D01*
X340174Y213174D01*
X339244Y213887D01*
X338162Y214335D01*
X337000Y214489D01*
D02*
G37*
G36*
X327000D02*
X325838Y214335D01*
X324756Y213887D01*
X323826Y213174D01*
X323113Y212244D01*
X322665Y211162D01*
X322512Y210000D01*
X322665Y208838D01*
X323113Y207756D01*
X323826Y206826D01*
X324756Y206113D01*
X325838Y205665D01*
X327000Y205512D01*
X328162Y205665D01*
X329244Y206113D01*
X330174Y206826D01*
X330887Y207756D01*
X331335Y208838D01*
X331488Y210000D01*
X331335Y211162D01*
X330887Y212244D01*
X330174Y213174D01*
X329244Y213887D01*
X328162Y214335D01*
X327000Y214489D01*
D02*
G37*
G36*
X21000Y224488D02*
X19838Y224336D01*
X18756Y223887D01*
X17826Y223174D01*
X17113Y222244D01*
X16665Y221162D01*
X16512Y220000D01*
X16665Y218838D01*
X17113Y217756D01*
X17826Y216826D01*
X18756Y216113D01*
X19838Y215665D01*
X21000Y215512D01*
X22162Y215665D01*
X23244Y216113D01*
X24174Y216826D01*
X24887Y217756D01*
X25335Y218838D01*
X25488Y220000D01*
X25335Y221162D01*
X24887Y222244D01*
X24174Y223174D01*
X23244Y223887D01*
X22162Y224336D01*
X21000Y224488D01*
D02*
G37*
G36*
X244000Y210026D02*
X243217Y209923D01*
X242487Y209621D01*
X241860Y209140D01*
X241380Y208513D01*
X241077Y207783D01*
X240974Y207000D01*
X241032Y206559D01*
X240559Y206325D01*
X240009Y206874D01*
X240026Y207000D01*
X239923Y207783D01*
X239621Y208513D01*
X239140Y209140D01*
X238513Y209621D01*
X237783Y209923D01*
X237000Y210026D01*
X236217Y209923D01*
X235487Y209621D01*
X234860Y209140D01*
X234380Y208513D01*
X234077Y207783D01*
X233974Y207000D01*
X234077Y206217D01*
X234380Y205487D01*
X234860Y204860D01*
X235487Y204380D01*
X236217Y204077D01*
X237000Y203974D01*
X237126Y203991D01*
X265558Y175558D01*
X266220Y175116D01*
X267000Y174961D01*
X267000Y174961D01*
X269783D01*
X269860Y174860D01*
X270487Y174380D01*
X271217Y174077D01*
X272000Y173974D01*
X272783Y174077D01*
X273513Y174380D01*
X274140Y174860D01*
X274621Y175487D01*
X274923Y176217D01*
X275026Y177000D01*
X274923Y177783D01*
X274621Y178513D01*
X274140Y179140D01*
X273996Y179250D01*
Y179750D01*
X274140Y179860D01*
X274621Y180487D01*
X274923Y181217D01*
X275026Y182000D01*
X274923Y182783D01*
X274621Y183513D01*
X274140Y184140D01*
X273513Y184621D01*
X272783Y184923D01*
X272000Y185026D01*
X271217Y184923D01*
X270487Y184621D01*
X269860Y184140D01*
X269751Y184133D01*
X247009Y206874D01*
X247026Y207000D01*
X246923Y207783D01*
X246621Y208513D01*
X246140Y209140D01*
X245513Y209621D01*
X244783Y209923D01*
X244000Y210026D01*
D02*
G37*
G36*
X21000Y234489D02*
X19838Y234335D01*
X18756Y233887D01*
X17826Y233174D01*
X17113Y232244D01*
X16665Y231162D01*
X16512Y230000D01*
X16665Y228838D01*
X17113Y227756D01*
X17826Y226826D01*
X18756Y226113D01*
X19838Y225665D01*
X21000Y225512D01*
X22162Y225665D01*
X23244Y226113D01*
X24174Y226826D01*
X24887Y227756D01*
X25335Y228838D01*
X25488Y230000D01*
X25335Y231162D01*
X24887Y232244D01*
X24174Y233174D01*
X23244Y233887D01*
X22162Y234335D01*
X21000Y234489D01*
D02*
G37*
G36*
X31000Y244489D02*
X29838Y244336D01*
X28756Y243887D01*
X27826Y243174D01*
X27113Y242244D01*
X26665Y241162D01*
X26512Y240000D01*
X26665Y238838D01*
X27113Y237756D01*
X27826Y236826D01*
X28756Y236113D01*
X29838Y235665D01*
X31000Y235512D01*
X32162Y235665D01*
X33244Y236113D01*
X34174Y236826D01*
X34887Y237756D01*
X35335Y238838D01*
X35489Y240000D01*
X35335Y241162D01*
X34887Y242244D01*
X34174Y243174D01*
X33244Y243887D01*
X32162Y244336D01*
X31000Y244489D01*
D02*
G37*
G36*
X21000D02*
X19838Y244336D01*
X18756Y243887D01*
X17826Y243174D01*
X17113Y242244D01*
X16665Y241162D01*
X16512Y240000D01*
X16665Y238838D01*
X17113Y237756D01*
X17826Y236826D01*
X18756Y236113D01*
X19838Y235665D01*
X21000Y235512D01*
X22162Y235665D01*
X23244Y236113D01*
X24174Y236826D01*
X24887Y237756D01*
X25335Y238838D01*
X25488Y240000D01*
X25335Y241162D01*
X24887Y242244D01*
X24174Y243174D01*
X23244Y243887D01*
X22162Y244336D01*
X21000Y244489D01*
D02*
G37*
G36*
X337000D02*
X335838Y244336D01*
X334756Y243887D01*
X333826Y243174D01*
X333113Y242244D01*
X332665Y241162D01*
X332512Y240000D01*
X332665Y238838D01*
X333113Y237756D01*
X333826Y236826D01*
X334756Y236113D01*
X335838Y235665D01*
X337000Y235512D01*
X338162Y235665D01*
X339244Y236113D01*
X340174Y236826D01*
X340887Y237756D01*
X341336Y238838D01*
X341489Y240000D01*
X341336Y241162D01*
X340887Y242244D01*
X340174Y243174D01*
X339244Y243887D01*
X338162Y244336D01*
X337000Y244489D01*
D02*
G37*
G36*
X327000D02*
X325838Y244336D01*
X324756Y243887D01*
X323826Y243174D01*
X323113Y242244D01*
X322665Y241162D01*
X322512Y240000D01*
X322665Y238838D01*
X323113Y237756D01*
X323826Y236826D01*
X324756Y236113D01*
X325838Y235665D01*
X327000Y235512D01*
X328162Y235665D01*
X329244Y236113D01*
X330174Y236826D01*
X330887Y237756D01*
X331335Y238838D01*
X331488Y240000D01*
X331335Y241162D01*
X330887Y242244D01*
X330174Y243174D01*
X329244Y243887D01*
X328162Y244336D01*
X327000Y244489D01*
D02*
G37*
G36*
Y234489D02*
X325838Y234335D01*
X324756Y233887D01*
X323826Y233174D01*
X323113Y232244D01*
X322665Y231162D01*
X322512Y230000D01*
X322665Y228838D01*
X323113Y227756D01*
X323826Y226826D01*
X324756Y226113D01*
X325838Y225665D01*
X327000Y225512D01*
X328162Y225665D01*
X329244Y226113D01*
X330174Y226826D01*
X330887Y227756D01*
X331335Y228838D01*
X331488Y230000D01*
X331335Y231162D01*
X330887Y232244D01*
X330174Y233174D01*
X329244Y233887D01*
X328162Y234335D01*
X327000Y234489D01*
D02*
G37*
G36*
X31000D02*
X29838Y234335D01*
X28756Y233887D01*
X27826Y233174D01*
X27113Y232244D01*
X26665Y231162D01*
X26512Y230000D01*
X26665Y228838D01*
X27113Y227756D01*
X27826Y226826D01*
X28756Y226113D01*
X29838Y225665D01*
X31000Y225512D01*
X32162Y225665D01*
X33244Y226113D01*
X34174Y226826D01*
X34887Y227756D01*
X35335Y228838D01*
X35489Y230000D01*
X35335Y231162D01*
X34887Y232244D01*
X34174Y233174D01*
X33244Y233887D01*
X32162Y234335D01*
X31000Y234489D01*
D02*
G37*
G36*
X251000Y236026D02*
X250217Y235923D01*
X249487Y235621D01*
X248860Y235140D01*
X248551Y234736D01*
X248529Y234725D01*
X247971D01*
X247949Y234736D01*
X247640Y235140D01*
X247013Y235621D01*
X246283Y235923D01*
X245500Y236026D01*
X244717Y235923D01*
X243987Y235621D01*
X243360Y235140D01*
X242880Y234513D01*
X242577Y233783D01*
X242474Y233000D01*
X242577Y232217D01*
X242880Y231487D01*
X243183Y231091D01*
X242868Y230680D01*
X242283Y230923D01*
X241500Y231026D01*
X240717Y230923D01*
X239987Y230621D01*
X239360Y230140D01*
X238880Y229513D01*
X238577Y228783D01*
X238474Y228000D01*
X238577Y227217D01*
X238880Y226487D01*
X239360Y225860D01*
X239716Y225588D01*
Y225000D01*
X239852Y224317D01*
X240238Y223738D01*
X274033Y189944D01*
X273974Y189500D01*
X274077Y188717D01*
X274380Y187987D01*
X274860Y187360D01*
X275487Y186880D01*
X276217Y186577D01*
X277000Y186474D01*
X277783Y186577D01*
X278513Y186880D01*
X279140Y187360D01*
X279621Y187987D01*
X279625Y187998D01*
X280197Y188073D01*
X280360Y187860D01*
X280987Y187380D01*
X281717Y187077D01*
X282500Y186974D01*
X283283Y187077D01*
X283868Y187320D01*
X284183Y186909D01*
X283880Y186513D01*
X283577Y185783D01*
X283474Y185000D01*
X283577Y184217D01*
X283880Y183487D01*
X284360Y182860D01*
X284987Y182379D01*
X285717Y182077D01*
X286500Y181974D01*
X287283Y182077D01*
X288013Y182379D01*
X288640Y182860D01*
X288750Y183004D01*
X289250D01*
X289360Y182860D01*
X289987Y182379D01*
X290717Y182077D01*
X291500Y181974D01*
X292283Y182077D01*
X293013Y182379D01*
X293640Y182860D01*
X294121Y183487D01*
X294423Y184217D01*
X294526Y185000D01*
X294423Y185783D01*
X294121Y186513D01*
X293640Y187140D01*
X293284Y187412D01*
Y191500D01*
X293284Y191500D01*
X293148Y192183D01*
X292762Y192762D01*
X292762Y192762D01*
X255284Y230239D01*
Y230500D01*
X255149Y231183D01*
X254762Y231762D01*
X254762Y231762D01*
X253967Y232556D01*
X254026Y233000D01*
X253923Y233783D01*
X253621Y234513D01*
X253140Y235140D01*
X252513Y235621D01*
X251783Y235923D01*
X251000Y236026D01*
D02*
G37*
G36*
X337000Y234489D02*
X335838Y234335D01*
X334756Y233887D01*
X333826Y233174D01*
X333113Y232244D01*
X332665Y231162D01*
X332512Y230000D01*
X332665Y228838D01*
X333113Y227756D01*
X333826Y226826D01*
X334756Y226113D01*
X335838Y225665D01*
X337000Y225512D01*
X338162Y225665D01*
X339244Y226113D01*
X340174Y226826D01*
X340887Y227756D01*
X341336Y228838D01*
X341489Y230000D01*
X341336Y231162D01*
X340887Y232244D01*
X340174Y233174D01*
X339244Y233887D01*
X338162Y234335D01*
X337000Y234489D01*
D02*
G37*
G36*
X327000Y194488D02*
X325838Y194335D01*
X324756Y193887D01*
X323826Y193174D01*
X323113Y192244D01*
X322665Y191162D01*
X322512Y190000D01*
X322665Y188838D01*
X323113Y187756D01*
X323826Y186826D01*
X324756Y186113D01*
X325838Y185665D01*
X327000Y185512D01*
X328162Y185665D01*
X329244Y186113D01*
X330174Y186826D01*
X330887Y187756D01*
X331335Y188838D01*
X331488Y190000D01*
X331335Y191162D01*
X330887Y192244D01*
X330174Y193174D01*
X329244Y193887D01*
X328162Y194335D01*
X327000Y194488D01*
D02*
G37*
G36*
X31000D02*
X29838Y194335D01*
X28756Y193887D01*
X27826Y193174D01*
X27113Y192244D01*
X26665Y191162D01*
X26512Y190000D01*
X26665Y188838D01*
X27113Y187756D01*
X27826Y186826D01*
X28756Y186113D01*
X29838Y185665D01*
X31000Y185512D01*
X32162Y185665D01*
X33244Y186113D01*
X34174Y186826D01*
X34887Y187756D01*
X35335Y188838D01*
X35489Y190000D01*
X35335Y191162D01*
X34887Y192244D01*
X34174Y193174D01*
X33244Y193887D01*
X32162Y194335D01*
X31000Y194488D01*
D02*
G37*
G36*
X206000Y201026D02*
X205217Y200923D01*
X204487Y200621D01*
X203860Y200140D01*
X203380Y199513D01*
X203077Y198783D01*
X202974Y198000D01*
X203077Y197217D01*
X203380Y196487D01*
X203860Y195860D01*
X204487Y195379D01*
X205217Y195077D01*
X206000Y194974D01*
X206126Y194991D01*
X208991Y192126D01*
X208974Y192000D01*
X209077Y191217D01*
X209380Y190487D01*
X209860Y189860D01*
X210487Y189380D01*
X211217Y189077D01*
X212000Y188974D01*
X212783Y189077D01*
X213513Y189380D01*
X214140Y189860D01*
X214621Y190487D01*
X214923Y191217D01*
X215026Y192000D01*
X214923Y192783D01*
X214621Y193513D01*
X214140Y194140D01*
X213513Y194621D01*
X212783Y194923D01*
X212000Y195026D01*
X211875Y195009D01*
X209009Y197874D01*
X209026Y198000D01*
X208923Y198783D01*
X208621Y199513D01*
X208140Y200140D01*
X207513Y200621D01*
X206783Y200923D01*
X206000Y201026D01*
D02*
G37*
G36*
X337000Y194488D02*
X335838Y194335D01*
X334756Y193887D01*
X333826Y193174D01*
X333113Y192244D01*
X332665Y191162D01*
X332512Y190000D01*
X332665Y188838D01*
X333113Y187756D01*
X333826Y186826D01*
X334756Y186113D01*
X335838Y185665D01*
X337000Y185512D01*
X338162Y185665D01*
X339244Y186113D01*
X340174Y186826D01*
X340887Y187756D01*
X341336Y188838D01*
X341489Y190000D01*
X341336Y191162D01*
X340887Y192244D01*
X340174Y193174D01*
X339244Y193887D01*
X338162Y194335D01*
X337000Y194488D01*
D02*
G37*
G36*
X203000Y191026D02*
X202217Y190923D01*
X201487Y190621D01*
X200860Y190140D01*
X200379Y189513D01*
X200077Y188783D01*
X199974Y188000D01*
X200077Y187217D01*
X200379Y186487D01*
X200860Y185860D01*
X200961Y185783D01*
Y182217D01*
X200860Y182140D01*
X200379Y181513D01*
X200077Y180783D01*
X199974Y180000D01*
X200077Y179217D01*
X200379Y178487D01*
X200860Y177860D01*
X201487Y177380D01*
X202217Y177077D01*
X203000Y176974D01*
X203783Y177077D01*
X204513Y177380D01*
X205140Y177860D01*
X205621Y178487D01*
X205923Y179217D01*
X206026Y180000D01*
X205923Y180783D01*
X205621Y181513D01*
X205140Y182140D01*
X205039Y182217D01*
Y185783D01*
X205140Y185860D01*
X205621Y186487D01*
X205923Y187217D01*
X206026Y188000D01*
X205923Y188783D01*
X205621Y189513D01*
X205140Y190140D01*
X204513Y190621D01*
X203783Y190923D01*
X203000Y191026D01*
D02*
G37*
G36*
X337000Y184488D02*
X335838Y184335D01*
X334756Y183887D01*
X333826Y183174D01*
X333113Y182244D01*
X332665Y181162D01*
X332512Y180000D01*
X332665Y178838D01*
X333113Y177756D01*
X333826Y176826D01*
X334756Y176113D01*
X335838Y175665D01*
X337000Y175512D01*
X338162Y175665D01*
X339244Y176113D01*
X340174Y176826D01*
X340887Y177756D01*
X341336Y178838D01*
X341489Y180000D01*
X341336Y181162D01*
X340887Y182244D01*
X340174Y183174D01*
X339244Y183887D01*
X338162Y184335D01*
X337000Y184488D01*
D02*
G37*
G36*
X21000Y194488D02*
X19838Y194335D01*
X18756Y193887D01*
X17826Y193174D01*
X17113Y192244D01*
X16665Y191162D01*
X16512Y190000D01*
X16665Y188838D01*
X17113Y187756D01*
X17826Y186826D01*
X18756Y186113D01*
X19838Y185665D01*
X21000Y185512D01*
X22162Y185665D01*
X23244Y186113D01*
X24174Y186826D01*
X24887Y187756D01*
X25335Y188838D01*
X25488Y190000D01*
X25335Y191162D01*
X24887Y192244D01*
X24174Y193174D01*
X23244Y193887D01*
X22162Y194335D01*
X21000Y194488D01*
D02*
G37*
G36*
X190000Y205026D02*
X189217Y204923D01*
X188487Y204621D01*
X187860Y204140D01*
X187380Y203513D01*
X187077Y202783D01*
X186974Y202000D01*
X187077Y201217D01*
X187380Y200487D01*
X187860Y199860D01*
X187961Y199783D01*
Y187217D01*
X187860Y187140D01*
X187380Y186513D01*
X187077Y185783D01*
X186974Y185000D01*
X187077Y184217D01*
X187380Y183487D01*
X187860Y182860D01*
X188487Y182379D01*
X189217Y182077D01*
X190000Y181974D01*
X190783Y182077D01*
X191513Y182379D01*
X192140Y182860D01*
X192621Y183487D01*
X192923Y184217D01*
X193026Y185000D01*
X192923Y185783D01*
X192621Y186513D01*
X192140Y187140D01*
X192039Y187217D01*
Y199783D01*
X192140Y199860D01*
X192621Y200487D01*
X192923Y201217D01*
X193026Y202000D01*
X192923Y202783D01*
X192621Y203513D01*
X192140Y204140D01*
X191513Y204621D01*
X190783Y204923D01*
X190000Y205026D01*
D02*
G37*
G36*
X377500Y196500D02*
X370163D01*
Y194102D01*
X370331Y192824D01*
X370824Y191632D01*
X371609Y190609D01*
X372632Y189824D01*
X373824Y189331D01*
X375102Y189163D01*
X377500D01*
Y196500D01*
D02*
G37*
G36*
X67000Y252778D02*
X66152Y252666D01*
X66124Y252655D01*
X66086Y252650D01*
X65235Y252297D01*
X64504Y251736D01*
X63943Y251005D01*
X63590Y250154D01*
X63470Y249240D01*
X63590Y248326D01*
X63722Y248008D01*
Y210232D01*
X63590Y209914D01*
X63470Y209000D01*
X63590Y208086D01*
X63943Y207235D01*
X64504Y206504D01*
X65235Y205943D01*
X66086Y205590D01*
X67000Y205470D01*
X67914Y205590D01*
X68765Y205943D01*
X69496Y206504D01*
X70057Y207235D01*
X70410Y208086D01*
X70530Y209000D01*
X70410Y209914D01*
X70278Y210232D01*
Y248008D01*
X70410Y248326D01*
X70530Y249240D01*
X70410Y250154D01*
X70057Y251005D01*
X69496Y251736D01*
X68765Y252297D01*
X67914Y252650D01*
X67875Y252655D01*
X67848Y252666D01*
X67000Y252778D01*
D02*
G37*
G36*
X377500Y206838D02*
X375102D01*
X373824Y206669D01*
X372632Y206176D01*
X371609Y205391D01*
X370824Y204368D01*
X370331Y203176D01*
X370163Y201898D01*
Y199500D01*
X377500D01*
Y206838D01*
D02*
G37*
G36*
X31000Y214489D02*
X29838Y214335D01*
X28756Y213887D01*
X27826Y213174D01*
X27113Y212244D01*
X26665Y211162D01*
X26512Y210000D01*
X26665Y208838D01*
X27113Y207756D01*
X27826Y206826D01*
X28756Y206113D01*
X29838Y205665D01*
X31000Y205512D01*
X32162Y205665D01*
X33244Y206113D01*
X34174Y206826D01*
X34887Y207756D01*
X35335Y208838D01*
X35489Y210000D01*
X35335Y211162D01*
X34887Y212244D01*
X34174Y213174D01*
X33244Y213887D01*
X32162Y214335D01*
X31000Y214489D01*
D02*
G37*
G36*
X21000D02*
X19838Y214335D01*
X18756Y213887D01*
X17826Y213174D01*
X17113Y212244D01*
X16665Y211162D01*
X16512Y210000D01*
X16665Y208838D01*
X17113Y207756D01*
X17826Y206826D01*
X18756Y206113D01*
X19838Y205665D01*
X21000Y205512D01*
X22162Y205665D01*
X23244Y206113D01*
X24174Y206826D01*
X24887Y207756D01*
X25335Y208838D01*
X25488Y210000D01*
X25335Y211162D01*
X24887Y212244D01*
X24174Y213174D01*
X23244Y213887D01*
X22162Y214335D01*
X21000Y214489D01*
D02*
G37*
G36*
X31000Y204488D02*
X29838Y204335D01*
X28756Y203887D01*
X27826Y203174D01*
X27113Y202244D01*
X26665Y201162D01*
X26512Y200000D01*
X26665Y198838D01*
X27113Y197756D01*
X27826Y196826D01*
X28756Y196113D01*
X29838Y195665D01*
X31000Y195512D01*
X32162Y195665D01*
X33244Y196113D01*
X34174Y196826D01*
X34887Y197756D01*
X35335Y198838D01*
X35489Y200000D01*
X35335Y201162D01*
X34887Y202244D01*
X34174Y203174D01*
X33244Y203887D01*
X32162Y204335D01*
X31000Y204488D01*
D02*
G37*
G36*
X21000D02*
X19838Y204335D01*
X18756Y203887D01*
X17826Y203174D01*
X17113Y202244D01*
X16665Y201162D01*
X16512Y200000D01*
X16665Y198838D01*
X17113Y197756D01*
X17826Y196826D01*
X18756Y196113D01*
X19838Y195665D01*
X21000Y195512D01*
X22162Y195665D01*
X23244Y196113D01*
X24174Y196826D01*
X24887Y197756D01*
X25335Y198838D01*
X25488Y200000D01*
X25335Y201162D01*
X24887Y202244D01*
X24174Y203174D01*
X23244Y203887D01*
X22162Y204335D01*
X21000Y204488D01*
D02*
G37*
G36*
X337000D02*
X335838Y204335D01*
X334756Y203887D01*
X333826Y203174D01*
X333113Y202244D01*
X332665Y201162D01*
X332512Y200000D01*
X332665Y198838D01*
X333113Y197756D01*
X333826Y196826D01*
X334756Y196113D01*
X335838Y195665D01*
X337000Y195512D01*
X338162Y195665D01*
X339244Y196113D01*
X340174Y196826D01*
X340887Y197756D01*
X341336Y198838D01*
X341489Y200000D01*
X341336Y201162D01*
X340887Y202244D01*
X340174Y203174D01*
X339244Y203887D01*
X338162Y204335D01*
X337000Y204488D01*
D02*
G37*
G36*
X327000D02*
X325838Y204335D01*
X324756Y203887D01*
X323826Y203174D01*
X323113Y202244D01*
X322665Y201162D01*
X322512Y200000D01*
X322665Y198838D01*
X323113Y197756D01*
X323826Y196826D01*
X324756Y196113D01*
X325838Y195665D01*
X327000Y195512D01*
X328162Y195665D01*
X329244Y196113D01*
X330174Y196826D01*
X330887Y197756D01*
X331335Y198838D01*
X331488Y200000D01*
X331335Y201162D01*
X330887Y202244D01*
X330174Y203174D01*
X329244Y203887D01*
X328162Y204335D01*
X327000Y204488D01*
D02*
G37*
G36*
X281000Y239026D02*
X280217Y238923D01*
X279487Y238621D01*
X278860Y238140D01*
X278380Y237513D01*
X278077Y236783D01*
X277974Y236000D01*
X277977Y235980D01*
X277503Y235744D01*
X277013Y236121D01*
X276283Y236423D01*
X275500Y236526D01*
X274717Y236423D01*
X273987Y236121D01*
X273360Y235640D01*
X272880Y235013D01*
X272577Y234283D01*
X272474Y233500D01*
X272577Y232717D01*
X272880Y231987D01*
X273360Y231360D01*
X273987Y230880D01*
X274717Y230577D01*
X275500Y230474D01*
X275626Y230491D01*
X282491Y223626D01*
X282474Y223500D01*
X282577Y222717D01*
X282880Y221987D01*
X283360Y221360D01*
X283987Y220880D01*
X284717Y220577D01*
X285500Y220474D01*
X285752Y220507D01*
X285936Y220471D01*
X286522Y220587D01*
X286872Y220821D01*
X287013Y220880D01*
X287640Y221360D01*
X288121Y221987D01*
X288423Y222717D01*
X288526Y223500D01*
X288481Y223841D01*
X288939Y224192D01*
X289217Y224077D01*
X290000Y223974D01*
X290783Y224077D01*
X291513Y224380D01*
X292140Y224860D01*
X292621Y225487D01*
X292923Y226217D01*
X293026Y227000D01*
X292923Y227783D01*
X292621Y228513D01*
X292140Y229140D01*
X291513Y229621D01*
X290783Y229923D01*
X290000Y230026D01*
X289875Y230009D01*
X284009Y235875D01*
X284026Y236000D01*
X283923Y236783D01*
X283621Y237513D01*
X283140Y238140D01*
X282513Y238621D01*
X281783Y238923D01*
X281000Y239026D01*
D02*
G37*
G36*
X21000Y294489D02*
X19838Y294336D01*
X18756Y293887D01*
X17826Y293174D01*
X17113Y292244D01*
X16665Y291162D01*
X16512Y290000D01*
X16665Y288838D01*
X17113Y287756D01*
X17826Y286826D01*
X18756Y286113D01*
X19838Y285665D01*
X21000Y285512D01*
X22162Y285665D01*
X23244Y286113D01*
X24174Y286826D01*
X24887Y287756D01*
X25335Y288838D01*
X25488Y290000D01*
X25335Y291162D01*
X24887Y292244D01*
X24174Y293174D01*
X23244Y293887D01*
X22162Y294336D01*
X21000Y294489D01*
D02*
G37*
G36*
X126500Y280030D02*
X125586Y279910D01*
X124735Y279557D01*
X124004Y278996D01*
X123849Y278794D01*
X118151D01*
X117996Y278996D01*
X117265Y279557D01*
X116414Y279910D01*
X115500Y280030D01*
X114586Y279910D01*
X113735Y279557D01*
X113004Y278996D01*
X112443Y278265D01*
X112090Y277414D01*
X111970Y276500D01*
X112090Y275586D01*
X112443Y274735D01*
X113004Y274004D01*
X113735Y273443D01*
X114586Y273090D01*
X115500Y272970D01*
X116414Y273090D01*
X117265Y273443D01*
X117996Y274004D01*
X118151Y274206D01*
X123849D01*
X124004Y274004D01*
X124735Y273443D01*
X125586Y273090D01*
X126500Y272970D01*
X127414Y273090D01*
X128265Y273443D01*
X128996Y274004D01*
X129557Y274735D01*
X129910Y275586D01*
X130030Y276500D01*
X129910Y277414D01*
X129557Y278265D01*
X128996Y278996D01*
X128265Y279557D01*
X127414Y279910D01*
X126500Y280030D01*
D02*
G37*
G36*
X51000Y294489D02*
X49838Y294336D01*
X48756Y293887D01*
X47826Y293174D01*
X47113Y292244D01*
X46665Y291162D01*
X46512Y290000D01*
X46665Y288838D01*
X47113Y287756D01*
X47826Y286826D01*
X48756Y286113D01*
X49838Y285665D01*
X51000Y285512D01*
X52162Y285665D01*
X53244Y286113D01*
X54174Y286826D01*
X54887Y287756D01*
X55335Y288838D01*
X55489Y290000D01*
X55335Y291162D01*
X54887Y292244D01*
X54174Y293174D01*
X53244Y293887D01*
X52162Y294336D01*
X51000Y294489D01*
D02*
G37*
G36*
X31000D02*
X29838Y294336D01*
X28756Y293887D01*
X27826Y293174D01*
X27113Y292244D01*
X26665Y291162D01*
X26512Y290000D01*
X26665Y288838D01*
X27113Y287756D01*
X27826Y286826D01*
X28756Y286113D01*
X29838Y285665D01*
X31000Y285512D01*
X32162Y285665D01*
X33244Y286113D01*
X34174Y286826D01*
X34887Y287756D01*
X35335Y288838D01*
X35489Y290000D01*
X35335Y291162D01*
X34887Y292244D01*
X34174Y293174D01*
X33244Y293887D01*
X32162Y294336D01*
X31000Y294489D01*
D02*
G37*
G36*
Y284489D02*
X29838Y284335D01*
X28756Y283887D01*
X27826Y283174D01*
X27113Y282244D01*
X26665Y281162D01*
X26512Y280000D01*
X26665Y278838D01*
X27113Y277756D01*
X27826Y276826D01*
X28756Y276113D01*
X29838Y275665D01*
X31000Y275512D01*
X32162Y275665D01*
X33244Y276113D01*
X34174Y276826D01*
X34887Y277756D01*
X35335Y278838D01*
X35489Y280000D01*
X35335Y281162D01*
X34887Y282244D01*
X34174Y283174D01*
X33244Y283887D01*
X32162Y284335D01*
X31000Y284489D01*
D02*
G37*
G36*
X21000D02*
X19838Y284335D01*
X18756Y283887D01*
X17826Y283174D01*
X17113Y282244D01*
X16665Y281162D01*
X16512Y280000D01*
X16665Y278838D01*
X17113Y277756D01*
X17826Y276826D01*
X18756Y276113D01*
X19838Y275665D01*
X21000Y275512D01*
X22162Y275665D01*
X23244Y276113D01*
X24174Y276826D01*
X24887Y277756D01*
X25335Y278838D01*
X25488Y280000D01*
X25335Y281162D01*
X24887Y282244D01*
X24174Y283174D01*
X23244Y283887D01*
X22162Y284335D01*
X21000Y284489D01*
D02*
G37*
G36*
X337000D02*
X335838Y284335D01*
X334756Y283887D01*
X333826Y283174D01*
X333113Y282244D01*
X332665Y281162D01*
X332512Y280000D01*
X332665Y278838D01*
X333113Y277756D01*
X333826Y276826D01*
X334756Y276113D01*
X335838Y275665D01*
X337000Y275512D01*
X338162Y275665D01*
X339244Y276113D01*
X340174Y276826D01*
X340887Y277756D01*
X341336Y278838D01*
X341489Y280000D01*
X341336Y281162D01*
X340887Y282244D01*
X340174Y283174D01*
X339244Y283887D01*
X338162Y284335D01*
X337000Y284489D01*
D02*
G37*
G36*
X327000D02*
X325838Y284335D01*
X324756Y283887D01*
X323826Y283174D01*
X323113Y282244D01*
X322665Y281162D01*
X322512Y280000D01*
X322665Y278838D01*
X323113Y277756D01*
X323826Y276826D01*
X324756Y276113D01*
X325838Y275665D01*
X327000Y275512D01*
X328162Y275665D01*
X329244Y276113D01*
X330174Y276826D01*
X330887Y277756D01*
X331335Y278838D01*
X331488Y280000D01*
X331335Y281162D01*
X330887Y282244D01*
X330174Y283174D01*
X329244Y283887D01*
X328162Y284335D01*
X327000Y284489D01*
D02*
G37*
G36*
X71000Y294489D02*
X69838Y294336D01*
X68756Y293887D01*
X67826Y293174D01*
X67113Y292244D01*
X66665Y291162D01*
X66512Y290000D01*
X66665Y288838D01*
X67113Y287756D01*
X67826Y286826D01*
X68756Y286113D01*
X69838Y285665D01*
X71000Y285512D01*
X72162Y285665D01*
X73244Y286113D01*
X74174Y286826D01*
X74887Y287756D01*
X75336Y288838D01*
X75489Y290000D01*
X75336Y291162D01*
X74887Y292244D01*
X74174Y293174D01*
X73244Y293887D01*
X72162Y294336D01*
X71000Y294489D01*
D02*
G37*
G36*
X137000D02*
X135838Y294336D01*
X134756Y293887D01*
X133826Y293174D01*
X133113Y292244D01*
X132665Y291162D01*
X132512Y290000D01*
X132665Y288838D01*
X133113Y287756D01*
X133826Y286826D01*
X134756Y286113D01*
X135838Y285665D01*
X137000Y285512D01*
X138162Y285665D01*
X139244Y286113D01*
X140174Y286826D01*
X140887Y287756D01*
X141335Y288838D01*
X141488Y290000D01*
X141335Y291162D01*
X140887Y292244D01*
X140174Y293174D01*
X139244Y293887D01*
X138162Y294336D01*
X137000Y294489D01*
D02*
G37*
G36*
X121000D02*
X119838Y294336D01*
X118756Y293887D01*
X117826Y293174D01*
X117113Y292244D01*
X116665Y291162D01*
X116512Y290000D01*
X116665Y288838D01*
X117113Y287756D01*
X117826Y286826D01*
X118756Y286113D01*
X119838Y285665D01*
X121000Y285512D01*
X122162Y285665D01*
X123244Y286113D01*
X124174Y286826D01*
X124887Y287756D01*
X125336Y288838D01*
X125488Y290000D01*
X125336Y291162D01*
X124887Y292244D01*
X124174Y293174D01*
X123244Y293887D01*
X122162Y294336D01*
X121000Y294489D01*
D02*
G37*
G36*
X157000D02*
X155838Y294336D01*
X154756Y293887D01*
X153826Y293174D01*
X153113Y292244D01*
X152665Y291162D01*
X152512Y290000D01*
X152665Y288838D01*
X153113Y287756D01*
X153826Y286826D01*
X154756Y286113D01*
X155838Y285665D01*
X157000Y285512D01*
X158162Y285665D01*
X159244Y286113D01*
X160174Y286826D01*
X160887Y287756D01*
X161336Y288838D01*
X161488Y290000D01*
X161336Y291162D01*
X160887Y292244D01*
X160174Y293174D01*
X159244Y293887D01*
X158162Y294336D01*
X157000Y294489D01*
D02*
G37*
G36*
X147000D02*
X145838Y294336D01*
X144756Y293887D01*
X143826Y293174D01*
X143113Y292244D01*
X142665Y291162D01*
X142512Y290000D01*
X142665Y288838D01*
X143113Y287756D01*
X143826Y286826D01*
X144756Y286113D01*
X145838Y285665D01*
X147000Y285512D01*
X148162Y285665D01*
X149244Y286113D01*
X150174Y286826D01*
X150887Y287756D01*
X151336Y288838D01*
X151488Y290000D01*
X151336Y291162D01*
X150887Y292244D01*
X150174Y293174D01*
X149244Y293887D01*
X148162Y294336D01*
X147000Y294489D01*
D02*
G37*
G36*
X91000D02*
X89838Y294336D01*
X88756Y293887D01*
X87826Y293174D01*
X87113Y292244D01*
X86665Y291162D01*
X86512Y290000D01*
X86665Y288838D01*
X87113Y287756D01*
X87826Y286826D01*
X88756Y286113D01*
X89838Y285665D01*
X91000Y285512D01*
X92162Y285665D01*
X93244Y286113D01*
X94174Y286826D01*
X94887Y287756D01*
X95336Y288838D01*
X95489Y290000D01*
X95336Y291162D01*
X94887Y292244D01*
X94174Y293174D01*
X93244Y293887D01*
X92162Y294336D01*
X91000Y294489D01*
D02*
G37*
G36*
X81000D02*
X79838Y294336D01*
X78756Y293887D01*
X77826Y293174D01*
X77113Y292244D01*
X76665Y291162D01*
X76512Y290000D01*
X76665Y288838D01*
X77113Y287756D01*
X77826Y286826D01*
X78756Y286113D01*
X79838Y285665D01*
X81000Y285512D01*
X82162Y285665D01*
X83244Y286113D01*
X84174Y286826D01*
X84887Y287756D01*
X85335Y288838D01*
X85488Y290000D01*
X85335Y291162D01*
X84887Y292244D01*
X84174Y293174D01*
X83244Y293887D01*
X82162Y294336D01*
X81000Y294489D01*
D02*
G37*
G36*
X111000D02*
X109838Y294336D01*
X108756Y293887D01*
X107826Y293174D01*
X107113Y292244D01*
X106665Y291162D01*
X106512Y290000D01*
X106665Y288838D01*
X107113Y287756D01*
X107826Y286826D01*
X108756Y286113D01*
X109838Y285665D01*
X111000Y285512D01*
X112162Y285665D01*
X113244Y286113D01*
X114174Y286826D01*
X114887Y287756D01*
X115336Y288838D01*
X115488Y290000D01*
X115336Y291162D01*
X114887Y292244D01*
X114174Y293174D01*
X113244Y293887D01*
X112162Y294336D01*
X111000Y294489D01*
D02*
G37*
G36*
X101000D02*
X99838Y294336D01*
X98756Y293887D01*
X97826Y293174D01*
X97113Y292244D01*
X96665Y291162D01*
X96512Y290000D01*
X96665Y288838D01*
X97113Y287756D01*
X97826Y286826D01*
X98756Y286113D01*
X99838Y285665D01*
X101000Y285512D01*
X102162Y285665D01*
X103244Y286113D01*
X104174Y286826D01*
X104887Y287756D01*
X105335Y288838D01*
X105488Y290000D01*
X105335Y291162D01*
X104887Y292244D01*
X104174Y293174D01*
X103244Y293887D01*
X102162Y294336D01*
X101000Y294489D01*
D02*
G37*
G36*
X337000Y264489D02*
X335838Y264335D01*
X334756Y263887D01*
X333826Y263174D01*
X333113Y262244D01*
X332665Y261162D01*
X332512Y260000D01*
X332665Y258838D01*
X333113Y257756D01*
X333826Y256826D01*
X334756Y256113D01*
X335838Y255665D01*
X337000Y255512D01*
X338162Y255665D01*
X339244Y256113D01*
X340174Y256826D01*
X340887Y257756D01*
X341336Y258838D01*
X341489Y260000D01*
X341336Y261162D01*
X340887Y262244D01*
X340174Y263174D01*
X339244Y263887D01*
X338162Y264335D01*
X337000Y264489D01*
D02*
G37*
G36*
X31000D02*
X29838Y264335D01*
X28756Y263887D01*
X27826Y263174D01*
X27113Y262244D01*
X26665Y261162D01*
X26512Y260000D01*
X26665Y258838D01*
X27113Y257756D01*
X27826Y256826D01*
X28756Y256113D01*
X29838Y255665D01*
X31000Y255512D01*
X32162Y255665D01*
X33244Y256113D01*
X34174Y256826D01*
X34887Y257756D01*
X35335Y258838D01*
X35489Y260000D01*
X35335Y261162D01*
X34887Y262244D01*
X34174Y263174D01*
X33244Y263887D01*
X32162Y264335D01*
X31000Y264489D01*
D02*
G37*
G36*
X152874Y271121D02*
X151687Y270965D01*
X150581Y270507D01*
X149631Y269778D01*
X148903Y268828D01*
X148445Y267722D01*
X148288Y266535D01*
X148445Y265349D01*
X148903Y264243D01*
X149631Y263293D01*
X150581Y262564D01*
X151687Y262106D01*
X152874Y261950D01*
X154061Y262106D01*
X155167Y262564D01*
X156117Y263293D01*
X156845Y264243D01*
X157303Y265349D01*
X157460Y266535D01*
X157303Y267722D01*
X156845Y268828D01*
X156117Y269778D01*
X155167Y270507D01*
X154061Y270965D01*
X152874Y271121D01*
D02*
G37*
G36*
X327000Y264489D02*
X325838Y264335D01*
X324756Y263887D01*
X323826Y263174D01*
X323113Y262244D01*
X322665Y261162D01*
X322512Y260000D01*
X322665Y258838D01*
X323113Y257756D01*
X323475Y257284D01*
X323228Y256784D01*
X302412D01*
X302140Y257140D01*
X301513Y257621D01*
X300783Y257923D01*
X300000Y258026D01*
X299217Y257923D01*
X298487Y257621D01*
X297860Y257140D01*
X297380Y256513D01*
X297077Y255783D01*
X296974Y255000D01*
X297077Y254217D01*
X297380Y253487D01*
X297860Y252860D01*
X298279Y252539D01*
X298109Y252039D01*
X297217D01*
X297140Y252140D01*
X296513Y252621D01*
X295783Y252923D01*
X295000Y253026D01*
X294217Y252923D01*
X293487Y252621D01*
X292860Y252140D01*
X292380Y251513D01*
X292077Y250783D01*
X291974Y250000D01*
X292077Y249217D01*
X292380Y248487D01*
X292860Y247860D01*
X293487Y247380D01*
X294217Y247077D01*
X295000Y246974D01*
X295783Y247077D01*
X296513Y247380D01*
X297140Y247860D01*
X297217Y247961D01*
X323028D01*
X323113Y247756D01*
X323826Y246826D01*
X324756Y246113D01*
X325838Y245665D01*
X327000Y245512D01*
X328162Y245665D01*
X329244Y246113D01*
X330174Y246826D01*
X330887Y247756D01*
X331335Y248838D01*
X331488Y250000D01*
X331335Y251162D01*
X330887Y252244D01*
X330525Y252716D01*
X330772Y253216D01*
X331261D01*
X332855Y251622D01*
X332665Y251162D01*
X332512Y250000D01*
X332665Y248838D01*
X333113Y247756D01*
X333826Y246826D01*
X334756Y246113D01*
X335838Y245665D01*
X337000Y245512D01*
X338162Y245665D01*
X339244Y246113D01*
X340174Y246826D01*
X340887Y247756D01*
X341336Y248838D01*
X341489Y250000D01*
X341336Y251162D01*
X340887Y252244D01*
X340174Y253174D01*
X339244Y253887D01*
X338162Y254335D01*
X337000Y254488D01*
X335838Y254335D01*
X335379Y254145D01*
X333262Y256262D01*
X332683Y256648D01*
X332000Y256784D01*
X330772D01*
X330525Y257284D01*
X330887Y257756D01*
X331335Y258838D01*
X331488Y260000D01*
X331335Y261162D01*
X330887Y262244D01*
X330174Y263174D01*
X329244Y263887D01*
X328162Y264335D01*
X327000Y264489D01*
D02*
G37*
G36*
X21000Y254488D02*
X19838Y254335D01*
X18756Y253887D01*
X17826Y253174D01*
X17113Y252244D01*
X16665Y251162D01*
X16512Y250000D01*
X16665Y248838D01*
X17113Y247756D01*
X17826Y246826D01*
X18756Y246113D01*
X19838Y245665D01*
X21000Y245512D01*
X22162Y245665D01*
X23244Y246113D01*
X24174Y246826D01*
X24887Y247756D01*
X25335Y248838D01*
X25488Y250000D01*
X25335Y251162D01*
X24887Y252244D01*
X24174Y253174D01*
X23244Y253887D01*
X22162Y254335D01*
X21000Y254488D01*
D02*
G37*
G36*
X93000Y244026D02*
X92217Y243923D01*
X91487Y243621D01*
X90860Y243140D01*
X90380Y242513D01*
X90077Y241783D01*
X89974Y241000D01*
X89989Y240885D01*
X89521Y240615D01*
X89513Y240620D01*
X88783Y240923D01*
X88198Y241000D01*
X88000Y241039D01*
X87802Y241000D01*
X87217Y240923D01*
X86487Y240620D01*
X85860Y240140D01*
X85379Y239513D01*
X85077Y238783D01*
X84974Y238000D01*
X85077Y237217D01*
X85379Y236487D01*
X85860Y235860D01*
X85961Y235783D01*
Y230717D01*
X85860Y230640D01*
X85379Y230013D01*
X85077Y229283D01*
X84974Y228500D01*
X85077Y227717D01*
X85379Y226987D01*
X85860Y226360D01*
X86487Y225880D01*
X87217Y225577D01*
X88000Y225474D01*
X88783Y225577D01*
X89513Y225880D01*
X90140Y226360D01*
X90461Y226779D01*
X90961Y226609D01*
Y226000D01*
X90961Y226000D01*
Y225717D01*
X90860Y225640D01*
X90380Y225013D01*
X90077Y224283D01*
X89974Y223500D01*
X90077Y222717D01*
X90380Y221987D01*
X90860Y221360D01*
X91487Y220880D01*
X92217Y220577D01*
X93000Y220474D01*
X93783Y220577D01*
X94513Y220880D01*
X95140Y221360D01*
X95621Y221987D01*
X95923Y222717D01*
X96026Y223500D01*
X95923Y224283D01*
X95621Y225013D01*
X95140Y225640D01*
X95039Y225717D01*
Y226000D01*
X95039Y226000D01*
Y238783D01*
X95140Y238860D01*
X95621Y239487D01*
X95923Y240217D01*
X96026Y241000D01*
X95923Y241783D01*
X95621Y242513D01*
X95140Y243140D01*
X94513Y243621D01*
X93783Y243923D01*
X93000Y244026D01*
D02*
G37*
G36*
X21000Y264489D02*
X19838Y264335D01*
X18756Y263887D01*
X17826Y263174D01*
X17113Y262244D01*
X16665Y261162D01*
X16512Y260000D01*
X16665Y258838D01*
X17113Y257756D01*
X17826Y256826D01*
X18756Y256113D01*
X19838Y255665D01*
X21000Y255512D01*
X22162Y255665D01*
X23244Y256113D01*
X24174Y256826D01*
X24887Y257756D01*
X25335Y258838D01*
X25488Y260000D01*
X25335Y261162D01*
X24887Y262244D01*
X24174Y263174D01*
X23244Y263887D01*
X22162Y264335D01*
X21000Y264489D01*
D02*
G37*
G36*
X31000Y254488D02*
X29838Y254335D01*
X28756Y253887D01*
X27826Y253174D01*
X27113Y252244D01*
X26665Y251162D01*
X26512Y250000D01*
X26665Y248838D01*
X27113Y247756D01*
X27826Y246826D01*
X28756Y246113D01*
X29838Y245665D01*
X31000Y245512D01*
X32162Y245665D01*
X33244Y246113D01*
X34174Y246826D01*
X34887Y247756D01*
X35335Y248838D01*
X35489Y250000D01*
X35335Y251162D01*
X34887Y252244D01*
X34174Y253174D01*
X33244Y253887D01*
X32162Y254335D01*
X31000Y254488D01*
D02*
G37*
G36*
X161374Y265035D02*
X158492D01*
Y264026D01*
X158634Y263309D01*
X159040Y262702D01*
X159648Y262296D01*
X160364Y262153D01*
X161374D01*
Y265035D01*
D02*
G37*
G36*
X371000Y268236D02*
X369904Y268092D01*
X368882Y267669D01*
X368004Y266996D01*
X367331Y266118D01*
X367250Y265922D01*
X366750D01*
X366669Y266118D01*
X365996Y266996D01*
X365118Y267669D01*
X364096Y268092D01*
X363000Y268236D01*
X361904Y268092D01*
X360882Y267669D01*
X360004Y266996D01*
X359331Y266118D01*
X358908Y265096D01*
X358764Y264000D01*
X358908Y262904D01*
X359331Y261882D01*
X360004Y261004D01*
X360882Y260331D01*
X361904Y259908D01*
X363000Y259764D01*
X364096Y259908D01*
X365118Y260331D01*
X365996Y261004D01*
X366669Y261882D01*
X366750Y262078D01*
X367250D01*
X367331Y261882D01*
X368004Y261004D01*
X368882Y260331D01*
X369904Y259908D01*
X371000Y259764D01*
X372096Y259908D01*
X373118Y260331D01*
X373995Y261004D01*
X374669Y261882D01*
X375092Y262904D01*
X375236Y264000D01*
X375092Y265096D01*
X374669Y266118D01*
X373995Y266996D01*
X373118Y267669D01*
X372096Y268092D01*
X371000Y268236D01*
D02*
G37*
G36*
X337000Y274488D02*
X335838Y274336D01*
X334756Y273887D01*
X333826Y273174D01*
X333113Y272244D01*
X332665Y271162D01*
X332512Y270000D01*
X332665Y268838D01*
X333113Y267756D01*
X333826Y266826D01*
X334756Y266113D01*
X335838Y265665D01*
X337000Y265512D01*
X338162Y265665D01*
X339244Y266113D01*
X340174Y266826D01*
X340887Y267756D01*
X341336Y268838D01*
X341489Y270000D01*
X341336Y271162D01*
X340887Y272244D01*
X340174Y273174D01*
X339244Y273887D01*
X338162Y274336D01*
X337000Y274488D01*
D02*
G37*
G36*
X165384Y270918D02*
X164374D01*
Y268035D01*
X167256D01*
Y269045D01*
X167114Y269762D01*
X166708Y270369D01*
X166101Y270775D01*
X165384Y270918D01*
D02*
G37*
G36*
X161374D02*
X160364D01*
X159648Y270775D01*
X159040Y270369D01*
X158634Y269762D01*
X158492Y269045D01*
Y268035D01*
X161374D01*
Y270918D01*
D02*
G37*
G36*
X21000Y274488D02*
X19838Y274336D01*
X18756Y273887D01*
X17826Y273174D01*
X17113Y272244D01*
X16665Y271162D01*
X16512Y270000D01*
X16665Y268838D01*
X17113Y267756D01*
X17826Y266826D01*
X18756Y266113D01*
X19838Y265665D01*
X21000Y265512D01*
X22162Y265665D01*
X23244Y266113D01*
X24174Y266826D01*
X24887Y267756D01*
X25335Y268838D01*
X25488Y270000D01*
X25335Y271162D01*
X24887Y272244D01*
X24174Y273174D01*
X23244Y273887D01*
X22162Y274336D01*
X21000Y274488D01*
D02*
G37*
G36*
X167256Y265035D02*
X164374D01*
Y262153D01*
X165384D01*
X166101Y262296D01*
X166708Y262702D01*
X167114Y263309D01*
X167256Y264026D01*
Y265035D01*
D02*
G37*
G36*
X327000Y274488D02*
X325838Y274336D01*
X324756Y273887D01*
X323826Y273174D01*
X323113Y272244D01*
X322665Y271162D01*
X322512Y270000D01*
X322665Y268838D01*
X323113Y267756D01*
X323826Y266826D01*
X324756Y266113D01*
X325838Y265665D01*
X327000Y265512D01*
X328162Y265665D01*
X329244Y266113D01*
X330174Y266826D01*
X330887Y267756D01*
X331335Y268838D01*
X331488Y270000D01*
X331335Y271162D01*
X330887Y272244D01*
X330174Y273174D01*
X329244Y273887D01*
X328162Y274336D01*
X327000Y274488D01*
D02*
G37*
G36*
X31000D02*
X29838Y274336D01*
X28756Y273887D01*
X27826Y273174D01*
X27113Y272244D01*
X26665Y271162D01*
X26512Y270000D01*
X26665Y268838D01*
X27113Y267756D01*
X27826Y266826D01*
X28756Y266113D01*
X29838Y265665D01*
X31000Y265512D01*
X32162Y265665D01*
X33244Y266113D01*
X34174Y266826D01*
X34887Y267756D01*
X35335Y268838D01*
X35489Y270000D01*
X35335Y271162D01*
X34887Y272244D01*
X34174Y273174D01*
X33244Y273887D01*
X32162Y274336D01*
X31000Y274488D01*
D02*
G37*
%LPD*%
D26*
X256311Y347563D02*
D03*
Y355437D02*
D03*
X241311Y347563D02*
D03*
Y355437D02*
D03*
X331311D02*
D03*
Y347563D02*
D03*
X316311Y355437D02*
D03*
Y347563D02*
D03*
X301311Y355437D02*
D03*
Y347563D02*
D03*
X286311Y355437D02*
D03*
Y347563D02*
D03*
X346311Y355437D02*
D03*
Y347563D02*
D03*
X271311Y355437D02*
D03*
Y347563D02*
D03*
D28*
X364500Y124000D02*
Y147000D01*
D30*
X246500Y225500D02*
X247000D01*
X285500Y222564D02*
X286000Y222064D01*
X285936Y222000D02*
X286000Y222064D01*
X1150000Y302497D02*
Y292500D01*
X1154998D01*
X1156665Y294166D01*
Y295832D01*
X1154998Y297498D01*
X1150000D01*
X1154998D01*
X1156665Y299165D01*
Y300831D01*
X1154998Y302497D01*
X1150000D01*
X1161663Y292500D02*
X1164995D01*
X1166661Y294166D01*
Y297498D01*
X1164995Y299165D01*
X1161663D01*
X1159997Y297498D01*
Y294166D01*
X1161663Y292500D01*
X1171660Y300831D02*
Y299165D01*
X1169994D01*
X1173326D01*
X1171660D01*
Y294166D01*
X1173326Y292500D01*
X1179990Y300831D02*
Y299165D01*
X1178324D01*
X1181656D01*
X1179990D01*
Y294166D01*
X1181656Y292500D01*
X1188321D02*
X1191653D01*
X1193319Y294166D01*
Y297498D01*
X1191653Y299165D01*
X1188321D01*
X1186655Y297498D01*
Y294166D01*
X1188321Y292500D01*
X1196652D02*
Y299165D01*
X1198318D01*
X1199984Y297498D01*
Y292500D01*
Y297498D01*
X1201650Y299165D01*
X1203316Y297498D01*
Y292500D01*
X1216645Y302497D02*
Y292500D01*
X1223310D01*
X1228308Y299165D02*
X1231640D01*
X1233307Y297498D01*
Y292500D01*
X1228308D01*
X1226642Y294166D01*
X1228308Y295832D01*
X1233307D01*
X1236639Y299165D02*
Y294166D01*
X1238305Y292500D01*
X1243303D01*
Y290834D01*
X1241637Y289168D01*
X1239971D01*
X1243303Y292500D02*
Y299165D01*
X1251634Y292500D02*
X1248302D01*
X1246636Y294166D01*
Y297498D01*
X1248302Y299165D01*
X1251634D01*
X1253300Y297498D01*
Y295832D01*
X1246636D01*
X1256632Y299165D02*
Y292500D01*
Y295832D01*
X1258298Y297498D01*
X1259964Y299165D01*
X1261631D01*
D31*
X251000Y233000D02*
X253500Y230500D01*
Y229500D02*
Y230500D01*
X241500Y225000D02*
Y228000D01*
X332000Y255000D02*
X337000Y250000D01*
X300000Y255000D02*
X332000D01*
X286500Y185000D02*
Y192000D01*
X229000Y176000D02*
X246500Y158500D01*
X253500Y229500D02*
X291500Y191500D01*
X245500Y233000D02*
X286500Y192000D01*
X291500Y185000D02*
Y191500D01*
X247000Y225500D02*
X282500Y190000D01*
X241500Y225000D02*
X277000Y189500D01*
D32*
X287000Y290000D02*
X293000Y296000D01*
X303870D01*
X306870Y293000D01*
X367000Y302000D02*
X379500D01*
D33*
X115500Y276500D02*
X126500D01*
D34*
X93000Y223500D02*
Y226000D01*
X93000Y226000D01*
X203000Y134000D02*
Y147000D01*
Y180000D02*
Y188000D01*
X190000Y185000D02*
Y202000D01*
X296000Y129000D02*
Y139000D01*
X267000Y177000D02*
X272000D01*
X269000Y182000D02*
X272000D01*
X244000Y207000D02*
X269000Y182000D01*
X348811Y368000D02*
Y375000D01*
X331311Y355437D02*
Y365500D01*
X333811Y368000D01*
Y375000D01*
X316311Y355437D02*
Y365500D01*
X318811Y368000D01*
Y375000D01*
X301311Y355437D02*
Y365500D01*
X303811Y368000D01*
Y375000D01*
X286311Y355437D02*
Y365500D01*
X288811Y368000D01*
Y375000D01*
X273811Y368000D02*
Y375000D01*
X271311Y365500D02*
X273811Y368000D01*
X271311Y355437D02*
Y365500D01*
X327000Y290000D02*
X327000Y290000D01*
X148000Y151000D02*
Y161000D01*
X153000Y151000D02*
Y161000D01*
X132000Y163000D02*
X138000Y157000D01*
X206000Y198000D02*
X212000Y192000D01*
X295000Y250000D02*
X327000D01*
X172000Y139000D02*
X178000Y133000D01*
X346311Y355437D02*
Y365500D01*
X348811Y368000D01*
X256311Y355437D02*
Y365500D01*
X258811Y368000D01*
Y375000D01*
X241311Y355437D02*
Y365500D01*
X243811Y368000D01*
Y375000D01*
X93000Y226000D02*
Y241000D01*
X282000Y151500D02*
Y160500D01*
X277000Y151500D02*
Y159000D01*
X31000Y150000D02*
X35500D01*
X44500Y159000D01*
X237000Y207000D02*
X267000Y177000D01*
X281000Y236000D02*
X290000Y227000D01*
X275500Y233500D02*
X285500Y223500D01*
X88000Y228500D02*
Y238000D01*
Y239000D01*
D36*
X64500Y99500D02*
X68000D01*
X54000Y110000D02*
X64500Y99500D01*
D38*
X131500Y54000D02*
X212000D01*
X67000Y209000D02*
Y249240D01*
Y249500D01*
X93000Y118000D02*
Y133500D01*
D42*
X237000Y59000D02*
D03*
X247000D02*
D03*
X152874Y266535D02*
D03*
X60921Y317500D02*
D03*
X327500Y60921D02*
D03*
D43*
X162874Y266535D02*
D03*
D44*
X31000Y270000D02*
D03*
X21000D02*
D03*
X31000Y280000D02*
D03*
X21000D02*
D03*
X31000Y290000D02*
D03*
X21000D02*
D03*
Y260000D02*
D03*
X31000D02*
D03*
X21000Y250000D02*
D03*
X31000D02*
D03*
X21000Y240000D02*
D03*
X31000D02*
D03*
X21000Y230000D02*
D03*
X31000D02*
D03*
X21000Y220000D02*
D03*
X31000D02*
D03*
X21000Y210000D02*
D03*
X31000D02*
D03*
X21000Y200000D02*
D03*
X31000D02*
D03*
X21000Y190000D02*
D03*
X31000D02*
D03*
X21000Y180000D02*
D03*
X31000D02*
D03*
X21000Y170000D02*
D03*
X31000D02*
D03*
X21000Y160000D02*
D03*
X31000D02*
D03*
X21000Y150000D02*
D03*
X31000D02*
D03*
Y110000D02*
D03*
X21000D02*
D03*
X31000Y120000D02*
D03*
X21000D02*
D03*
X31000Y130000D02*
D03*
X21000D02*
D03*
X31000Y140000D02*
D03*
X21000D02*
D03*
Y100000D02*
D03*
X217000D02*
D03*
X187000D02*
D03*
X197000D02*
D03*
X207000D02*
D03*
X157000D02*
D03*
X167000D02*
D03*
X177000D02*
D03*
X137000D02*
D03*
X127000D02*
D03*
X117000D02*
D03*
X107000D02*
D03*
X97000D02*
D03*
X227000D02*
D03*
X317000D02*
D03*
X267000D02*
D03*
X257000D02*
D03*
X247000D02*
D03*
X297000D02*
D03*
X287000D02*
D03*
X277000D02*
D03*
X307000D02*
D03*
X337000Y170000D02*
D03*
Y140000D02*
D03*
Y150000D02*
D03*
Y160000D02*
D03*
Y290000D02*
D03*
Y120000D02*
D03*
Y130000D02*
D03*
Y180000D02*
D03*
Y250000D02*
D03*
Y220000D02*
D03*
Y230000D02*
D03*
Y240000D02*
D03*
Y190000D02*
D03*
Y200000D02*
D03*
Y210000D02*
D03*
Y260000D02*
D03*
X327000Y170000D02*
D03*
Y140000D02*
D03*
Y150000D02*
D03*
Y160000D02*
D03*
Y290000D02*
D03*
Y120000D02*
D03*
Y130000D02*
D03*
Y180000D02*
D03*
Y250000D02*
D03*
Y220000D02*
D03*
Y230000D02*
D03*
Y240000D02*
D03*
Y190000D02*
D03*
Y200000D02*
D03*
Y210000D02*
D03*
Y260000D02*
D03*
Y280000D02*
D03*
Y270000D02*
D03*
X337000Y280000D02*
D03*
Y270000D02*
D03*
X111000Y290000D02*
D03*
X81000D02*
D03*
X91000D02*
D03*
X101000D02*
D03*
X51000D02*
D03*
X61000D02*
D03*
X71000D02*
D03*
X121000D02*
D03*
X197000D02*
D03*
X167000D02*
D03*
X177000D02*
D03*
X187000D02*
D03*
X137000D02*
D03*
X147000D02*
D03*
X157000D02*
D03*
X207000D02*
D03*
X287000D02*
D03*
X257000D02*
D03*
X267000D02*
D03*
X277000D02*
D03*
X227000D02*
D03*
X237000D02*
D03*
X247000D02*
D03*
X297000D02*
D03*
D45*
X31000Y100000D02*
D03*
D48*
X363000Y264000D02*
D03*
X371000D02*
D03*
X267000Y85626D02*
D03*
X257000D02*
D03*
D51*
X379000Y223984D02*
D03*
Y172016D02*
D03*
D52*
Y198000D02*
D03*
D53*
X87000Y100000D02*
D03*
D54*
X95500Y375000D02*
D03*
X110500D02*
D03*
X127000Y18000D02*
D03*
X112000D02*
D03*
X142000D02*
D03*
X157000D02*
D03*
X172000D02*
D03*
X187000D02*
D03*
X202000D02*
D03*
X217000D02*
D03*
X232000D02*
D03*
X247000D02*
D03*
X327500D02*
D03*
X312500D02*
D03*
X277000D02*
D03*
X292000D02*
D03*
X213811Y375000D02*
D03*
X228811D02*
D03*
X243811D02*
D03*
X258811D02*
D03*
X273811D02*
D03*
X288811D02*
D03*
X303811D02*
D03*
X318811D02*
D03*
X348811D02*
D03*
X333811D02*
D03*
X375500Y92500D02*
D03*
Y77500D02*
D03*
X16500Y351000D02*
D03*
Y336000D02*
D03*
X375500Y56500D02*
D03*
Y41500D02*
D03*
X56500Y375000D02*
D03*
X71500D02*
D03*
X173500D02*
D03*
X188500D02*
D03*
X134500D02*
D03*
X149500D02*
D03*
D58*
X157000Y305000D02*
D03*
X152000Y305000D02*
D03*
X101000Y305500D02*
D03*
X126500Y276500D02*
D03*
X115500D02*
D03*
X68000Y99500D02*
D03*
X261500Y74500D02*
D03*
X131500Y54000D02*
D03*
X212000D02*
D03*
X67000Y209000D02*
D03*
X385000Y272000D02*
D03*
X93063Y133500D02*
D03*
X93000Y118000D02*
D03*
X54000Y110000D02*
D03*
X67000Y249240D02*
D03*
D59*
X354000Y279000D02*
D03*
X306870Y293000D02*
D03*
X379500Y302000D02*
D03*
X367000D02*
D03*
X274500Y334000D02*
D03*
X82000Y67500D02*
D03*
X87000D02*
D03*
X92000D02*
D03*
X97000D02*
D03*
Y47500D02*
D03*
X92000D02*
D03*
X87000D02*
D03*
X82000D02*
D03*
X97000Y52500D02*
D03*
X92000D02*
D03*
X87000D02*
D03*
X82000D02*
D03*
Y57500D02*
D03*
X87000D02*
D03*
X92000D02*
D03*
X97000D02*
D03*
Y62500D02*
D03*
X92000D02*
D03*
X87000D02*
D03*
X82000D02*
D03*
X241500Y126000D02*
D03*
X93000Y223500D02*
D03*
X79500Y256740D02*
D03*
X88000Y238000D02*
D03*
Y228500D02*
D03*
X203000Y147000D02*
D03*
Y180000D02*
D03*
Y188000D02*
D03*
X190000Y185000D02*
D03*
X296000Y139000D02*
D03*
Y129000D02*
D03*
X304311Y333500D02*
D03*
X251000Y233000D02*
D03*
X245500D02*
D03*
X241500Y228000D02*
D03*
X272000Y177000D02*
D03*
Y182000D02*
D03*
X166000Y201000D02*
D03*
X144000Y208500D02*
D03*
X100500Y229500D02*
D03*
X115500Y178000D02*
D03*
Y166500D02*
D03*
X190000Y202000D02*
D03*
X239000Y193500D02*
D03*
X247000Y225500D02*
D03*
X210122Y130878D02*
D03*
X290000Y227000D02*
D03*
X203000Y134000D02*
D03*
X77000Y141000D02*
D03*
X182000Y205500D02*
D03*
X137000Y246500D02*
D03*
X248000Y148276D02*
D03*
X232500Y123000D02*
D03*
X148000Y161000D02*
D03*
X132000Y163000D02*
D03*
X138000Y157000D02*
D03*
X148000Y151000D02*
D03*
X153000Y161000D02*
D03*
Y151000D02*
D03*
X99500Y248000D02*
D03*
X182000Y228957D02*
D03*
X101516Y203516D02*
D03*
X77000Y180000D02*
D03*
X206000Y198000D02*
D03*
X212000Y192000D02*
D03*
X300000Y255000D02*
D03*
X295000Y250000D02*
D03*
X178000Y133000D02*
D03*
X172000Y139000D02*
D03*
X244000Y207000D02*
D03*
X237000D02*
D03*
X271000Y219000D02*
D03*
X282500Y190000D02*
D03*
X286500Y185000D02*
D03*
X5500Y45000D02*
D03*
Y41000D02*
D03*
X9500D02*
D03*
Y45000D02*
D03*
X332500Y304500D02*
D03*
X93000Y241000D02*
D03*
X229000Y176000D02*
D03*
X246500Y158500D02*
D03*
X282000Y160500D02*
D03*
Y151500D02*
D03*
X277000D02*
D03*
Y159000D02*
D03*
X44500D02*
D03*
X291500Y185000D02*
D03*
X277000Y189500D02*
D03*
X285500Y223500D02*
D03*
X281000Y236000D02*
D03*
X275500Y233500D02*
D03*
X299213Y311024D02*
D03*
X28500Y78000D02*
D03*
X33500D02*
D03*
X38500D02*
D03*
X43500D02*
D03*
X48500D02*
D03*
X53500D02*
D03*
X58500D02*
D03*
X63500D02*
D03*
X28500Y73000D02*
D03*
X63500D02*
D03*
X58500D02*
D03*
X53500D02*
D03*
X48500D02*
D03*
X43500D02*
D03*
X38500D02*
D03*
X33500D02*
D03*
Y68000D02*
D03*
X38500D02*
D03*
X43500D02*
D03*
X48500D02*
D03*
X53500D02*
D03*
X58500D02*
D03*
X63500D02*
D03*
X28500D02*
D03*
X33500Y63000D02*
D03*
X38500D02*
D03*
X43500D02*
D03*
X48500D02*
D03*
X53500D02*
D03*
X58500D02*
D03*
X63500D02*
D03*
X28500D02*
D03*
X33500Y58000D02*
D03*
X38500D02*
D03*
X43500D02*
D03*
X48500D02*
D03*
X53500D02*
D03*
X58500D02*
D03*
X63500D02*
D03*
X28500D02*
D03*
X33500Y53000D02*
D03*
X38500D02*
D03*
X43500D02*
D03*
X48500D02*
D03*
X53500D02*
D03*
X58500D02*
D03*
X63500D02*
D03*
X28500D02*
D03*
X302240Y82760D02*
D03*
X115795Y139000D02*
D03*
X65500Y257000D02*
D03*
X10236Y312598D02*
D03*
Y308598D02*
D03*
X6236D02*
D03*
Y312598D02*
D03*
D60*
X364500Y124000D02*
D03*
X127000Y65500D02*
D03*
X364500Y147000D02*
D03*
D61*
X374500Y124000D02*
D03*
X384500D02*
D03*
X217000Y65500D02*
D03*
X207000D02*
D03*
X197000D02*
D03*
X187000D02*
D03*
X177000D02*
D03*
X167000D02*
D03*
X157000D02*
D03*
X147000D02*
D03*
X137000D02*
D03*
X374500Y147000D02*
D03*
X384500D02*
D03*
D62*
X51079Y317500D02*
D03*
D63*
X327500Y51079D02*
D03*
D64*
X92000Y8000D02*
D03*
Y18000D02*
D03*
D65*
Y28000D02*
D03*
M02*
