G04 Layer_Color=16711935*
%FSLAX25Y25*%
%MOIN*%
G70*
G01*
G75*
%ADD30C,0.01000*%
D30*
X0Y0D02*
Y393701D01*
X393701D01*
Y0D02*
Y393701D01*
X0Y0D02*
X393701D01*
X1150000Y249997D02*
Y240000D01*
X1154998D01*
X1156665Y241666D01*
Y243332D01*
X1154998Y244998D01*
X1150000D01*
X1154998D01*
X1156665Y246665D01*
Y248331D01*
X1154998Y249997D01*
X1150000D01*
X1161663Y240000D02*
X1164995D01*
X1166661Y241666D01*
Y244998D01*
X1164995Y246665D01*
X1161663D01*
X1159997Y244998D01*
Y241666D01*
X1161663Y240000D01*
X1171660Y246665D02*
X1174992D01*
X1176658Y244998D01*
Y240000D01*
X1171660D01*
X1169994Y241666D01*
X1171660Y243332D01*
X1176658D01*
X1179990Y246665D02*
Y240000D01*
Y243332D01*
X1181656Y244998D01*
X1183323Y246665D01*
X1184989D01*
X1196652Y249997D02*
Y240000D01*
X1191653D01*
X1189987Y241666D01*
Y244998D01*
X1191653Y246665D01*
X1196652D01*
X1214979Y249997D02*
X1211647D01*
X1209981Y248331D01*
Y241666D01*
X1211647Y240000D01*
X1214979D01*
X1216645Y241666D01*
Y248331D01*
X1214979Y249997D01*
X1219977Y246665D02*
Y241666D01*
X1221644Y240000D01*
X1226642D01*
Y246665D01*
X1231640Y248331D02*
Y246665D01*
X1229974D01*
X1233307D01*
X1231640D01*
Y241666D01*
X1233307Y240000D01*
X1238305D02*
X1241637D01*
X1239971D01*
Y249997D01*
X1238305D01*
X1246636Y240000D02*
X1249968D01*
X1248302D01*
Y246665D01*
X1246636D01*
X1254966Y240000D02*
Y246665D01*
X1259964D01*
X1261631Y244998D01*
Y240000D01*
X1269961D02*
X1266629D01*
X1264963Y241666D01*
Y244998D01*
X1266629Y246665D01*
X1269961D01*
X1271627Y244998D01*
Y243332D01*
X1264963D01*
M02*
